<?xml version="1.0" encoding="UTF-8" standalone="no"?>
<!-- Created with Inkscape (http://www.inkscape.org/) -->

<svg
   width="1080"
   height="800"
   viewBox="0 0 285.75 211.66666"
   version="1.1"
   id="svg5"
   inkscape:version="1.2.1 (9c6d41e, 2022-07-14)"
   sodipodi:docname="rotaract.svg"
   inkscape:export-filename="2022-09-03_white.png"
   inkscape:export-xdpi="96"
   inkscape:export-ydpi="96"
   xmlns:inkscape="http://www.inkscape.org/namespaces/inkscape"
   xmlns:sodipodi="http://sodipodi.sourceforge.net/DTD/sodipodi-0.dtd"
   xmlns:xlink="http://www.w3.org/1999/xlink"
   xmlns="http://www.w3.org/2000/svg"
   xmlns:svg="http://www.w3.org/2000/svg">
  <sodipodi:namedview
     id="namedview7"
     pagecolor="#323232"
     bordercolor="#666666"
     borderopacity="1.0"
     inkscape:pageshadow="2"
     inkscape:pageopacity="0"
     inkscape:pagecheckerboard="0"
     inkscape:document-units="mm"
     showgrid="false"
     inkscape:zoom="0.40902664"
     inkscape:cx="738.33822"
     inkscape:cy="512.19158"
     inkscape:window-width="1309"
     inkscape:window-height="957"
     inkscape:window-x="0"
     inkscape:window-y="38"
     inkscape:window-maximized="0"
     inkscape:current-layer="layer1"
     inkscape:showpageshadow="2"
     inkscape:deskcolor="#d1d1d1" />
  <defs
     id="defs2">
    <linearGradient
       inkscape:collect="always"
       id="linearGradient2105">
      <stop
         style="stop-color:#ffffff;stop-opacity:0;"
         offset="0"
         id="stop2095" />
      <stop
         style="stop-color:#ffffff;stop-opacity:1;"
         offset="0.21362384"
         id="stop2097" />
      <stop
         style="stop-color:#ffffff;stop-opacity:1;"
         offset="0.44453377"
         id="stop2099" />
      <stop
         style="stop-color:#ffffff;stop-opacity:1;"
         offset="0.62098068"
         id="stop2101" />
      <stop
         style="stop-color:#ffffff;stop-opacity:0;"
         offset="1"
         id="stop2103" />
    </linearGradient>
    <linearGradient
       inkscape:collect="always"
       id="linearGradient107549">
      <stop
         style="stop-color:#ffffff;stop-opacity:1;"
         offset="0"
         id="stop107545" />
      <stop
         style="stop-color:#000000;stop-opacity:1;"
         offset="0.21362384"
         id="stop107553" />
      <stop
         style="stop-color:#000000;stop-opacity:1;"
         offset="0.44453377"
         id="stop107555" />
      <stop
         style="stop-color:#000000;stop-opacity:1;"
         offset="0.62098068"
         id="stop107557" />
      <stop
         style="stop-color:#ffffff;stop-opacity:1;"
         offset="1"
         id="stop107547" />
    </linearGradient>
    <inkscape:path-effect
       effect="bspline"
       id="path-effect107142"
       is_visible="true"
       lpeversion="1"
       weight="33.333333"
       steps="2"
       helper_size="0"
       apply_no_weight="true"
       apply_with_weight="true"
       only_selected="false" />
    <inkscape:path-effect
       effect="bspline"
       id="path-effect106922"
       is_visible="true"
       lpeversion="1"
       weight="33.333333"
       steps="2"
       helper_size="0"
       apply_no_weight="true"
       apply_with_weight="true"
       only_selected="false" />
    <inkscape:path-effect
       effect="bspline"
       id="path-effect106801"
       is_visible="true"
       lpeversion="1"
       weight="33.333333"
       steps="2"
       helper_size="0"
       apply_no_weight="true"
       apply_with_weight="true"
       only_selected="false" />
    <inkscape:path-effect
       effect="bspline"
       id="path-effect106797"
       is_visible="true"
       lpeversion="1"
       weight="33.333333"
       steps="2"
       helper_size="0"
       apply_no_weight="true"
       apply_with_weight="true"
       only_selected="false" />
    <inkscape:path-effect
       effect="bspline"
       id="path-effect105821"
       is_visible="true"
       lpeversion="1"
       weight="33.333333"
       steps="2"
       helper_size="0"
       apply_no_weight="true"
       apply_with_weight="true"
       only_selected="false" />
    <inkscape:path-effect
       effect="bspline"
       id="path-effect105817"
       is_visible="true"
       lpeversion="1"
       weight="33.333333"
       steps="2"
       helper_size="0"
       apply_no_weight="true"
       apply_with_weight="true"
       only_selected="false" />
    <inkscape:path-effect
       effect="simplify"
       id="path-effect105751"
       is_visible="true"
       lpeversion="1"
       steps="1"
       threshold="0.00522388"
       smooth_angles="360"
       helper_size="0"
       simplify_individual_paths="false"
       simplify_just_coalesce="false" />
    <inkscape:path-effect
       effect="simplify"
       id="path-effect105739"
       is_visible="true"
       lpeversion="1"
       steps="1"
       threshold="0.00522388"
       smooth_angles="360"
       helper_size="0"
       simplify_individual_paths="false"
       simplify_just_coalesce="false" />
    <inkscape:path-effect
       effect="simplify"
       id="path-effect105723"
       is_visible="true"
       lpeversion="1"
       steps="1"
       threshold="0.00522388"
       smooth_angles="360"
       helper_size="0"
       simplify_individual_paths="false"
       simplify_just_coalesce="false" />
    <inkscape:path-effect
       effect="simplify"
       id="path-effect2798"
       is_visible="true"
       lpeversion="1"
       steps="1"
       threshold="0.00645161"
       smooth_angles="360"
       helper_size="0"
       simplify_individual_paths="false"
       simplify_just_coalesce="false" />
    <linearGradient
       inkscape:collect="always"
       xlink:href="#linearGradient2105"
       id="linearGradient107551"
       x1="30.199848"
       y1="126.91733"
       x2="158.77122"
       y2="126.91733"
       gradientUnits="userSpaceOnUse"
       spreadMethod="pad"
       gradientTransform="matrix(1.7856653,0,0,1.7856653,-46.469077,-82.121876)" />
    <inkscape:path-effect
       effect="bspline"
       id="path-effect107142-9"
       is_visible="true"
       lpeversion="1"
       weight="33.333333"
       steps="2"
       helper_size="0"
       apply_no_weight="true"
       apply_with_weight="true"
       only_selected="false" />
    <linearGradient
       inkscape:collect="always"
       xlink:href="#linearGradient107549"
       id="linearGradient1327"
       gradientUnits="userSpaceOnUse"
       x1="30.199848"
       y1="126.91733"
       x2="158.77122"
       y2="126.91733"
       spreadMethod="pad"
       gradientTransform="translate(2.8189528e-6)" />
    <mask
       maskUnits="userSpaceOnUse"
       id="mask1352">
      <path
         style="fill:url(#linearGradient1356);fill-opacity:1;stroke:none;stroke-width:1;stroke-dasharray:none;stroke-opacity:0.564767"
         d="m 50.321093,130.17381 c -0.988793,-0.39046 -2.081595,0.44216 -3.330529,1.40488 -1.248935,0.96272 -2.653938,2.0555 -3.980931,3.12229 -1.326994,1.0668 -2.575886,2.10754 -3.928909,3.35649 -1.353023,1.24894 -2.810063,2.70599 -4.05901,4.18912 -1.248947,1.48313 -2.289691,2.99221 -3.044258,4.31924 -0.754568,1.32702 -1.222904,2.47184 -1.509101,3.53868 -0.286197,1.06685 -0.390272,2.05556 -0.07792,3.07035 0.312355,1.01479 1.040875,2.05553 1.925586,2.88809 0.884712,0.83256 1.925457,1.45701 3.200406,1.92529 1.274949,0.46829 2.784029,0.78051 4.449257,0.98864 1.665228,0.20813 3.486529,0.31221 5.542043,0.26015 2.055513,-0.0521 4.345151,-0.26021 6.764943,-0.57245 2.419793,-0.31224 4.969617,-0.72854 7.701643,-1.27495 2.732026,-0.54642 5.646109,-1.2229 8.612311,-1.97746 2.966202,-0.75457 5.984361,-1.58716 8.612295,-2.4458 2.627934,-0.85865 4.865532,-1.74328 7.207284,-2.62794 2.341752,-0.88466 4.787498,-1.76929 7.493516,-2.75803 2.706018,-0.98874 5.672139,-2.08152 8.117937,-3.07026 2.4458,-0.98873 4.37118,-1.87336 6.63486,-2.9922 2.26368,-1.11883 4.86554,-2.4718 7.05116,-3.61665 2.18562,-1.14485 3.95489,-2.08152 5.67217,-3.01822 1.71727,-0.9367 3.38246,-1.87336 5.07371,-2.91414 1.69125,-1.04077 3.40847,-2.18559 5.25585,-3.38248 1.84738,-1.19689 3.8248,-2.44579 5.80225,-3.90286 1.97745,-1.45708 3.95486,-3.12227 5.95835,-4.81353 2.0035,-1.69126 4.03295,-3.40849 5.93234,-5.25584 1.8994,-1.84736 3.66866,-3.82478 5.38593,-6.06243 1.71727,-2.23764 3.38245,-4.73542 4.60536,-6.68686 1.2229,-1.951434 2.00346,-3.356436 0.72867,-4.735444 -1.27478,-1.379008 -4.60516,-2.731975 -6.843,-2.523836 -2.23784,0.20814 -3.38265,1.977403 -4.31935,3.616645 -0.9367,1.639241 -1.66523,3.148325 -2.60192,4.735475 -0.93669,1.58715 -2.08152,3.25235 -3.07024,4.57932 -0.98873,1.32697 -1.82132,2.31568 -2.73199,3.33042 -0.91067,1.01475 -1.89938,2.05549 -3.09625,3.07023 -1.19686,1.01473 -2.60186,2.00344 -4.11099,3.09625 -1.50913,1.09282 -3.12229,2.28968 -4.73549,3.53861 -1.61321,1.24893 -3.22636,2.54986 -5.67217,4.16306 -2.44581,1.61319 -5.72415,3.53857 -8.22198,4.86555 -2.49783,1.32698 -4.21506,2.0555 -6.1405,2.91414 -1.92544,0.85864 -4.05897,1.84735 -6.37469,2.88813 -2.31572,1.04077 -4.813505,2.13355 -7.857787,3.56462 -3.044283,1.43107 -6.634848,3.20034 -9.496953,4.47528 -2.862106,1.27494 -4.995632,2.0555 -7.181269,2.91414 -2.185637,0.85864 -4.423237,1.79532 -6.790988,2.67997 -2.36775,0.88466 -4.865535,1.71726 -7.337351,2.34173 -2.471815,0.62447 -4.917563,1.04077 -7.025127,1.37902 -2.107564,0.33825 -3.876827,0.59844 -5.542055,0.78058 -1.665227,0.18214 -3.226343,0.28622 -4.839513,0.13015 -1.613171,-0.15607 -3.278359,-0.57237 -4.371245,-1.3008 -1.092887,-0.72843 -1.613256,-1.76917 -1.795487,-2.73194 -0.18223,-0.96276 -0.02612,-1.8474 0.312129,-2.78416 0.338245,-0.93675 0.858619,-1.92546 1.483095,-2.8882 0.624477,-0.96275 1.352997,-1.89942 2.055554,-2.62799 0.702556,-0.72858 1.379045,-1.24895 2.107579,-1.84739 0.728535,-0.59844 1.509091,-1.27492 2.341735,-1.8994 0.832643,-0.62448 1.717274,-1.19689 2.862152,-1.82136 1.144878,-0.62447 2.549885,-1.30096 2.810099,-2.44563 0.260213,-1.14467 -0.624421,-2.75783 -1.613215,-3.14829 z"
         id="path1354"
         inkscape:original-d="m 50.425064,128.95077 c -1.092538,0.83288 -2.185342,1.66549 -3.27841,2.49784 -1.404797,1.09309 -2.8098,2.18587 -4.215098,3.27841 -1.248677,1.04105 -2.497571,2.08179 -3.746754,3.12229 -1.456835,1.45737 -2.913877,2.91441 -4.371213,4.37122 -1.040521,1.5094 -2.081265,3.01848 -3.122295,4.52733 -0.468087,1.14512 -0.936424,2.28994 -1.405033,3.43452 -0.103811,0.98901 -0.207888,1.97772 -0.312229,2.96618 0.728816,1.04105 1.457336,2.08179 2.185606,3.12229 1.041051,0.62474 2.081795,1.24919 3.122295,1.87338 1.509406,0.3125 3.018484,0.62473 4.527328,0.93669 1.821641,0.10434 3.642942,0.20842 5.464016,0.31223 2.289993,-0.20789 4.579631,-0.41604 6.869049,-0.62446 2.55019,-0.41605 5.100014,-0.83235 7.649623,-1.24892 2.914465,-0.67625 5.828549,-1.35273 8.742426,-2.02949 3.018542,-0.83236 6.036699,-1.66496 9.054653,-2.49783 2.237954,-0.88441 4.475554,-1.76904 6.712934,-2.65396 2.446113,-0.8844 4.89186,-1.76903 7.337394,-2.65395 2.966503,-1.09256 5.932625,-2.18534 8.898534,-3.27841 1.92572,-0.8844 3.8511,-1.76903 5.77625,-2.65395 2.60223,-1.35275 5.20409,-2.70572 7.80574,-4.05898 1.76959,-0.93644 3.53886,-1.87311 5.30789,-2.81007 1.66553,-0.93644 3.33072,-1.87311 4.99568,-2.81006 1.71756,-1.1446 3.43479,-2.28942 5.15178,-3.43453 1.97776,-1.24867 3.95517,-2.49757 5.93236,-3.74675 1.97776,-1.66499 3.95517,-3.33018 5.93236,-4.99567 2.0298,-1.71703 4.05925,-3.43426 6.08848,-5.15179 1.7696,-1.97722 3.53886,-3.95464 5.3079,-5.93236 1.66552,-2.49762 3.33071,-4.9954 4.99567,-7.4935 0.78085,-1.404802 1.56141,-2.809801 2.34172,-4.215101 -3.33025,-1.352751 -6.66063,-2.705722 -9.99134,-4.058981 -1.1446,1.7696 -2.28942,3.538861 -3.43452,5.307899 -0.72829,1.509401 -1.45681,3.018483 -2.18561,4.527323 -1.1446,1.66552 -2.28942,3.33072 -3.43453,4.99568 -0.83236,0.98901 -1.66496,1.97771 -2.49783,2.96618 -0.98848,1.04104 -1.97719,2.08179 -2.96618,3.12229 -1.4048,0.98901 -2.8098,1.97772 -4.2151,2.96618 -1.61295,1.19717 -3.22611,2.39402 -4.83956,3.59064 -1.61295,1.30124 -3.2261,2.60217 -4.83955,3.90287 -3.27821,1.92572 -6.55656,3.85109 -9.83523,5.77624 -1.71703,0.72882 -3.43426,1.45734 -5.15179,2.18561 -2.13334,0.98901 -4.26687,1.97772 -6.4007,2.96618 -2.49762,1.09309 -4.995406,2.18587 -7.493506,3.27841 -3.590447,1.7696 -7.181014,3.53886 -10.771918,5.3079 -2.133346,0.78085 -4.266872,1.56141 -6.400705,2.34172 -2.237425,0.93697 -4.475025,1.87364 -6.712932,2.81007 -2.497621,0.83289 -4.995407,1.66548 -7.493508,2.49783 -2.445583,0.41658 -4.89133,0.83288 -7.337393,1.24892 -1.769073,0.26046 -3.538336,0.52065 -5.307901,0.78057 -1.560915,0.10435 -3.122031,0.20842 -4.683443,0.31223 -1.664994,-0.41605 -3.330183,-0.83234 -4.995672,-1.24891 -0.520128,-1.04053 -1.0405,-2.08127 -1.561147,-3.1223 0.156382,-0.8844 0.312494,-1.76904 0.468344,-2.65395 0.520658,-0.98848 1.04103,-1.97719 1.561147,-2.96618 0.728816,-0.93644 1.457336,-1.87311 2.185607,-2.81007 0.676775,-0.52012 1.353259,-1.0405 2.029492,-1.56114 0.780854,-0.67625 1.561412,-1.35273 2.341721,-2.02949 0.884933,-0.57217 1.769565,-1.14458 2.653951,-1.71727 1.405326,-0.67624 2.81033,-1.35273 4.215098,-2.02949 -0.884404,-1.61295 -1.769036,-3.22611 -2.653951,-4.83956 z"
         inkscape:path-effect="#path-effect107142-9" />
    </mask>
    <linearGradient
       inkscape:collect="always"
       xlink:href="#linearGradient107549"
       id="linearGradient1356"
       gradientUnits="userSpaceOnUse"
       gradientTransform="translate(2.8189529e-6)"
       x1="30.199848"
       y1="126.91733"
       x2="158.77122"
       y2="126.91733"
       spreadMethod="pad" />
    <inkscape:path-effect
       effect="simplify"
       id="path-effect105723-1"
       is_visible="true"
       lpeversion="1"
       steps="1"
       threshold="0.00522388"
       smooth_angles="360"
       helper_size="0"
       simplify_individual_paths="false"
       simplify_just_coalesce="false" />
    <inkscape:path-effect
       effect="simplify"
       id="path-effect105739-1"
       is_visible="true"
       lpeversion="1"
       steps="1"
       threshold="0.00522388"
       smooth_angles="360"
       helper_size="0"
       simplify_individual_paths="false"
       simplify_just_coalesce="false" />
    <inkscape:path-effect
       effect="simplify"
       id="path-effect105751-0"
       is_visible="true"
       lpeversion="1"
       steps="1"
       threshold="0.00522388"
       smooth_angles="360"
       helper_size="0"
       simplify_individual_paths="false"
       simplify_just_coalesce="false" />
    <inkscape:path-effect
       effect="simplify"
       id="path-effect105723-1-0"
       is_visible="true"
       lpeversion="1"
       steps="1"
       threshold="0.00522388"
       smooth_angles="360"
       helper_size="0"
       simplify_individual_paths="false"
       simplify_just_coalesce="false" />
    <inkscape:path-effect
       effect="simplify"
       id="path-effect105739-1-0"
       is_visible="true"
       lpeversion="1"
       steps="1"
       threshold="0.00522388"
       smooth_angles="360"
       helper_size="0"
       simplify_individual_paths="false"
       simplify_just_coalesce="false" />
    <inkscape:path-effect
       effect="simplify"
       id="path-effect105751-0-9"
       is_visible="true"
       lpeversion="1"
       steps="1"
       threshold="0.00522388"
       smooth_angles="360"
       helper_size="0"
       simplify_individual_paths="false"
       simplify_just_coalesce="false" />
    <inkscape:path-effect
       effect="simplify"
       id="path-effect105723-6"
       is_visible="true"
       lpeversion="1"
       steps="1"
       threshold="0.00522388"
       smooth_angles="360"
       helper_size="0"
       simplify_individual_paths="false"
       simplify_just_coalesce="false" />
    <inkscape:path-effect
       effect="simplify"
       id="path-effect105723-3"
       is_visible="true"
       lpeversion="1"
       steps="1"
       threshold="0.00522388"
       smooth_angles="360"
       helper_size="0"
       simplify_individual_paths="false"
       simplify_just_coalesce="false" />
    <inkscape:path-effect
       effect="simplify"
       id="path-effect105739-8"
       is_visible="true"
       lpeversion="1"
       steps="1"
       threshold="0.00522388"
       smooth_angles="360"
       helper_size="0"
       simplify_individual_paths="false"
       simplify_just_coalesce="false" />
    <inkscape:path-effect
       effect="simplify"
       id="path-effect105751-4"
       is_visible="true"
       lpeversion="1"
       steps="1"
       threshold="0.00522388"
       smooth_angles="360"
       helper_size="0"
       simplify_individual_paths="false"
       simplify_just_coalesce="false" />
    <inkscape:path-effect
       effect="bspline"
       id="path-effect106797-7"
       is_visible="true"
       lpeversion="1"
       weight="33.333333"
       steps="2"
       helper_size="0"
       apply_no_weight="true"
       apply_with_weight="true"
       only_selected="false" />
    <inkscape:path-effect
       effect="bspline"
       id="path-effect106801-2"
       is_visible="true"
       lpeversion="1"
       weight="33.333333"
       steps="2"
       helper_size="0"
       apply_no_weight="true"
       apply_with_weight="true"
       only_selected="false" />
    <inkscape:path-effect
       effect="bspline"
       id="path-effect106797-5"
       is_visible="true"
       lpeversion="1"
       weight="33.333333"
       steps="2"
       helper_size="0"
       apply_no_weight="true"
       apply_with_weight="true"
       only_selected="false" />
    <inkscape:path-effect
       effect="bspline"
       id="path-effect106801-8"
       is_visible="true"
       lpeversion="1"
       weight="33.333333"
       steps="2"
       helper_size="0"
       apply_no_weight="true"
       apply_with_weight="true"
       only_selected="false" />
    <inkscape:path-effect
       effect="bspline"
       id="path-effect106797-58"
       is_visible="true"
       lpeversion="1"
       weight="33.333333"
       steps="2"
       helper_size="0"
       apply_no_weight="true"
       apply_with_weight="true"
       only_selected="false" />
    <inkscape:path-effect
       effect="bspline"
       id="path-effect106801-5"
       is_visible="true"
       lpeversion="1"
       weight="33.333333"
       steps="2"
       helper_size="0"
       apply_no_weight="true"
       apply_with_weight="true"
       only_selected="false" />
  </defs>
  <g
     inkscape:label="Layer 1"
     inkscape:groupmode="layer"
     id="layer1">
    <g
       id="g3259"
       transform="translate(0,-16.39002)">
      <g
         id="g896"
         style="fill:none;stroke:#ffffff;stroke-width:0.8;stroke-dasharray:none"
         transform="matrix(1.7856652,0,0,1.7856652,-46.469077,-82.121875)">
        <path
           style="opacity:1;fill:none;fill-opacity:1;stroke:#ffffff;stroke-width:0.8;stroke-dasharray:none;stroke-opacity:1"
           d="m 72.881796,163.80195 c 0.787888,-1.87645 1.57572,-3.75277 2.522526,-5.65125 0.946805,-1.89848 2.052479,-3.81886 3.216387,-5.62292 1.163909,-1.80407 2.38597,-3.49167 3.375307,-4.6847 0.989337,-1.19302 1.745847,-1.89134 2.007805,-2.44403 0.261957,-0.55269 0.02918,-0.96004 -0.145425,-1.30921 -0.174611,-0.34917 -0.290998,-0.64014 -0.407438,-1.36759 -0.116439,-0.72746 -0.232827,-1.89133 -8.4e-5,-3.1717 0.232743,-1.28037 0.814676,-2.67701 1.542191,-3.60822 0.727514,-0.9312 1.600413,-1.39675 2.560692,-1.71681 0.96028,-0.32006 2.00776,-0.49464 2.910537,-0.32775 0.902776,0.1669 1.660415,0.67482 2.418369,1.18295 0.580519,-0.27535 1.16115,-0.55076 1.684285,-0.65929 0.523136,-0.10854 0.988675,-0.0503 1.687024,0.0661 0.69835,0.1164 1.629443,0.29098 2.473277,0.58202 0.843835,0.29103 1.600341,0.69838 2.211331,1.25131 0.611,0.55292 1.07654,1.25124 1.42564,2.15327 0.3491,0.90202 0.58187,2.00769 0.61091,2.88055 0.029,0.87286 -0.14554,1.51299 -0.37589,2.04154 -0.23034,0.52854 -0.51642,0.94554 -0.80254,1.36261 0.23763,0.21176 0.47554,0.42377 0.70588,0.65171 0.23034,0.22794 0.45341,0.47202 0.85594,0.85594 0.40253,0.38391 0.98446,0.90765 1.50819,1.46052 0.52373,0.55288 0.98928,1.13482 1.57121,1.97865 0.58193,0.84384 1.28025,1.94951 2.15316,3.54989 0.87291,1.60037 1.92039,3.69534 2.61868,5.49936 0.69829,1.80402 1.04738,3.31677 1.39655,4.82983 -1.47653,0.67961 -2.95291,1.35915 -4.69006,1.97504 -1.73715,0.61588 -3.73481,1.16799 -5.68539,1.57539 -1.95059,0.40739 -3.853898,0.67001 -5.783031,0.8116 -1.929133,0.14158 -3.883891,0.16208 -6.054327,0.0559 -2.170435,-0.10612 -4.556313,-0.33889 -6.852027,-0.77136 -2.295713,-0.43248 -4.50101,-1.06466 -6.262559,-1.66948 -1.761548,-0.60482 -3.07948,-1.18239 -4.39712,-1.75984 0,0 0,-3e-5 0,-3e-5 z"
           id="path106795"
           sodipodi:nodetypes="ccccccccccccccccccccccccccccccccccc"
           inkscape:original-d="m 72.881796,163.80195 c 0,0 1.576041,-3.75264 2.363663,-5.62936 1.105982,-1.92019 2.211655,-3.84057 3.317084,-5.76125 1.222375,-1.68741 2.444432,-3.37502 3.666254,-5.06292 0.756807,-0.69809 1.513319,-1.39641 2.269583,-2.09501 -0.232518,-0.4071 -0.465291,-0.81445 -0.698333,-1.22208 -0.116126,-0.29071 -0.232513,-0.58168 -0.349166,-0.87292 -0.116128,-1.16364 -0.232513,-2.32751 -0.349168,-3.49166 0.582221,-1.39644 1.164154,-2.79308 1.745835,-4.19001 0.873199,-0.4653 1.746099,-0.93084 2.618751,-1.39666 1.047787,-0.17433 2.095267,-0.34891 3.142501,-0.52375 0.758231,0.5084 2.273863,1.52439 2.273863,1.52439 0,0 1.161302,-0.55044 1.741557,-0.82606 0.46583,0.0585 0.931375,0.11665 1.396666,0.17458 0.931397,0.17485 1.86249,0.34943 2.793336,0.52375 0.756809,0.40764 1.513318,0.81499 2.269588,1.22209 0.46583,0.69861 0.93137,1.39693 1.39666,2.095 0.23305,1.10598 0.46582,2.21165 0.69834,3.31708 -0.17432,0.64042 -0.3489,1.28055 -0.52375,1.92042 -0.28586,0.41734 -0.85836,1.2512 -0.85836,1.2512 0,0 0.47553,0.42379 0.71289,0.63528 0.22334,0.24436 0.44641,0.48844 0.66922,0.73227 0.58222,0.52403 1.16415,1.04777 1.74583,1.57125 0.46583,0.58222 0.93138,1.16416 1.39667,1.74584 0.69861,1.10598 1.39693,2.21165 2.095,3.31708 1.04779,2.09531 2.09527,4.19027 3.1425,6.28501 0.34943,1.51332 1.0475,4.53917 1.0475,4.53917 0,0 -2.95276,1.35947 -4.42959,2.03883 -1.99753,0.55241 -3.99519,1.10451 -5.99325,1.65639 -1.90316,0.2629 -3.806467,0.52552 -5.710159,0.78789 -1.954613,0.0207 -3.909371,0.0412 -5.864511,0.0615 -2.385756,-0.23252 -4.771634,-0.46529 -7.157919,-0.69833 -2.205169,-0.63196 -4.410466,-1.26415 -6.616166,-1.89664 -1.317403,-0.57719 -3.952919,-1.73234 -3.952919,-1.73234 z"
           inkscape:path-effect="#path-effect106797" />
        <path
           style="opacity:1;fill:none;fill-opacity:0.435233;stroke:#ffffff;stroke-width:0.8;stroke-dasharray:none;stroke-opacity:1"
           d="m 92.994617,135.00761 c -0.458625,0.37657 -0.917274,0.75316 -1.402231,1.20964 -0.484957,0.45648 -0.996146,0.99278 -1.397253,1.84298 -0.401107,0.8502 -0.692073,2.01406 -0.717679,3.05993 -0.02561,1.04586 0.214013,1.97351 0.609914,2.82415 0.395901,0.85065 0.947907,1.6242 1.613326,2.19113 0.665418,0.56693 1.444073,0.92733 2.36194,1.02811 0.917867,0.10079 1.974963,-0.0579 2.658265,-0.0557 0.683303,0.002 0.992376,0.16468 1.301767,0.3274 -0.343405,-0.0166 -0.686531,-0.0332 -1.223867,-0.052 -0.537337,-0.0189 -1.268599,-0.04 -2.447093,0.0269 -1.178494,0.0669 -2.804151,0.22171 -4.142671,0.48797 -1.338521,0.26626 -2.389708,0.64393 -3.17725,1.03647 -0.787543,0.39254 -1.311282,0.79989 -1.706293,1.38898 -0.395012,0.58909 -0.661175,1.35968 -0.531311,2.01307 0.129865,0.65338 0.655419,1.18936 1.370486,1.53138 0.715067,0.34203 1.61953,0.49026 2.53733,0.59345 0.9178,0.1032 1.84889,0.16139 2.780003,0.19048 0.931113,0.0291 1.862205,0.0291 2.735141,0.0582 0.872935,0.0291 1.687639,0.0873 2.356872,0.11638 0.669232,0.0291 1.192972,0.0291 1.717477,0.40582 0.524506,0.37673 1.049787,1.12984 1.136948,1.8863 0.08716,0.75645 -0.263553,1.51635 -0.729847,2.12902 -0.466293,0.61266 -1.048227,1.07821 -2.061972,1.41251 -1.013746,0.33429 -2.459399,0.53732 -4.001548,0.53736 -1.542149,3e-5 -3.181007,-0.20304 -4.819604,-0.40608"
           id="path106799"
           sodipodi:nodetypes="cccccccscssccccccccccccccc"
           inkscape:original-d="m 92.994617,135.00761 c -0.458388,0.37686 -0.917039,0.75345 -1.375977,1.1298 -0.51094,0.53658 -1.022128,1.07288 -1.533588,1.60892 -0.290714,1.16418 -0.581681,2.32804 -0.872919,3.49167 0.239899,0.92797 0.479518,1.85562 0.718887,2.78306 0.5523,0.77386 1.104304,1.54742 1.656075,2.32075 0.778963,0.36068 1.557617,0.72108 2.33605,1.08123 1.0574,-0.15841 2.114496,-0.31707 3.171347,-0.476 0.309656,0.16299 0.928174,0.48816 0.928174,0.48816 0,0 -0.686545,-0.0329 -1.030215,-0.0498 -0.730997,-0.0208 -1.462259,-0.0419 -2.193786,-0.0633 -1.625425,0.15512 -3.251082,0.30997 -4.877068,0.46456 -1.050967,0.37796 -2.102156,0.75563 -3.153632,1.13305 -0.523496,0.40763 -1.047236,0.81498 -1.571252,1.22208 -0.265915,0.7709 -0.532077,1.54149 -0.798522,2.31186 0.525856,0.53629 1.051413,1.07227 1.57674,1.60803 0.904768,0.1485 1.809231,0.29673 2.713451,0.4447 0.931397,0.0585 1.86249,0.11665 2.793336,0.17458 0.931395,2.7e-4 1.862487,2.7e-4 2.793336,0 0.815002,0.0585 1.629709,0.11665 2.444168,0.17458 0.524023,2.7e-4 1.047763,2.7e-4 1.571249,0 0.52558,0.75342 1.050861,1.50653 1.575914,2.25943 -0.350465,0.7602 -0.70118,1.5201 -1.052163,2.27974 -0.581692,0.46583 -1.163624,0.93138 -1.745835,1.39667 -1.445472,0.20331 -2.891126,0.40634 -4.337128,0.60912 -1.638365,-0.20278 -4.915792,-0.60912 -4.915792,-0.60912"
           inkscape:path-effect="#path-effect106801" />
      </g>
      <path
         id="path105737"
         style="fill:#ffffff;fill-opacity:1;stroke:none;stroke-width:1.78566;stroke-dasharray:none;stroke-opacity:1"
         d="m 118.40283,71.674976 c -2.69998,0.02179 -5.46387,0.224958 -8.27542,0.628412 1.0086,3.461923 5.24584,7.300781 8.33356,8.308592 5.20943,1.700347 7.44887,7.31996 9.93364,11.66566 2.75832,4.82403 10.72173,3.36683 15.84489,5.70822 1.20493,0.55066 2.43812,0.98154 3.68832,1.34078 3.98553,-1.61815 7.5077,-3.01472 10.45772,-4.13769 -2.0025,-1.41985 -3.38423,-3.4194 -3.43178,-6.4603 -0.0305,-1.95597 0.54967,-4.013441 1.09718,-5.997067 -8.46543,-5.337531 -21.4569,-10.889468 -36.49464,-11.054767 -0.38305,-0.0035 -0.76777,-0.0053 -1.15347,-0.0018 z M 75.842929,88.36786 c -4.040379,3.39655 -8.070397,7.39754 -12.054101,12.09195 -4.728002,5.57146 -10.654899,16.99871 -12.505349,30.91182 5.215984,1.67005 11.880873,-0.1979 17.030598,-2.91966 3.504057,-1.85192 8.299361,-1.33727 11.154387,1.24759 0.171614,-0.8152 0.346379,-1.61948 0.526909,-2.37335 4.136463,-1.57247 9.523084,-3.74282 15.576301,-6.23146 0.02218,-0.0563 0.03814,-0.11269 0.06087,-0.16893 1.850181,-4.52625 6.683446,-9.82994 3.67078,-14.39149 -3.124032,-4.73015 -2.603528,-7.51232 -3.947608,-11.39343 -2.180995,-6.29775 -9.70447,-3.92382 -14.893474,-4.67751 -1.751627,-0.25442 -3.238456,-1.06562 -4.619347,-2.09561 z m 104.218421,13.30631 c 0,0 -8.53315,4.02841 -12.05041,5.47201 0.37472,1.04404 0.44102,2.21923 0.0497,3.51761 -2.32408,7.71337 6.84914,-6.21947 10.02958,-1.24574 2.7838,4.35346 0.0649,10.0945 -2.318,14.2789 -3.77852,6.63555 -8.91019,-2.98175 -12.69451,-4.87589 -4.38854,-2.19658 0.43097,10.46448 -3.92732,14.11925 -3.80995,3.19492 -2.37885,10.13075 -6.96135,12.92985 -4.86329,2.97055 -3.98702,8.37761 -3.19737,13.0387 0.77679,4.58541 0.54205,9.69936 3.07002,13.74463 2.19931,3.51934 3.37732,-1.34074 3.7898,-3.82211 0.65777,-3.95635 1.01953,-12.75438 6.97429,-8.20524 3.41678,2.61023 7.1847,7.02066 6.46123,11.54843 -0.79853,4.99747 -8.55932,4.45997 -10.69488,8.49317 -1.99581,3.76931 -5.08487,9.18261 -7.65714,4.81315 -2.07536,-3.5255 0.54629,-6.27155 -2.19526,-8.4793 -4.54588,-3.66071 -4.10472,2.59479 -4.49388,5.26807 -0.15982,1.09841 -0.42763,2.00442 -0.78806,2.74248 0.0462,0.0664 0.0884,0.12177 0.13571,0.19008 0.25978,0.3767 0.53294,0.78282 0.82035,1.22452 0.28741,0.44169 0.5888,0.91896 0.90707,1.43858 0.31829,0.51964 0.65347,1.0818 1.00581,1.69237 0.35238,0.61055 0.72229,1.26952 1.11195,1.98393 0.38968,0.71443 0.79851,1.48379 1.21252,2.28663 0.41401,0.80284 0.83293,1.6394 1.24206,2.48685 0.22094,0.45772 0.42648,0.91866 0.63947,1.37955 30.35327,-14.24316 35.96949,-45.51829 35.96949,-45.51829 0,0 3.41183,-1.46898 7.04533,-2.71757 0.003,-3.29444 0.10072,-9.33072 -0.34513,-12.59207 -0.68163,-4.98715 -0.58974,-7.48109 -2.12787,-12.49524 -1.69714,-5.53217 -4.15748,-10.83027 -6.82665,-15.91866 -1.32077,-2.51785 -2.29584,-4.88787 -4.1866,-6.77865 z m -83.895406,34.75145 c -8.196636,3.31846 -13.386748,5.41971 -15.763642,6.37818 -0.455881,1.25598 -0.942652,2.49213 -1.370319,3.68368 -2.370525,6.60478 -7.238699,-3.45319 -9.616117,-6.15117 -4.31472,-4.89642 -2.275897,4.12827 -2.65665,6.73159 -0.704587,4.81748 -8.161364,-3.00225 -11.943382,-3.30075 -1.110051,-0.0876 -2.532917,-0.0737 -3.991899,0.10344 0.82876,13.53701 6.170638,28.30199 19.868122,41.85306 5.954219,5.89061 11.548252,10.41875 17.998532,13.56748 0.266318,-0.51845 0.527489,-1.0366 0.80557,-1.55488 0.45533,-0.84854 0.924896,-1.69575 1.407225,-2.53761 0.482362,-0.84186 0.977275,-1.67877 1.481058,-2.50622 0.503772,-0.82747 1.016803,-1.64551 1.536408,-2.45089 0.519595,-0.80538 1.046052,-1.59811 1.570536,-2.36689 0.369378,-0.54146 0.734066,-1.05247 1.09903,-1.56687 -4.436411,-0.9639 -13.653774,-2.67376 -10.44389,-8.89917 1.264337,-2.45214 0.218828,-10.55582 -2.268189,-5.87344 -2.68292,5.05137 -3.468629,-2.03837 -4.384031,-3.7981 -1.429388,-2.74772 -3.77281,-1.48538 -3.327495,-4.03617 0.681297,-3.90255 4.542285,1.847 5.24315,2.90116 2.758243,4.14869 1.058091,-10.48757 7.00196,-11.76252 6.00953,-1.28902 -3.161963,-5.64048 1.180225,-7.07761 5.812047,-1.9237 7.447845,-6.41067 6.626375,-11.06032 -0.01608,-0.0915 -0.03593,-0.18419 -0.05256,-0.27589 z m -4.737499,19.88012 c -0.795868,-0.0125 -1.26069,0.71176 -1.695129,1.26418 -0.730617,0.78938 -1.575648,1.59836 -1.763386,2.70557 -0.125359,0.73905 -0.184378,1.50346 -0.08393,2.24695 0.165009,1.22179 1.056075,2.18164 2.025467,2.87901 0.608485,0.43775 1.360745,0.65079 1.940591,1.11933 0.690478,0.55795 0.82933,1.4846 1.031649,2.29585 0.180497,0.72362 0.299203,1.60238 0.971664,2.02455 0.329351,0.20676 0.828798,0.43122 1.150699,0.18825 0.436702,-0.3296 0.530482,-0.92576 0.593349,-1.43122 0.09524,-0.76502 0.212598,-1.55042 0.08581,-2.31153 -0.237444,-1.42524 -1.125684,-2.62415 -1.641598,-3.94946 -0.464422,-1.19298 -0.07185,-2.48071 0.224228,-3.66707 0.192283,-0.77012 0.52037,-1.56933 0.349707,-2.37152 -0.12641,-0.59442 -0.756273,-0.87238 -1.305704,-0.93844 -0.624208,-0.075 -1.255944,-0.0443 -1.883356,-0.0545 z m 6.870018,2.34291 c -0.08981,7.2e-4 -0.172858,0.0208 -0.20947,0.10042 -0.101453,0.22112 -0.105001,0.47163 -0.114469,0.71054 -0.02041,0.51825 0.0078,1.03664 0.01253,1.55484 0.07184,0.54433 -0.121067,1.10429 0.03704,1.63885 0.0877,0.29671 0.319249,0.5967 0.63301,0.62101 0.16125,0.0127 0.269411,0.12876 0.413396,0.18456 0.244384,0.0946 0.500384,-0.0471 0.686574,-0.19838 0.434536,-0.3533 0.762756,-0.82267 1.015946,-1.31678 0.208,-0.40594 0.4005,-0.83761 0.43462,-1.29743 0.0143,-0.18519 -0.0284,-0.38189 -0.16891,-0.52045 -0.27639,-0.27242 -0.47629,-0.60562 -0.69763,-0.92091 -0.1632,-0.23242 -0.420856,-0.37882 -0.694836,-0.44662 -0.37439,-0.0927 -0.762094,-0.0842 -1.144222,-0.097 -0.06021,-0.002 -0.134096,-0.0143 -0.203948,-0.0125 z" />
      <path
         id="path398"
         style="fill:none;fill-opacity:1;stroke:#ffffff;stroke-width:1.78566;stroke-dasharray:none;stroke-opacity:1"
         d="m 118.86607,58.015246 c -46.388394,0 -83.994041,35.824014 -83.994041,80.015064 0,44.19104 37.605647,80.01508 83.994041,80.01508 0.36612,0 0.91985,-0.0242 1.5401,-0.0572 -0.84398,0.008 -1.69801,0.003 -2.57084,-0.0143 -0.9261,-0.0193 -1.87048,-0.0524 -2.83939,-0.0996 -0.9689,-0.0472 -1.96197,-0.10954 -2.97039,-0.18731 -1.00843,-0.0778 -2.03265,-0.17125 -3.06359,-0.28329 -1.03094,-0.11215 -2.06873,-0.24256 -3.10511,-0.39311 -0.51822,-0.0754 -1.03573,-0.15516 -1.5521,-0.24084 -0.51637,-0.0856 -1.03137,-0.1766 -1.5438,-0.27313 -0.5124,-0.0967 -1.02287,-0.19857 -1.52903,-0.30545 -0.50614,-0.10689 -1.00855,-0.21934 -1.505956,-0.33497 -0.994812,-0.23124 -1.969028,-0.47771 -2.914081,-0.73452 -0.945087,-0.25679 -1.860425,-0.52386 -2.736015,-0.79359 -0.8756,-0.2697 -1.711561,-0.54201 -2.497949,-0.81203 -0.786366,-0.26998 -1.523192,-0.53717 -2.222929,-0.80187 -0.699737,-0.26473 -1.362729,-0.52713 -2.000564,-0.78805 -0.637824,-0.26091 -1.250411,-0.52021 -1.851079,-0.77881 -0.600657,-0.25862 -1.189017,-0.51644 -1.777234,-0.77421 0.70344,-1.67535 1.406626,-3.35069 2.145414,-5.03094 0.369422,-0.84012 0.664977,-1.68148 1.056575,-2.5247 0.391574,-0.84317 0.657903,-1.63288 1.080568,-2.48038 0.161239,-0.32318 0.392097,-0.98021 0.558268,-1.30389 C 82.099528,195.88372 76.65963,191.62715 70.692979,185.72421 37.385683,152.7733 53.457246,112.63624 63.789742,100.46044 113.91164,41.396912 171.29593,91.32372 166.09433,92.54034 c -8.71537,2.03845 -64.42658,26.54824 -86.098058,34.78651 -1.628206,6.8001 -2.947299,16.83129 -2.947299,16.83129 0,0 56.914117,-22.92395 114.283987,-46.60812 C 176.74067,73.894237 149.75002,58.01523 118.86607,58.015246 Z m 1.5401,159.972934 c 0.0515,-4.4e-4 0.10555,9.2e-4 0.15678,8.9e-4 0.89387,-0.009 1.77427,-0.0302 2.64652,-0.0664 0.7872,-0.0325 8.57516,-0.76514 8.36679,-0.79358 -0.008,-9.3e-4 -9.2e-4,-0.003 -0.0323,-0.002 -1.87651,0.14268 -7.89347,0.68795 -11.13786,0.86095 z m 11.17017,-0.8591 c 0.47256,-0.0699 0.94561,-0.14197 1.41922,-0.21869 -0.47188,0.0763 -0.94471,0.14999 -1.41922,0.21869 z m 1.41922,-0.21869 c 0.17606,-0.0284 0.35208,-0.0574 0.52784,-0.0868 -0.17626,0.0306 -0.3519,0.0583 -0.52784,0.0868 z m 67.86222,-69.16886 c -3.72359,-0.15481 -14.35458,4.43483 -14.35458,4.43483 0,0 -5.6111,31.24558 -35.92706,45.49799 0.18444,0.39883 0.3784,0.79759 0.55366,1.19407 0.18751,0.42415 0.36816,0.84527 0.54167,1.26142 0.17356,0.41613 0.33968,0.82738 0.49552,1.23003 0.15589,0.40269 0.30163,0.79648 0.43924,1.18392 0.13766,0.38746 0.26671,0.76812 0.38849,1.14239 0.24358,0.74852 0.45846,1.47256 0.65331,2.1805 0.19489,0.70795 0.36959,1.40006 0.53521,2.0836 0.16571,0.6836 0.32213,1.35926 0.478,2.03472 -0.65914,0.30339 -1.31847,0.6064 -1.98487,0.90801 -0.66641,0.3016 -1.34004,0.60157 -2.02824,0.89785 -0.68822,0.29625 -1.39133,0.58925 -2.11592,0.87661 -0.72458,0.28738 -1.47052,0.56939 -2.24601,0.84434 -0.77548,0.27494 -1.5806,0.54261 -2.40566,0.80096 -0.82508,0.2584 -1.67,0.50733 -2.52748,0.74468 -0.85745,0.23739 -1.72672,0.46268 -2.59943,0.67454 -0.87269,0.21188 -1.74895,0.41055 -2.61973,0.59243 -0.8652,0.1807 -1.7251,0.3451 -2.5819,0.49461 35.76322,-6.00858 63.72426,-33.56647 68.56443,-68.09752 0.092,-0.65576 -0.39936,-0.94425 -1.25865,-0.97998 z" />
      <g
         id="path2354"
         transform="matrix(1.7856652,0,0,1.7856652,-56.920418,-0.411383)" />
      <path
         id="path107140"
         style="fill:url(#linearGradient107551);fill-opacity:1;stroke:none;stroke-width:1.78566;stroke-dasharray:none;stroke-opacity:0.564767"
         d="m 213.52369,97.71642 c -0.71088,1.33169 -1.42522,2.65463 -2.22478,4.00943 -1.67262,2.83412 -3.71665,5.80805 -5.48218,8.17759 -1.76552,2.36946 -3.25251,4.13524 -4.87867,5.94722 -1.62615,1.81201 -3.39109,3.67019 -5.52832,5.48217 -2.13713,1.81196 -4.64673,3.57782 -7.34152,5.52923 -2.6948,1.9514 -5.57473,4.088 -8.45532,6.31819 -2.88064,2.23012 -5.76184,4.55321 -10.12926,7.43382 -4.36733,2.88062 -10.22094,6.31926 -14.68123,8.68876 -4.46021,2.36955 -7.52706,3.67028 -10.96524,5.20351 -3.43816,1.53318 -7.24818,3.29888 -11.38327,5.15735 -0.19762,0.0887 -0.42462,0.1903 -0.62381,0.27959 0.0413,0.0224 0.0838,0.0427 0.12466,0.0655 0.16552,0.0925 0.32832,0.1889 0.48723,0.28882 0.15892,0.10002 0.3142,0.20435 0.46601,0.3119 0.15177,0.10744 0.30046,0.21866 0.44475,0.33403 0.14429,0.11536 0.28442,0.23463 0.42078,0.35805 0.13646,0.1234 0.26843,0.25122 0.3968,0.38296 0.1284,0.13177 0.25315,0.2674 0.37372,0.40787 0.12054,0.14052 0.23678,0.28501 0.34972,0.4346 0.11304,0.14964 0.22299,0.3041 0.32852,0.46325 0.10554,0.1591 0.20709,0.32365 0.30543,0.49274 0.0985,0.16911 0.1929,0.34287 0.28421,0.52229 0.0913,0.17942 0.17939,0.36441 0.26392,0.55457 0.0845,0.1902 0.16572,0.38555 0.2436,0.58691 0.078,0.20131 0.15214,0.40799 0.22332,0.61916 0.0711,0.21116 0.1393,0.42707 0.203,0.64503 0.0638,0.21797 0.1234,0.43804 0.17904,0.65978 0.0558,0.2217 0.10688,0.44472 0.15407,0.66715 0.0472,0.22243 0.0894,0.44429 0.12732,0.66439 0.0378,0.22009 0.0716,0.43861 0.0996,0.65332 0.0281,0.2147 0.0507,0.4258 0.0682,0.63209 0.0178,0.20629 0.0295,0.40775 0.0361,0.60258 0.008,0.19484 0.008,0.38338 0.003,0.56566 -0.003,0.18226 -0.0143,0.35816 -0.0276,0.52872 -0.0143,0.17055 -0.0333,0.33584 -0.0563,0.49553 -0.0228,0.15964 -0.0496,0.31358 -0.0804,0.46324 -0.0307,0.14965 -0.065,0.29506 -0.10245,0.43554 -0.0376,0.14055 -0.078,0.27667 -0.12089,0.4088 -0.0429,0.13214 -0.0887,0.26016 -0.13661,0.3848 -0.0477,0.12462 -0.0981,0.24559 -0.14945,0.36356 -0.008,0.0162 -0.0143,0.0298 -0.0212,0.0451 2.42746,-1.06889 4.73334,-2.15142 7.25847,-3.39948 4.04218,-1.99788 8.68848,-4.41416 12.59118,-6.45847 3.90279,-2.0443 7.06184,-3.71632 10.12832,-5.38896 3.06646,-1.67263 6.04064,-3.34595 9.06065,-5.20441 3.02001,-1.85846 6.08574,-3.90226 9.38456,-6.0395 3.29879,-2.13727 6.82977,-4.36789 10.36084,-6.96968 3.53107,-2.60185 7.06199,-5.57464 10.63951,-8.59468 3.57757,-3.02003 7.2017,-6.08671 10.59338,-9.38545 3.39169,-3.29877 6.55156,-6.82931 9.61801,-10.82501 1.7913,-2.33411 3.52873,-4.80953 5.11767,-7.17361 -6.49546,-0.58455 -12.70464,-2.94605 -17.94691,-6.8257 z m -177.84977,56.4771 c -1.775264,1.37684 -3.544343,2.77011 -5.341902,4.21521 -2.369563,1.90494 -4.599771,3.76409 -7.015832,5.99429 -2.416035,2.23022 -5.018144,4.83163 -7.248354,7.47995 -2.230189,2.64841 -4.088617,5.3429 -5.436029,7.71251 -1.3473931,2.36961 -2.1834221,4.41409 -2.6944834,6.31911 -0.5110413,1.90503 -0.6970895,3.67009 -0.1392789,5.48217 0.557773,1.81207 1.8584542,3.67068 3.4382483,5.15735 1.579775,1.48664 3.438081,2.60202 5.71469,3.43823 2.276645,0.83619 4.971507,1.39362 7.945047,1.76525 2.973558,0.37165 6.226257,0.55712 9.896713,0.46416 3.670445,-0.0929 7.759025,-0.46396 12.07994,-1.0215 4.320944,-0.55757 8.873568,-1.30077 13.752026,-2.27647 4.878467,-0.97571 10.082234,-2.18405 15.378851,-3.53145 5.296581,-1.34736 10.686214,-2.83419 15.378808,-4.36746 0.898807,-0.29368 1.752929,-0.59004 2.60682,-0.88676 0.237556,-0.36729 0.475809,-0.73282 0.715138,-1.09349 0.262049,-0.39485 0.524884,-0.78569 0.78712,-1.17007 0.262248,-0.38438 0.523941,-0.76278 0.784359,-1.13407 0.260408,-0.3713 0.519484,-0.73516 0.776043,-1.09072 0.256571,-0.35556 0.510614,-0.70277 0.761297,-1.03997 0.25066,-0.33718 0.497296,-0.66472 0.740052,-0.98089 0.242766,-0.31621 0.48143,-0.62097 0.714231,-0.91355 0.23281,-0.29255 0.46017,-0.5725 0.68098,-0.8388 0.220836,-0.26629 0.435346,-0.51859 0.642256,-0.75851 0.20691,-0.23989 0.40587,-0.4678 0.59702,-0.68377 0.38235,-0.43194 0.73149,-0.81839 1.03997,-1.16914 0.15427,-0.17536 0.29883,-0.34141 0.43187,-0.50015 0.13301,-0.15874 0.25448,-0.30949 0.36448,-0.45401 0.11,-0.14445 0.20829,-0.2825 0.29343,-0.41523 0.0424,-0.0664 0.0822,-0.13179 0.11805,-0.19563 0.0361,-0.064 0.0685,-0.12659 0.0979,-0.18824 0.0293,-0.0617 0.055,-0.12214 0.0777,-0.18179 0.0225,-0.0596 0.0418,-0.11841 0.0583,-0.17625 0.0162,-0.058 0.0298,-0.11482 0.0405,-0.1707 0.0112,-0.056 0.0185,-0.11103 0.0239,-0.16518 0.005,-0.0541 0.009,-0.1071 0.0111,-0.15964 7.6e-4,-0.0525 -9.3e-4,-0.10412 -0.006,-0.15499 -0.008,-0.10178 -0.0222,-0.20044 -0.0434,-0.29621 -0.0211,-0.0958 -0.048,-0.18921 -0.0793,-0.2796 -0.0312,-0.0903 -0.0666,-0.17822 -0.10433,-0.26391 -0.0756,-0.17123 -0.16017,-0.33318 -0.23807,-0.48906 -0.0781,-0.15591 -0.14927,-0.30557 -0.21595,-0.46232 -0.0333,-0.0785 -0.0657,-0.15804 -0.097,-0.24176 -0.0311,-0.0837 -0.0612,-0.17142 -0.0904,-0.26392 -0.0293,-0.0927 -0.0569,-0.1904 -0.0848,-0.29529 -0.0278,-0.1049 -0.0554,-0.21712 -0.0822,-0.33771 -0.0267,-0.12054 -0.0532,-0.24965 -0.0793,-0.38942 -0.0262,-0.13983 -0.0526,-0.28977 -0.0784,-0.45215 -0.005,-0.0361 -0.0112,-0.0789 -0.0162,-0.11625 -0.35594,0.15321 -0.72007,0.30594 -1.06487,0.45953 -5.110733,2.27662 -8.920908,3.67026 -12.823698,5.2035 -3.902824,1.53324 -7.898102,3.20579 -12.12607,4.78548 -4.227976,1.57969 -8.68855,3.06688 -13.102355,4.18196 -4.413824,1.1151 -8.780723,1.85796 -12.544115,2.46195 -3.763381,0.60401 -6.923154,1.06906 -9.896695,1.39431 -2.973511,0.32524 -5.761151,0.51124 -8.641728,0.23254 -2.880567,-0.27869 -5.854163,-0.078 -7.805711,-1.37863 -1.951529,-1.30074 -2.880282,-3.15857 -3.205691,-4.87776 -0.325402,-1.71909 -0.04665,-3.29913 0.55734,-4.97184 0.603988,-1.67274 1.533256,-3.43822 2.648351,-5.15738 1.115113,-1.71913 2.416265,-3.39127 3.670787,-4.69226 1.254532,-1.301 2.462129,-2.23029 3.76305,-3.2989 1.300911,-1.06861 2.695185,-2.27697 4.181996,-3.39209 0.575983,-0.43199 1.106666,-0.83003 1.732027,-1.24483 -0.237885,-0.7045 -0.419129,-1.39338 -0.641312,-2.09743 -0.620778,-1.97353 -1.091767,-3.96181 -1.556715,-6.03029 z" />
      <g
         id="g2299"
         style="fill:#ffffff"
         transform="matrix(1.7856652,0,0,1.7856652,-46.469077,-82.121875)">
        <path
           style="fill:#ffffff;fill-opacity:1;fill-rule:nonzero;stroke:none;stroke-width:0.42105"
           d="m 157.42999,102.91251 c -10.10026,0 -18.3206,-8.221986 -18.3206,-18.327186 0,-10.105188 8.22034,-18.325532 18.3206,-18.325532 10.10519,0 18.32389,8.220344 18.32389,18.325532 0,10.1052 -8.2187,18.327186 -18.32389,18.327186 m 24.39951,-18.940658 -0.004,-0.0691 -0.0526,-0.03127 c -1.03616,-0.628285 -2.39801,-0.983551 -3.72693,-1.011514 -0.0279,-0.175986 -0.19409,-1.421038 -0.21546,-1.600317 1.273,-0.358548 2.49011,-1.050985 3.34536,-1.934195 l 0.0444,-0.04105 -0.0131,-0.06743 c -0.0625,-0.473688 -0.24179,-1.134866 -0.40625,-1.534531 l -0.0279,-0.06087 -0.0641,-0.01648 c -1.16939,-0.333878 -2.56906,-0.325654 -3.85687,0 -0.0609,-0.164468 -0.53619,-1.312485 -0.60362,-1.473671 1.13157,-0.692437 2.12663,-1.669398 2.72366,-2.730252 l 0.0314,-0.05264 -0.023,-0.06576 c -0.17105,-0.407899 -0.51644,-0.999996 -0.79276,-1.373355 l -0.0361,-0.05097 h -0.0707 c -1.20394,-0.02625 -2.54769,0.342113 -3.73353,0.980268 -0.10354,-0.144739 -0.87499,-1.148018 -0.98024,-1.287828 0.92268,-0.95229 1.62827,-2.159519 1.93091,-3.340432 l 0.0181,-0.06576 -0.0461,-0.05097 c -0.27467,-0.363489 -0.75494,-0.850328 -1.11348,-1.133218 l -0.0509,-0.03783 -0.0675,0.01192 c -1.18256,0.299336 -2.38321,1.006573 -3.33879,1.925971 -0.14638,-0.111833 -1.14803,-0.896375 -1.29276,-1.013149 0.63816,-1.126642 1.01315,-2.429257 1.01315,-3.629909 0,-0.03294 -0.005,-0.161187 -0.005,-0.161187 l -0.0525,-0.03951 c -0.3684,-0.289479 -0.95393,-0.625003 -1.37827,-0.797694 l -0.0575,-0.02136 -0.0544,0.02793 c -1.06251,0.590461 -2.03782,1.578941 -2.71875,2.712158 -0.17268,-0.06743 -1.38979,-0.578944 -1.55097,-0.649671 0.16118,-0.638145 0.25987,-1.294393 0.25987,-1.950642 0,-0.661177 -0.0788,-1.310851 -0.25987,-1.899653 l -0.0148,-0.06087 -0.0657,-0.02638 c -0.40132,-0.171058 -1.0444,-0.348677 -1.51972,-0.416112 l -0.0723,-0.01192 -0.041,0.04607 c -0.87829,0.850316 -1.56742,2.064123 -1.93255,3.338785 -0.18258,-0.03127 -1.44078,-0.187492 -1.63158,-0.207233 -0.0181,-1.320709 -0.37335,-2.67103 -1.00164,-3.722014 l -0.0314,-0.0592 -0.0657,-0.0012 c -0.45395,-0.05753 -1.14308,-0.05753 -1.58717,0 l -0.0723,0.0012 -0.0312,0.0592 c -0.62171,1.041114 -0.97369,2.389789 -0.99671,3.718732 -0.18257,0.02303 -1.46214,0.179268 -1.64801,0.210515 -0.36513,-1.28124 -1.05591,-2.499974 -1.93091,-3.347008 l -0.0493,-0.04929 -0.0723,0.01193 c -0.46875,0.06911 -1.12172,0.245067 -1.52301,0.409536 l -0.0609,0.02471 -0.0248,0.06255 c -0.16447,0.597025 -0.25328,1.254921 -0.25328,1.922675 0,0.644733 0.10189,1.305922 0.25328,1.93749 -0.15953,0.0691 -1.38815,0.598685 -1.55426,0.662825 -0.68915,-1.131571 -1.66446,-2.126626 -2.72367,-2.723665 l -0.0575,-0.03449 -0.0675,0.02304 c -0.40624,0.179268 -0.9967,0.519735 -1.36841,0.79933 l -0.0593,0.03449 v 0.175984 c 0,1.187488 0.36843,2.495045 1,3.62991 -0.13651,0.113504 -1.06248,0.835517 -1.20065,0.949009 -0.95065,-0.921045 -2.15624,-1.628281 -3.34373,-1.937488 l -0.0609,-0.01194 -0.0461,0.0444 c -0.36513,0.271383 -0.85525,0.751647 -1.13485,1.116771 l -0.0412,0.05097 0.0148,0.06409 c 0.2977,1.179275 1.00658,2.386504 1.92434,3.347019 -0.10031,0.141444 -0.90625,1.190781 -1.01645,1.333873 -1.15295,-0.643084 -2.4934,-1.023018 -3.722,-1.006572 l -0.0625,0.0048 -0.0411,0.05264 c -0.26809,0.358548 -0.60855,0.935856 -0.79604,1.376638 l -0.0248,0.05753 0.0314,0.0592 c 0.58882,1.057562 1.58552,2.044393 2.72532,2.735182 -0.0625,0.162822 -0.52961,1.299333 -0.60033,1.465448 -1.30754,-0.325653 -2.70227,-0.328946 -3.86674,0.0096 l -0.0609,0.01648 -0.0248,0.05586 c -0.17107,0.407898 -0.34869,1.050982 -0.41611,1.536176 l -0.009,0.06576 0.0461,0.05097 c 0.84868,0.871705 2.06907,1.56413 3.34374,1.916101 -0.0279,0.180926 -0.19079,1.439143 -0.21548,1.611834 -1.32399,0.0247 -2.68582,0.374994 -3.72528,0.999997 l -0.0593,0.03294 -0.004,0.06743 c -0.0264,0.228619 -0.0428,0.509862 -0.0428,0.797693 0,0.284536 0.0164,0.564144 0.0428,0.791117 l 0.004,0.06576 0.0593,0.02959 c 1.03946,0.623355 2.38977,0.980256 3.72201,0.998349 0.0279,0.182563 0.20394,1.47532 0.22698,1.652952 -1.27796,0.374995 -2.48684,1.07236 -3.33552,1.944064 l -0.0461,0.05431 0.007,0.0592 c 0.0739,0.478605 0.24836,1.136501 0.41282,1.532883 l 0.0264,0.0592 0.0609,0.01969 c 1.17761,0.335524 2.57069,0.320725 3.8651,0 0.0674,0.162833 0.56742,1.307556 0.6365,1.472025 -1.13157,0.679271 -2.12498,1.661174 -2.72366,2.722028 l -0.0279,0.05753 0.0214,0.06087 c 0.17435,0.416111 0.52139,1.006572 0.79769,1.374991 l 0.0411,0.05264 0.0592,0.0012 c 1.21711,0.01648 2.5592,-0.3421 3.72695,-0.986832 0.11016,0.136505 0.89803,1.162819 1.00165,1.302616 -0.91613,0.937491 -1.62829,2.139785 -1.92926,3.338785 l -0.0164,0.0592 0.0378,0.0526 c 0.27961,0.35854 0.76481,0.8388 1.12172,1.12992 l 0.0526,0.0444 0.0625,-0.0214 c 1.18091,-0.29439 2.37828,-0.99669 3.34372,-1.92102 0.14639,0.1135 1.16611,0.89802 1.31579,1.00985 -0.62664,1.15296 -0.99342,2.46873 -0.99342,3.66445 v 0.13487 l 0.0609,0.0444 c 0.35361,0.27137 0.93255,0.60197 1.36675,0.7944 l 0.0593,0.023 0.0625,-0.0313 c 1.06414,-0.59375 2.04768,-1.58881 2.73682,-2.73682 0.15954,0.0657 1.2796,0.51973 1.44407,0.58552 -0.15954,0.63159 -0.25328,1.28453 -0.25328,1.92432 0,0.67434 0.0888,1.33223 0.25986,1.92434 l 0.0148,0.064 0.0657,0.023 c 0.40296,0.17268 1.05262,0.34868 1.52795,0.42597 l 0.0708,0.0102 0.0461,-0.0544 c 0.87993,-0.85691 1.56907,-2.074 1.91282,-3.3355 0.18585,0.0313 1.47367,0.21218 1.65459,0.23191 0.0246,1.33222 0.38158,2.68583 1.00657,3.71708 l 0.0279,0.0575 0.0707,0.009 c 0.45888,0.0575 1.13979,0.0575 1.58717,0 l 0.0657,-0.009 0.0314,-0.0575 c 0.62005,-1.03125 0.97366,-2.38815 1.00821,-3.72531 0.18092,-0.0246 1.38815,-0.19243 1.56741,-0.22368 0.35692,1.28289 1.04935,2.49012 1.93092,3.34537 l 0.0478,0.0444 0.0592,-0.004 c 0.48027,-0.0757 1.13321,-0.24506 1.53947,-0.41119 l 0.0575,-0.0279 0.0181,-0.0592 c 0.17269,-0.59704 0.25,-1.25165 0.25,-1.92269 0,-0.64968 -0.0922,-1.31414 -0.25,-1.95065 0.16775,-0.0625 1.33716,-0.57071 1.50163,-0.6431 0.68914,1.13815 1.66941,2.13322 2.72695,2.73025 l 0.0525,0.0247 0.0625,-0.023 c 0.41941,-0.1727 1.0148,-0.5148 1.37992,-0.79934 l 0.0525,-0.0329 c 0,0 0.003,-0.1398 0.003,-0.17763 0,-1.17268 -0.37007,-2.48024 -0.98683,-3.62661 0.13815,-0.11016 1.10524,-0.8602 1.2434,-0.97203 0.96545,0.91775 2.1694,1.62334 3.35031,1.92927 l 0.0625,0.0164 0.0493,-0.0444 c 0.35856,-0.2829 0.84868,-0.76809 1.12993,-1.11841 l 0.0444,-0.0575 -0.0214,-0.0575 c -0.2944,-1.17761 -0.9967,-2.383191 -1.91774,-3.347 0.10696,-0.141445 0.88814,-1.166112 0.9934,-1.312498 1.16776,0.644732 2.51315,1.01315 3.72038,0.986844 h 0.0675 l 0.0395,-0.04774 c 0.28946,-0.370065 0.62335,-0.947362 0.79604,-1.383214 l 0.0279,-0.05586 -0.033,-0.0592 c -0.57729,-1.037819 -1.56578,-2.027945 -2.69734,-2.740111 0.0641,-0.161185 0.52631,-1.29111 0.59703,-1.453943 1.28289,0.330595 2.67762,0.342102 3.85031,0 l 0.056,-0.01969 0.0264,-0.05753 c 0.17269,-0.412829 0.34705,-1.054279 0.42106,-1.529601 l 0.006,-0.06576 -0.0493,-0.05097 c -0.84868,-0.879929 -2.06083,-1.56413 -3.32564,-1.925971 0.0295,-0.175986 0.19902,-1.388156 0.21711,-1.565788 1.33881,-0.02303 2.70063,-0.379924 3.73682,-1.006561 l 0.0525,-0.03127 0.004,-0.07077 c 0.0314,-0.222045 0.041,-0.508228 0.041,-0.792764 0,-0.286184 -0.0102,-0.56578 -0.041,-0.787825"
           id="path4581" />
        <path
           style="fill:#ffffff;fill-opacity:1;fill-rule:nonzero;stroke:none;stroke-width:0.42105"
           d="m 170.25722,79.644575 c 0.18091,0.06087 0.25328,0.26315 0.31084,0.46217 0.95229,3.203928 0.95229,5.944039 0,9.172637 -0.0773,0.276314 -0.18915,0.429263 -0.33717,0.490122 -0.21217,0.06576 -0.44408,-0.08713 -0.64144,-0.231902 l -6.23515,-4.233524 c -0.24014,-0.159539 -0.38158,-0.378288 -0.38158,-0.61019 0,-0.230268 0.13651,-0.449018 0.38158,-0.613486 l 6.23515,-4.228594 c 0.28289,-0.202303 0.50329,-0.266444 0.66777,-0.207233 m -2.28618,14.121609 c -2.31085,2.432552 -4.67759,3.802613 -7.93416,4.582214 -0.27631,0.07077 -0.4671,0.04774 -0.58552,-0.05097 -0.17105,-0.143092 -0.14802,-0.429276 -0.13157,-0.674343 l 0.54111,-7.518039 c 0.0329,-0.292759 0.14966,-0.513156 0.35526,-0.636507 0.19901,-0.106944 0.45559,-0.09871 0.70723,0.02303 l 6.7845,3.284528 c 0.31742,0.156244 0.48683,0.310854 0.51808,0.478604 0.0329,0.18915 -0.1053,0.355265 -0.25493,0.511511 M 157.41848,89.02118 c -2.42927,0 -4.40458,-1.973664 -4.40458,-4.401286 0,-1.481894 0.74014,-2.856885 1.98024,-3.677602 0.40955,-0.27302 0.96218,-0.156246 1.23192,0.249996 0.26974,0.411182 0.15953,0.963809 -0.25165,1.233546 -0.74013,0.488486 -1.18091,1.307556 -1.18091,2.19406 0,1.44572 1.17926,2.624984 2.62498,2.624984 1.44901,0 2.62662,-1.179264 2.62662,-2.624984 0,-0.886504 -0.43913,-1.710503 -1.1842,-2.197343 -0.40789,-0.269737 -0.51973,-0.822364 -0.24671,-1.230263 0.26809,-0.407888 0.82237,-0.523016 1.23026,-0.253279 1.23682,0.820717 1.98025,2.19406 1.98025,3.680885 0,2.427622 -1.97697,4.401286 -4.40622,4.401286 m -1.93256,9.386457 c -0.15131,0.121704 -0.35691,0.0839 -0.56248,0.03127 -3.24013,-0.771377 -5.62005,-2.143074 -7.9358,-4.585495 -0.16777,-0.174339 -0.25001,-0.328937 -0.25001,-0.467099 0,-0.0247 0,-0.04106 0.006,-0.06744 0.0295,-0.213807 0.29275,-0.338806 0.51151,-0.444075 l 6.78286,-3.29109 c 0.2648,-0.123352 0.51972,-0.129927 0.71875,-0.01195 0.19735,0.115176 0.31907,0.333878 0.34209,0.620061 l 0.54771,7.531192 c 0.0214,0.355265 -0.0314,0.574016 -0.16121,0.684213 M 145.25691,89.58493 c -0.29275,0.202303 -0.50986,0.273031 -0.67762,0.215455 -0.1842,-0.06576 -0.24507,-0.268089 -0.30428,-0.468745 -0.95887,-3.198987 -0.95887,-5.942392 -0.0119,-9.169343 0.0823,-0.276312 0.19736,-0.429275 0.34539,-0.483545 0.2171,-0.07734 0.44407,0.08223 0.64801,0.222032 l 6.23188,4.238465 c 0.23519,0.156244 0.37171,0.373346 0.37171,0.61019 0,0.225326 -0.13652,0.444076 -0.36349,0.608544 z m 1.6102,-13.924247 h 0.004 c 2.31906,-2.435833 4.69568,-3.810824 7.93415,-4.587141 0.20067,-0.04607 0.41449,-0.08557 0.55593,0.04273 0.13817,0.106934 0.18585,0.328947 0.15953,0.689142 l -0.54605,7.511463 c -0.0181,0.289465 -0.13815,0.516439 -0.34045,0.628284 -0.19902,0.118398 -0.45559,0.111834 -0.71381,-0.0148 l -6.77616,-3.282877 c -0.22204,-0.10861 -0.48026,-0.225327 -0.52467,-0.449005 -0.0214,-0.15461 0.0525,-0.333878 0.24835,-0.537828 m 12.59037,-4.605236 c 0.15626,-0.126644 0.36184,-0.08557 0.56579,-0.0444 3.23848,0.784529 5.61674,2.152943 7.93746,4.592072 0.16446,0.174338 0.25328,0.335523 0.25328,0.480263 0,0.01314 -0.003,0.03617 -0.003,0.05753 -0.0493,0.222032 -0.29769,0.340454 -0.51974,0.447358 l -6.78284,3.28288 c -0.26644,0.126644 -0.51644,0.139797 -0.71217,0.01814 -0.20065,-0.115175 -0.324,-0.33717 -0.34702,-0.629931 L 159.304,71.747865 c -0.023,-0.360194 0.0263,-0.58059 0.1546,-0.692437 m -2.02795,-2.592078 c -8.88481,0 -16.11665,7.233502 -16.11665,16.121603 0,8.891381 7.23184,16.123247 16.11665,16.123247 8.88811,0 16.1216,-7.231866 16.1216,-16.123247 0,-8.888101 -7.23349,-16.121603 -16.1216,-16.121603"
           id="path4583" />
      </g>
    </g>
  </g>
</svg>
