<?xml version="1.0" encoding="UTF-8" standalone="no"?>
<!-- Created with Inkscape (http://www.inkscape.org/) -->

<svg
   width="1080"
   height="800"
   viewBox="0 0 285.75 211.66666"
   version="1.1"
   id="svg5"
   inkscape:version="1.2.1 (9c6d41e, 2022-07-14)"
   sodipodi:docname="rotaract.svg"
   inkscape:export-filename="2022-09-03_white.png"
   inkscape:export-xdpi="96"
   inkscape:export-ydpi="96"
   xmlns:inkscape="http://www.inkscape.org/namespaces/inkscape"
   xmlns:sodipodi="http://sodipodi.sourceforge.net/DTD/sodipodi-0.dtd"
   xmlns:xlink="http://www.w3.org/1999/xlink"
   xmlns="http://www.w3.org/2000/svg"
   xmlns:svg="http://www.w3.org/2000/svg">
  <sodipodi:namedview
     id="namedview7"
     pagecolor="#323232"
     bordercolor="#666666"
     borderopacity="1.0"
     inkscape:pageshadow="2"
     inkscape:pageopacity="0"
     inkscape:pagecheckerboard="0"
     inkscape:document-units="mm"
     showgrid="false"
     inkscape:zoom="0.40902664"
     inkscape:cx="738.33822"
     inkscape:cy="514.63641"
     inkscape:window-width="1309"
     inkscape:window-height="957"
     inkscape:window-x="0"
     inkscape:window-y="38"
     inkscape:window-maximized="0"
     inkscape:current-layer="layer1"
     inkscape:showpageshadow="2"
     inkscape:deskcolor="#d1d1d1" />
  <defs
     id="defs2">
    <linearGradient
       inkscape:collect="always"
       id="linearGradient107549">
      <stop
         style="stop-color:#ffffff;stop-opacity:1;"
         offset="0"
         id="stop107545" />
      <stop
         style="stop-color:#000000;stop-opacity:1;"
         offset="0.21362384"
         id="stop107553" />
      <stop
         style="stop-color:#000000;stop-opacity:1;"
         offset="0.44453377"
         id="stop107555" />
      <stop
         style="stop-color:#000000;stop-opacity:1;"
         offset="0.62098068"
         id="stop107557" />
      <stop
         style="stop-color:#ffffff;stop-opacity:1;"
         offset="1"
         id="stop107547" />
    </linearGradient>
    <inkscape:path-effect
       effect="bspline"
       id="path-effect107142"
       is_visible="true"
       lpeversion="1"
       weight="33.333333"
       steps="2"
       helper_size="0"
       apply_no_weight="true"
       apply_with_weight="true"
       only_selected="false" />
    <inkscape:path-effect
       effect="bspline"
       id="path-effect106922"
       is_visible="true"
       lpeversion="1"
       weight="33.333333"
       steps="2"
       helper_size="0"
       apply_no_weight="true"
       apply_with_weight="true"
       only_selected="false" />
    <inkscape:path-effect
       effect="bspline"
       id="path-effect106801"
       is_visible="true"
       lpeversion="1"
       weight="33.333333"
       steps="2"
       helper_size="0"
       apply_no_weight="true"
       apply_with_weight="true"
       only_selected="false" />
    <inkscape:path-effect
       effect="bspline"
       id="path-effect106797"
       is_visible="true"
       lpeversion="1"
       weight="33.333333"
       steps="2"
       helper_size="0"
       apply_no_weight="true"
       apply_with_weight="true"
       only_selected="false" />
    <inkscape:path-effect
       effect="bspline"
       id="path-effect105821"
       is_visible="true"
       lpeversion="1"
       weight="33.333333"
       steps="2"
       helper_size="0"
       apply_no_weight="true"
       apply_with_weight="true"
       only_selected="false" />
    <inkscape:path-effect
       effect="bspline"
       id="path-effect105817"
       is_visible="true"
       lpeversion="1"
       weight="33.333333"
       steps="2"
       helper_size="0"
       apply_no_weight="true"
       apply_with_weight="true"
       only_selected="false" />
    <inkscape:path-effect
       effect="simplify"
       id="path-effect105751"
       is_visible="true"
       lpeversion="1"
       steps="1"
       threshold="0.00522388"
       smooth_angles="360"
       helper_size="0"
       simplify_individual_paths="false"
       simplify_just_coalesce="false" />
    <inkscape:path-effect
       effect="simplify"
       id="path-effect105739"
       is_visible="true"
       lpeversion="1"
       steps="1"
       threshold="0.00522388"
       smooth_angles="360"
       helper_size="0"
       simplify_individual_paths="false"
       simplify_just_coalesce="false" />
    <inkscape:path-effect
       effect="simplify"
       id="path-effect105723"
       is_visible="true"
       lpeversion="1"
       steps="1"
       threshold="0.00522388"
       smooth_angles="360"
       helper_size="0"
       simplify_individual_paths="false"
       simplify_just_coalesce="false" />
    <inkscape:path-effect
       effect="simplify"
       id="path-effect2798"
       is_visible="true"
       lpeversion="1"
       steps="1"
       threshold="0.00645161"
       smooth_angles="360"
       helper_size="0"
       simplify_individual_paths="false"
       simplify_just_coalesce="false" />
    <inkscape:path-effect
       effect="bspline"
       id="path-effect107142-9"
       is_visible="true"
       lpeversion="1"
       weight="33.333333"
       steps="2"
       helper_size="0"
       apply_no_weight="true"
       apply_with_weight="true"
       only_selected="false" />
    <linearGradient
       inkscape:collect="always"
       xlink:href="#linearGradient107549"
       id="linearGradient1327"
       gradientUnits="userSpaceOnUse"
       x1="30.199848"
       y1="126.91733"
       x2="158.77122"
       y2="126.91733"
       spreadMethod="pad"
       gradientTransform="translate(2.8189528e-6)" />
    <mask
       maskUnits="userSpaceOnUse"
       id="mask1352">
      <path
         style="fill:url(#linearGradient1356);fill-opacity:1;stroke:none;stroke-width:1;stroke-dasharray:none;stroke-opacity:0.564767"
         d="m 50.321093,130.17381 c -0.988793,-0.39046 -2.081595,0.44216 -3.330529,1.40488 -1.248935,0.96272 -2.653938,2.0555 -3.980931,3.12229 -1.326994,1.0668 -2.575886,2.10754 -3.928909,3.35649 -1.353023,1.24894 -2.810063,2.70599 -4.05901,4.18912 -1.248947,1.48313 -2.289691,2.99221 -3.044258,4.31924 -0.754568,1.32702 -1.222904,2.47184 -1.509101,3.53868 -0.286197,1.06685 -0.390272,2.05556 -0.07792,3.07035 0.312355,1.01479 1.040875,2.05553 1.925586,2.88809 0.884712,0.83256 1.925457,1.45701 3.200406,1.92529 1.274949,0.46829 2.784029,0.78051 4.449257,0.98864 1.665228,0.20813 3.486529,0.31221 5.542043,0.26015 2.055513,-0.0521 4.345151,-0.26021 6.764943,-0.57245 2.419793,-0.31224 4.969617,-0.72854 7.701643,-1.27495 2.732026,-0.54642 5.646109,-1.2229 8.612311,-1.97746 2.966202,-0.75457 5.984361,-1.58716 8.612295,-2.4458 2.627934,-0.85865 4.865532,-1.74328 7.207284,-2.62794 2.341752,-0.88466 4.787498,-1.76929 7.493516,-2.75803 2.706018,-0.98874 5.672139,-2.08152 8.117937,-3.07026 2.4458,-0.98873 4.37118,-1.87336 6.63486,-2.9922 2.26368,-1.11883 4.86554,-2.4718 7.05116,-3.61665 2.18562,-1.14485 3.95489,-2.08152 5.67217,-3.01822 1.71727,-0.9367 3.38246,-1.87336 5.07371,-2.91414 1.69125,-1.04077 3.40847,-2.18559 5.25585,-3.38248 1.84738,-1.19689 3.8248,-2.44579 5.80225,-3.90286 1.97745,-1.45708 3.95486,-3.12227 5.95835,-4.81353 2.0035,-1.69126 4.03295,-3.40849 5.93234,-5.25584 1.8994,-1.84736 3.66866,-3.82478 5.38593,-6.06243 1.71727,-2.23764 3.38245,-4.73542 4.60536,-6.68686 1.2229,-1.951434 2.00346,-3.356436 0.72867,-4.735444 -1.27478,-1.379008 -4.60516,-2.731975 -6.843,-2.523836 -2.23784,0.20814 -3.38265,1.977403 -4.31935,3.616645 -0.9367,1.639241 -1.66523,3.148325 -2.60192,4.735475 -0.93669,1.58715 -2.08152,3.25235 -3.07024,4.57932 -0.98873,1.32697 -1.82132,2.31568 -2.73199,3.33042 -0.91067,1.01475 -1.89938,2.05549 -3.09625,3.07023 -1.19686,1.01473 -2.60186,2.00344 -4.11099,3.09625 -1.50913,1.09282 -3.12229,2.28968 -4.73549,3.53861 -1.61321,1.24893 -3.22636,2.54986 -5.67217,4.16306 -2.44581,1.61319 -5.72415,3.53857 -8.22198,4.86555 -2.49783,1.32698 -4.21506,2.0555 -6.1405,2.91414 -1.92544,0.85864 -4.05897,1.84735 -6.37469,2.88813 -2.31572,1.04077 -4.813505,2.13355 -7.857787,3.56462 -3.044283,1.43107 -6.634848,3.20034 -9.496953,4.47528 -2.862106,1.27494 -4.995632,2.0555 -7.181269,2.91414 -2.185637,0.85864 -4.423237,1.79532 -6.790988,2.67997 -2.36775,0.88466 -4.865535,1.71726 -7.337351,2.34173 -2.471815,0.62447 -4.917563,1.04077 -7.025127,1.37902 -2.107564,0.33825 -3.876827,0.59844 -5.542055,0.78058 -1.665227,0.18214 -3.226343,0.28622 -4.839513,0.13015 -1.613171,-0.15607 -3.278359,-0.57237 -4.371245,-1.3008 -1.092887,-0.72843 -1.613256,-1.76917 -1.795487,-2.73194 -0.18223,-0.96276 -0.02612,-1.8474 0.312129,-2.78416 0.338245,-0.93675 0.858619,-1.92546 1.483095,-2.8882 0.624477,-0.96275 1.352997,-1.89942 2.055554,-2.62799 0.702556,-0.72858 1.379045,-1.24895 2.107579,-1.84739 0.728535,-0.59844 1.509091,-1.27492 2.341735,-1.8994 0.832643,-0.62448 1.717274,-1.19689 2.862152,-1.82136 1.144878,-0.62447 2.549885,-1.30096 2.810099,-2.44563 0.260213,-1.14467 -0.624421,-2.75783 -1.613215,-3.14829 z"
         id="path1354"
         inkscape:original-d="m 50.425064,128.95077 c -1.092538,0.83288 -2.185342,1.66549 -3.27841,2.49784 -1.404797,1.09309 -2.8098,2.18587 -4.215098,3.27841 -1.248677,1.04105 -2.497571,2.08179 -3.746754,3.12229 -1.456835,1.45737 -2.913877,2.91441 -4.371213,4.37122 -1.040521,1.5094 -2.081265,3.01848 -3.122295,4.52733 -0.468087,1.14512 -0.936424,2.28994 -1.405033,3.43452 -0.103811,0.98901 -0.207888,1.97772 -0.312229,2.96618 0.728816,1.04105 1.457336,2.08179 2.185606,3.12229 1.041051,0.62474 2.081795,1.24919 3.122295,1.87338 1.509406,0.3125 3.018484,0.62473 4.527328,0.93669 1.821641,0.10434 3.642942,0.20842 5.464016,0.31223 2.289993,-0.20789 4.579631,-0.41604 6.869049,-0.62446 2.55019,-0.41605 5.100014,-0.83235 7.649623,-1.24892 2.914465,-0.67625 5.828549,-1.35273 8.742426,-2.02949 3.018542,-0.83236 6.036699,-1.66496 9.054653,-2.49783 2.237954,-0.88441 4.475554,-1.76904 6.712934,-2.65396 2.446113,-0.8844 4.89186,-1.76903 7.337394,-2.65395 2.966503,-1.09256 5.932625,-2.18534 8.898534,-3.27841 1.92572,-0.8844 3.8511,-1.76903 5.77625,-2.65395 2.60223,-1.35275 5.20409,-2.70572 7.80574,-4.05898 1.76959,-0.93644 3.53886,-1.87311 5.30789,-2.81007 1.66553,-0.93644 3.33072,-1.87311 4.99568,-2.81006 1.71756,-1.1446 3.43479,-2.28942 5.15178,-3.43453 1.97776,-1.24867 3.95517,-2.49757 5.93236,-3.74675 1.97776,-1.66499 3.95517,-3.33018 5.93236,-4.99567 2.0298,-1.71703 4.05925,-3.43426 6.08848,-5.15179 1.7696,-1.97722 3.53886,-3.95464 5.3079,-5.93236 1.66552,-2.49762 3.33071,-4.9954 4.99567,-7.4935 0.78085,-1.404802 1.56141,-2.809801 2.34172,-4.215101 -3.33025,-1.352751 -6.66063,-2.705722 -9.99134,-4.058981 -1.1446,1.7696 -2.28942,3.538861 -3.43452,5.307899 -0.72829,1.509401 -1.45681,3.018483 -2.18561,4.527323 -1.1446,1.66552 -2.28942,3.33072 -3.43453,4.99568 -0.83236,0.98901 -1.66496,1.97771 -2.49783,2.96618 -0.98848,1.04104 -1.97719,2.08179 -2.96618,3.12229 -1.4048,0.98901 -2.8098,1.97772 -4.2151,2.96618 -1.61295,1.19717 -3.22611,2.39402 -4.83956,3.59064 -1.61295,1.30124 -3.2261,2.60217 -4.83955,3.90287 -3.27821,1.92572 -6.55656,3.85109 -9.83523,5.77624 -1.71703,0.72882 -3.43426,1.45734 -5.15179,2.18561 -2.13334,0.98901 -4.26687,1.97772 -6.4007,2.96618 -2.49762,1.09309 -4.995406,2.18587 -7.493506,3.27841 -3.590447,1.7696 -7.181014,3.53886 -10.771918,5.3079 -2.133346,0.78085 -4.266872,1.56141 -6.400705,2.34172 -2.237425,0.93697 -4.475025,1.87364 -6.712932,2.81007 -2.497621,0.83289 -4.995407,1.66548 -7.493508,2.49783 -2.445583,0.41658 -4.89133,0.83288 -7.337393,1.24892 -1.769073,0.26046 -3.538336,0.52065 -5.307901,0.78057 -1.560915,0.10435 -3.122031,0.20842 -4.683443,0.31223 -1.664994,-0.41605 -3.330183,-0.83234 -4.995672,-1.24891 -0.520128,-1.04053 -1.0405,-2.08127 -1.561147,-3.1223 0.156382,-0.8844 0.312494,-1.76904 0.468344,-2.65395 0.520658,-0.98848 1.04103,-1.97719 1.561147,-2.96618 0.728816,-0.93644 1.457336,-1.87311 2.185607,-2.81007 0.676775,-0.52012 1.353259,-1.0405 2.029492,-1.56114 0.780854,-0.67625 1.561412,-1.35273 2.341721,-2.02949 0.884933,-0.57217 1.769565,-1.14458 2.653951,-1.71727 1.405326,-0.67624 2.81033,-1.35273 4.215098,-2.02949 -0.884404,-1.61295 -1.769036,-3.22611 -2.653951,-4.83956 z"
         inkscape:path-effect="#path-effect107142-9" />
    </mask>
    <linearGradient
       inkscape:collect="always"
       xlink:href="#linearGradient107549"
       id="linearGradient1356"
       gradientUnits="userSpaceOnUse"
       gradientTransform="translate(2.8189529e-6)"
       x1="30.199848"
       y1="126.91733"
       x2="158.77122"
       y2="126.91733"
       spreadMethod="pad" />
    <inkscape:path-effect
       effect="simplify"
       id="path-effect105723-1"
       is_visible="true"
       lpeversion="1"
       steps="1"
       threshold="0.00522388"
       smooth_angles="360"
       helper_size="0"
       simplify_individual_paths="false"
       simplify_just_coalesce="false" />
    <inkscape:path-effect
       effect="simplify"
       id="path-effect105739-1"
       is_visible="true"
       lpeversion="1"
       steps="1"
       threshold="0.00522388"
       smooth_angles="360"
       helper_size="0"
       simplify_individual_paths="false"
       simplify_just_coalesce="false" />
    <inkscape:path-effect
       effect="simplify"
       id="path-effect105751-0"
       is_visible="true"
       lpeversion="1"
       steps="1"
       threshold="0.00522388"
       smooth_angles="360"
       helper_size="0"
       simplify_individual_paths="false"
       simplify_just_coalesce="false" />
    <inkscape:path-effect
       effect="simplify"
       id="path-effect105723-1-0"
       is_visible="true"
       lpeversion="1"
       steps="1"
       threshold="0.00522388"
       smooth_angles="360"
       helper_size="0"
       simplify_individual_paths="false"
       simplify_just_coalesce="false" />
    <inkscape:path-effect
       effect="simplify"
       id="path-effect105739-1-0"
       is_visible="true"
       lpeversion="1"
       steps="1"
       threshold="0.00522388"
       smooth_angles="360"
       helper_size="0"
       simplify_individual_paths="false"
       simplify_just_coalesce="false" />
    <inkscape:path-effect
       effect="simplify"
       id="path-effect105751-0-9"
       is_visible="true"
       lpeversion="1"
       steps="1"
       threshold="0.00522388"
       smooth_angles="360"
       helper_size="0"
       simplify_individual_paths="false"
       simplify_just_coalesce="false" />
    <inkscape:path-effect
       effect="simplify"
       id="path-effect105723-6"
       is_visible="true"
       lpeversion="1"
       steps="1"
       threshold="0.00522388"
       smooth_angles="360"
       helper_size="0"
       simplify_individual_paths="false"
       simplify_just_coalesce="false" />
    <inkscape:path-effect
       effect="simplify"
       id="path-effect105723-3"
       is_visible="true"
       lpeversion="1"
       steps="1"
       threshold="0.00522388"
       smooth_angles="360"
       helper_size="0"
       simplify_individual_paths="false"
       simplify_just_coalesce="false" />
    <inkscape:path-effect
       effect="simplify"
       id="path-effect105739-8"
       is_visible="true"
       lpeversion="1"
       steps="1"
       threshold="0.00522388"
       smooth_angles="360"
       helper_size="0"
       simplify_individual_paths="false"
       simplify_just_coalesce="false" />
    <inkscape:path-effect
       effect="simplify"
       id="path-effect105751-4"
       is_visible="true"
       lpeversion="1"
       steps="1"
       threshold="0.00522388"
       smooth_angles="360"
       helper_size="0"
       simplify_individual_paths="false"
       simplify_just_coalesce="false" />
    <inkscape:path-effect
       effect="bspline"
       id="path-effect106797-7"
       is_visible="true"
       lpeversion="1"
       weight="33.333333"
       steps="2"
       helper_size="0"
       apply_no_weight="true"
       apply_with_weight="true"
       only_selected="false" />
    <inkscape:path-effect
       effect="bspline"
       id="path-effect106801-2"
       is_visible="true"
       lpeversion="1"
       weight="33.333333"
       steps="2"
       helper_size="0"
       apply_no_weight="true"
       apply_with_weight="true"
       only_selected="false" />
    <inkscape:path-effect
       effect="bspline"
       id="path-effect106797-5"
       is_visible="true"
       lpeversion="1"
       weight="33.333333"
       steps="2"
       helper_size="0"
       apply_no_weight="true"
       apply_with_weight="true"
       only_selected="false" />
    <inkscape:path-effect
       effect="bspline"
       id="path-effect106801-8"
       is_visible="true"
       lpeversion="1"
       weight="33.333333"
       steps="2"
       helper_size="0"
       apply_no_weight="true"
       apply_with_weight="true"
       only_selected="false" />
    <inkscape:path-effect
       effect="bspline"
       id="path-effect106797-58"
       is_visible="true"
       lpeversion="1"
       weight="33.333333"
       steps="2"
       helper_size="0"
       apply_no_weight="true"
       apply_with_weight="true"
       only_selected="false" />
    <inkscape:path-effect
       effect="bspline"
       id="path-effect106801-5"
       is_visible="true"
       lpeversion="1"
       weight="33.333333"
       steps="2"
       helper_size="0"
       apply_no_weight="true"
       apply_with_weight="true"
       only_selected="false" />
    <linearGradient
       inkscape:collect="always"
       xlink:href="#linearGradient2105"
       id="linearGradient107551"
       x1="30.199848"
       y1="126.91733"
       x2="158.77122"
       y2="126.91733"
       gradientUnits="userSpaceOnUse"
       spreadMethod="pad"
       gradientTransform="matrix(1.8109333,0,0,1.8109333,-49.148394,-97.755802)" />
    <linearGradient
       inkscape:collect="always"
       id="linearGradient2105">
      <stop
         style="stop-color:#ffffff;stop-opacity:0;"
         offset="0"
         id="stop2095" />
      <stop
         style="stop-color:#ffffff;stop-opacity:1;"
         offset="0.21362384"
         id="stop2097" />
      <stop
         style="stop-color:#ffffff;stop-opacity:1;"
         offset="0.61526543"
         id="stop2099" />
      <stop
         style="stop-color:#ffffff;stop-opacity:0;"
         offset="0.9082436"
         id="stop2101" />
      <stop
         style="stop-color:#ffffff;stop-opacity:0;"
         offset="1"
         id="stop2103" />
    </linearGradient>
    <inkscape:path-effect
       effect="bspline"
       id="path-effect106797-8"
       is_visible="true"
       lpeversion="1"
       weight="33.333333"
       steps="2"
       helper_size="0"
       apply_no_weight="true"
       apply_with_weight="true"
       only_selected="false" />
    <inkscape:path-effect
       effect="bspline"
       id="path-effect106801-3"
       is_visible="true"
       lpeversion="1"
       weight="33.333333"
       steps="2"
       helper_size="0"
       apply_no_weight="true"
       apply_with_weight="true"
       only_selected="false" />
  </defs>
  <g
     inkscape:label="Layer 1"
     inkscape:groupmode="layer"
     id="layer1">
    <g
       id="path2354"
       transform="matrix(1.6104838,0,0,1.6104838,-37.31963,-23.39604)" />
    <g
       id="g896"
       style="fill:none;stroke-width:0.8;stroke-dasharray:none;stroke:#ffffff"
       transform="matrix(1.8109333,0,0,1.8109333,-49.148394,-97.755803)">
      <path
         style="opacity:1;fill:none;fill-opacity:1;stroke:#ffffff;stroke-width:0.8;stroke-dasharray:none;stroke-opacity:1"
         d="m 72.881796,163.80198 c 0,0 0,-3e-5 0,-3e-5 0.787888,-1.87645 1.57572,-3.75277 2.522526,-5.65125 0.946805,-1.89848 2.052479,-3.81886 3.216387,-5.62292 1.163909,-1.80407 2.38597,-3.49167 3.375307,-4.6847 0.989337,-1.19302 1.745847,-1.89134 2.007805,-2.44403 0.261957,-0.55269 0.02918,-0.96004 -0.145425,-1.30921 -0.174611,-0.34917 -0.290998,-0.64014 -0.407438,-1.36759 -0.116439,-0.72746 -0.232827,-1.89133 -8.4e-5,-3.1717 0.232743,-1.28037 0.814676,-2.67701 1.542191,-3.60822 0.727514,-0.9312 1.600413,-1.39675 2.560692,-1.71681 0.96028,-0.32006 2.00776,-0.49464 2.910537,-0.32775 0.902776,0.1669 1.660415,0.67482 2.418369,1.18295 0.580519,-0.27535 1.16115,-0.55076 1.684285,-0.65929 0.523136,-0.10854 0.988675,-0.0503 1.687024,0.0661 0.69835,0.1164 1.629443,0.29098 2.473277,0.58202 0.843835,0.29103 1.600341,0.69838 2.211331,1.25131 0.611,0.55292 1.07654,1.25124 1.42564,2.15327 0.3491,0.90202 0.58187,2.00769 0.61091,2.88055 0.029,0.87286 -0.14554,1.51299 -0.37589,2.04154 -0.23034,0.52854 -0.51642,0.94554 -0.80254,1.36261 0.23763,0.21176 0.47554,0.42377 0.70588,0.65171 0.23034,0.22794 0.45341,0.47202 0.85594,0.85594 0.40253,0.38391 0.98446,0.90765 1.50819,1.46052 0.52373,0.55288 0.98928,1.13482 1.57121,1.97865 0.58193,0.84384 1.28025,1.94951 2.15316,3.54989 0.87291,1.60037 1.92039,3.69534 2.61868,5.49936 0.69829,1.80402 1.04738,3.31677 1.39655,4.82983"
         id="path106795"
         sodipodi:nodetypes="cccccccccccccccccccccccccccc"
         inkscape:original-d="m 72.881796,163.80198 v -3e-5 c 0,0 1.576041,-3.75264 2.363663,-5.62936 1.105982,-1.92019 2.211655,-3.84057 3.317084,-5.76125 1.222375,-1.68741 2.444432,-3.37502 3.666254,-5.06292 0.756807,-0.69809 1.513319,-1.39641 2.269583,-2.09501 -0.232518,-0.4071 -0.465291,-0.81445 -0.698333,-1.22208 -0.116126,-0.29071 -0.232513,-0.58168 -0.349166,-0.87292 -0.116128,-1.16364 -0.232513,-2.32751 -0.349168,-3.49166 0.582221,-1.39644 1.164154,-2.79308 1.745835,-4.19001 0.873199,-0.4653 1.746099,-0.93084 2.618751,-1.39666 1.047787,-0.17433 2.095267,-0.34891 3.142501,-0.52375 0.758231,0.5084 2.273863,1.52439 2.273863,1.52439 0,0 1.161302,-0.55044 1.741557,-0.82606 0.46583,0.0585 0.931375,0.11665 1.396666,0.17458 0.931397,0.17485 1.86249,0.34943 2.793336,0.52375 0.756809,0.40764 1.513318,0.81499 2.269588,1.22209 0.46583,0.69861 0.93137,1.39693 1.39666,2.095 0.23305,1.10598 0.46582,2.21165 0.69834,3.31708 -0.17432,0.64042 -0.3489,1.28055 -0.52375,1.92042 -0.28586,0.41734 -0.85836,1.2512 -0.85836,1.2512 0,0 0.47553,0.42379 0.71289,0.63528 0.22334,0.24436 0.44641,0.48844 0.66922,0.73227 0.58222,0.52403 1.16415,1.04777 1.74583,1.57125 0.46583,0.58222 0.93138,1.16416 1.39667,1.74584 0.69861,1.10598 1.39693,2.21165 2.095,3.31708 1.04779,2.09531 2.09527,4.19027 3.1425,6.28501 0.34943,1.51332 1.0475,4.53917 1.0475,4.53917"
         inkscape:path-effect="#path-effect106797-8" />
      <path
         style="opacity:1;fill:none;fill-opacity:0.435233;stroke:#ffffff;stroke-width:0.8;stroke-dasharray:none;stroke-opacity:1"
         d="m 92.994617,135.00761 c -0.458625,0.37657 -0.917274,0.75316 -1.402231,1.20964 -0.484957,0.45648 -0.996146,0.99278 -1.397253,1.84298 -0.401107,0.8502 -0.692073,2.01406 -0.717679,3.05993 -0.02561,1.04586 0.214013,1.97351 0.609914,2.82415 0.395901,0.85065 0.947907,1.6242 1.613326,2.19113 0.665418,0.56693 1.444073,0.92733 2.36194,1.02811 0.917867,0.10079 1.974963,-0.0579 2.658265,-0.0557 0.683303,0.002 0.992376,0.16468 1.301767,0.3274 -0.343405,-0.0166 -0.686531,-0.0332 -1.223867,-0.052 -0.537337,-0.0189 -1.268599,-0.04 -2.447093,0.0269 -1.178494,0.0669 -2.804151,0.22171 -4.142671,0.48797 -1.338521,0.26626 -2.389708,0.64393 -3.17725,1.03647 -0.787543,0.39254 -1.311282,0.79989 -1.706293,1.38898 -0.395012,0.58909 -0.661175,1.35968 -0.531311,2.01307 0.129865,0.65338 0.655419,1.18936 1.370486,1.53138 0.715067,0.34203 1.61953,0.49026 2.53733,0.59345 0.9178,0.1032 1.84889,0.16139 2.780003,0.19048 0.931113,0.0291 1.862205,0.0291 2.735141,0.0582 0.872935,0.0291 1.687639,0.0873 2.356872,0.11638 0.669232,0.0291 1.192972,0.0291 1.717477,0.40582 0.524506,0.37673 1.049787,1.12984 1.136948,1.8863 0.08716,0.75645 -0.263553,1.51635 -0.729847,2.12902 -0.466293,0.61266 -1.048227,1.07821 -2.061972,1.41251 -1.013746,0.33429 -2.459399,0.53732 -4.001548,0.53736 -1.542149,3e-5 -3.181007,-0.20304 -4.819604,-0.40608"
         id="path106799"
         sodipodi:nodetypes="cccccccscssccccccccccccccc"
         inkscape:original-d="m 92.994617,135.00761 c -0.458388,0.37686 -0.917039,0.75345 -1.375977,1.1298 -0.51094,0.53658 -1.022128,1.07288 -1.533588,1.60892 -0.290714,1.16418 -0.581681,2.32804 -0.872919,3.49167 0.239899,0.92797 0.479518,1.85562 0.718887,2.78306 0.5523,0.77386 1.104304,1.54742 1.656075,2.32075 0.778963,0.36068 1.557617,0.72108 2.33605,1.08123 1.0574,-0.15841 2.114496,-0.31707 3.171347,-0.476 0.309656,0.16299 0.928174,0.48816 0.928174,0.48816 0,0 -0.686545,-0.0329 -1.030215,-0.0498 -0.730997,-0.0208 -1.462259,-0.0419 -2.193786,-0.0633 -1.625425,0.15512 -3.251082,0.30997 -4.877068,0.46456 -1.050967,0.37796 -2.102156,0.75563 -3.153632,1.13305 -0.523496,0.40763 -1.047236,0.81498 -1.571252,1.22208 -0.265915,0.7709 -0.532077,1.54149 -0.798522,2.31186 0.525856,0.53629 1.051413,1.07227 1.57674,1.60803 0.904768,0.1485 1.809231,0.29673 2.713451,0.4447 0.931397,0.0585 1.86249,0.11665 2.793336,0.17458 0.931395,2.7e-4 1.862487,2.7e-4 2.793336,0 0.815002,0.0585 1.629709,0.11665 2.444168,0.17458 0.524023,2.7e-4 1.047763,2.7e-4 1.571249,0 0.52558,0.75342 1.050861,1.50653 1.575914,2.25943 -0.350465,0.7602 -0.70118,1.5201 -1.052163,2.27974 -0.581692,0.46583 -1.163624,0.93138 -1.745835,1.39667 -1.445472,0.20331 -2.891126,0.40634 -4.337128,0.60912 -1.638365,-0.20278 -4.915792,-0.60912 -4.915792,-0.60912"
         inkscape:path-effect="#path-effect106801-3" />
    </g>
    <path
       id="path105737"
       style="fill:#ffffff;fill-opacity:1;stroke:none;stroke-width:1.81093;stroke-dasharray:none;stroke-opacity:1"
       d="m 118.05654,58.217356 c -2.7382,0.02215 -5.54118,0.228143 -8.39253,0.637302 1.02287,3.510907 5.32008,7.404088 8.45149,8.426159 5.28314,1.724413 7.55428,7.423541 10.07421,11.830726 2.79735,4.892301 10.87344,3.414484 16.0691,5.788995 1.22198,0.558466 2.47262,0.995433 3.7405,1.35976 4.04194,-1.641045 7.61395,-3.057377 10.60571,-4.196247 -2.03084,-1.439934 -3.43211,-3.467783 -3.48034,-6.551708 -0.0309,-1.983636 0.55744,-4.070239 1.1127,-6.08193 -8.58521,-5.413053 -21.76052,-11.043555 -37.01106,-11.21119 -0.38846,-0.0034 -0.77863,-0.0056 -1.16978,-0.0022 z M 74.894386,75.146442 c -4.097552,3.444619 -8.184601,7.502219 -12.22467,12.263059 -4.794912,5.650304 -10.805674,17.239259 -12.682306,31.349239 5.289789,1.69368 12.048996,-0.20069 17.271586,-2.96097 3.553648,-1.87813 8.416804,-1.3562 11.312223,1.26524 0.174045,-0.82674 0.351283,-1.6424 0.534369,-2.40694 4.194998,-1.59471 9.657842,-3.79578 15.796715,-6.31964 0.02249,-0.0571 0.03868,-0.11428 0.06173,-0.17132 1.876362,-4.59028 6.778037,-9.969028 3.722723,-14.595135 C 95.518521,88.772893 96.04639,85.951362 94.683291,82.015328 92.471433,75.628466 84.841497,78.03598 79.579067,77.271625 77.802659,77.013616 76.294784,76.190935 74.894353,75.146374 Z M 180.58756,88.64105 c 0,0 -8.6539,4.085407 -12.22094,5.549439 0.38003,1.058819 0.44727,2.25064 0.0505,3.567378 -2.35697,7.822533 6.94604,-6.307464 10.17149,-1.26336 2.8232,4.415063 0.0658,10.237343 -2.3508,14.480953 -3.83198,6.72944 -9.03626,-3.02394 -12.87414,-4.94488 -4.45064,-2.22768 0.43707,10.61256 -3.98289,14.31904 -3.86387,3.24013 -2.41251,10.27411 -7.05986,13.11281 -4.9321,3.01259 -4.04344,8.49617 -3.24262,13.22321 0.78779,4.65029 0.54973,9.83661 3.11347,13.93913 2.23043,3.56913 3.42511,-1.35973 3.84343,-3.8762 0.66708,-4.01234 1.03395,-12.93486 7.07298,-8.32136 3.46513,2.64717 7.28637,7.12001 6.55265,11.71186 -0.80983,5.06818 -8.68043,4.52307 -10.84622,8.61335 -2.02405,3.82264 -5.15681,9.31255 -7.76548,4.88125 -2.10473,-3.57538 0.55401,-6.3603 -2.22633,-8.59929 -4.61021,-3.7125 -4.1628,2.63152 -4.55747,5.34262 -0.16208,1.11395 -0.43368,2.03279 -0.79921,2.78129 0.0469,0.0674 0.0897,0.1235 0.13763,0.19278 0.26345,0.38202 0.54048,0.79389 0.83195,1.24184 0.29148,0.44793 0.59714,0.93196 0.91991,1.45894 0.32279,0.52699 0.66272,1.09711 1.02005,1.71631 0.35736,0.61919 0.7325,1.28749 1.12768,2.01201 0.3952,0.72454 0.80981,1.50479 1.22967,2.31898 0.41987,0.8142 0.84472,1.66261 1.25964,2.52205 0.22407,0.4642 0.43253,0.93165 0.64852,1.39907 30.78278,-14.4447 36.47848,-46.1624 36.47848,-46.1624 0,0 3.46011,-1.48977 7.14502,-2.75603 0.003,-3.34105 0.10211,-9.46274 -0.35001,-12.77026 -0.69127,-5.05771 -0.59808,-7.58694 -2.15798,-12.67204 -1.72115,-5.61046 -4.21631,-10.98353 -6.92326,-16.143914 -1.33945,-2.553481 -2.32833,-4.957037 -4.24583,-6.874576 z m -85.082578,35.24321 c -8.312621,3.36541 -13.576176,5.49638 -15.986704,6.46842 -0.462335,1.27376 -0.955998,2.5274 -1.389716,3.73581 -2.404062,6.69825 -7.341128,-3.50206 -9.752184,-6.23822 -4.375779,-4.9657 -2.308101,4.18669 -2.694242,6.82685 -0.714553,4.88565 -8.276852,-3.04473 -12.112393,-3.34746 -1.125758,-0.0888 -2.568751,-0.0748 -4.048379,0.10491 0.840482,13.72857 6.257954,28.70247 20.149262,42.44531 6.03848,5.97396 11.711667,10.56617 18.253222,13.75945 0.270085,-0.52578 0.534953,-1.05126 0.816969,-1.57688 0.461773,-0.86054 0.937984,-1.71975 1.427138,-2.57351 0.489187,-0.85377 0.991104,-1.70253 1.502016,-2.5417 0.510901,-0.83917 1.031191,-1.66878 1.558149,-2.48556 0.526947,-0.81678 1.060854,-1.62072 1.59276,-2.40038 0.374605,-0.54912 0.744453,-1.06737 1.114582,-1.58904 -4.499189,-0.97754 -13.846982,-2.71159 -10.591677,-9.02511 1.282228,-2.48683 0.221924,-10.70518 -2.300286,-5.95654 -2.72088,5.12284 -3.51771,-2.06723 -4.446068,-3.85185 -1.449616,-2.7866 -3.826196,-1.50639 -3.374577,-4.09328 0.690939,-3.95777 4.606564,1.87313 5.317338,2.94222 2.797276,4.20739 1.073066,-10.63598 7.101044,-11.92897 6.094569,-1.30727 -3.206705,-5.7203 1.196926,-7.17777 5.89429,-1.95092 7.553237,-6.50139 6.720143,-11.21682 -0.01631,-0.0928 -0.03643,-0.1868 -0.0533,-0.2798 z m -4.804537,20.16143 c -0.80713,-0.0127 -1.278528,0.72182 -1.719116,1.28206 -0.740955,0.80056 -1.597944,1.62098 -1.788339,2.74386 -0.127132,0.7495 -0.186987,1.52473 -0.08512,2.27874 0.167343,1.23908 1.07102,2.21251 2.054129,2.91975 0.617095,0.44394 1.38,0.66 1.96805,1.13517 0.70025,0.56585 0.841067,1.50561 1.046248,2.32834 0.183052,0.73385 0.303437,1.62506 0.985414,2.0532 0.334011,0.20968 0.840527,0.43732 1.166981,0.19091 0.442882,-0.33427 0.53799,-0.93886 0.601747,-1.45147 0.09659,-0.77585 0.215605,-1.57236 0.08703,-2.34424 -0.240804,-1.44541 -1.141613,-2.66128 -1.664827,-4.00535 -0.470993,-1.20985 -0.07287,-2.51582 0.227401,-3.71896 0.195005,-0.78102 0.527734,-1.59154 0.354656,-2.40508 -0.1282,-0.60282 -0.766975,-0.88472 -1.324181,-0.95172 -0.633041,-0.0761 -1.273716,-0.045 -1.910006,-0.0552 z m 6.967233,2.37605 c -0.09108,7.4e-4 -0.175304,0.021 -0.212434,0.10187 -0.102889,0.22426 -0.106487,0.47831 -0.11609,0.7206 -0.02069,0.52558 0.0079,1.0513 0.01271,1.57684 0.07287,0.55204 -0.122781,1.11992 0.03756,1.66204 0.08894,0.30091 0.323767,0.60515 0.641968,0.62981 0.163531,0.0128 0.273223,0.13058 0.419246,0.18716 0.247832,0.0959 0.50746,-0.0478 0.69628,-0.20119 0.440689,-0.3583 0.773554,-0.83431 1.030342,-1.33541 0.21094,-0.41168 0.40617,-0.84947 0.44077,-1.31578 0.0145,-0.18781 -0.0288,-0.38729 -0.1713,-0.52782 -0.28031,-0.27628 -0.483034,-0.61419 -0.707511,-0.93394 -0.16551,-0.23571 -0.426813,-0.38419 -0.70468,-0.45294 -0.379687,-0.094 -0.772867,-0.0854 -1.160403,-0.0984 -0.06106,-0.002 -0.135993,-0.0145 -0.206834,-0.0127 z" />
    <path
       id="path398"
       style="fill:none;fill-opacity:1;stroke:#ffffff;stroke-width:1.81093;stroke-dasharray:none;stroke-opacity:1"
       d="m 118.52639,44.364156 c -47.044767,0 -85.182788,36.33141 -85.182788,81.147744 0,32.49779 20.279812,60.60284 49.241532,73.55993 1.081803,-2.43498 1.970029,-4.94804 3.249491,-7.40937 0.183187,-0.3524 0.381913,-0.70578 0.571206,-1.05873 0.267218,-0.63353 0.501275,-1.25192 0.826302,-1.90363 0.16352,-0.32776 0.398038,-0.9943 0.566562,-1.32255 C 81.239767,184.1835 75.72287,179.86718 69.671784,173.88072 35.893215,140.46357 52.192194,99.758324 62.670896,87.410244 113.50199,27.511006 171.69799,78.144098 166.42279,79.377929 c -8.83869,2.067307 -65.3384,26.923911 -87.316527,35.278751 -1.651244,6.89631 -2.988515,17.06933 -2.988515,17.06933 0,0 57.719552,-23.24838 115.901192,-47.267668 -14.79878,-23.990514 -42.1716,-40.094197 -73.49255,-40.094186 z m 82.77769,90.995374 c -4.06559,0.13027 -14.18367,4.49816 -14.18367,4.49816 0,0 -5.43836,31.52014 -36.18326,45.97421 0.18704,0.40447 1.15889,3.18753 1.29844,3.58047 0.13961,0.39293 1.24727,3.78946 1.40161,4.32688 0.67497,1.79537 1.00539,3.43369 1.41965,5.02056 25.41963,-11.57006 44.02678,-34.78657 47.89809,-62.40547 0.0932,-0.66504 -0.4052,-0.958 -1.27665,-0.99424 -0.118,-0.004 -0.24307,-0.004 -0.37421,-5.7e-4 z"
       sodipodi:nodetypes="sscscccccscccsccccccssc" />
    <g
       id="g2299"
       style="fill:#ffffff"
       transform="matrix(1.8109333,0,0,1.8109333,-49.148394,-97.755803)">
      <path
         style="fill:#ffffff;fill-opacity:1;fill-rule:nonzero;stroke:none;stroke-width:0.42105"
         d="m 157.42999,102.91251 c -10.10026,0 -18.3206,-8.221986 -18.3206,-18.327186 0,-10.105188 8.22034,-18.325532 18.3206,-18.325532 10.10519,0 18.32389,8.220344 18.32389,18.325532 0,10.1052 -8.2187,18.327186 -18.32389,18.327186 m 24.39951,-18.940658 -0.004,-0.0691 -0.0526,-0.03127 c -1.03616,-0.628285 -2.39801,-0.983551 -3.72693,-1.011514 -0.0279,-0.175986 -0.19409,-1.421038 -0.21546,-1.600317 1.273,-0.358548 2.49011,-1.050985 3.34536,-1.934195 l 0.0444,-0.04105 -0.0131,-0.06743 c -0.0625,-0.473688 -0.24179,-1.134866 -0.40625,-1.534531 l -0.0279,-0.06087 -0.0641,-0.01648 c -1.16939,-0.333878 -2.56906,-0.325654 -3.85687,0 -0.0609,-0.164468 -0.53619,-1.312485 -0.60362,-1.473671 1.13157,-0.692437 2.12663,-1.669398 2.72366,-2.730252 l 0.0314,-0.05264 -0.023,-0.06576 c -0.17105,-0.407899 -0.51644,-0.999996 -0.79276,-1.373355 l -0.0361,-0.05097 h -0.0707 c -1.20394,-0.02625 -2.54769,0.342113 -3.73353,0.980268 -0.10354,-0.144739 -0.87499,-1.148018 -0.98024,-1.287828 0.92268,-0.95229 1.62827,-2.159519 1.93091,-3.340432 l 0.0181,-0.06576 -0.0461,-0.05097 c -0.27467,-0.363489 -0.75494,-0.850328 -1.11348,-1.133218 l -0.0509,-0.03783 -0.0675,0.01192 c -1.18256,0.299336 -2.38321,1.006573 -3.33879,1.925971 -0.14638,-0.111833 -1.14803,-0.896375 -1.29276,-1.013149 0.63816,-1.126642 1.01315,-2.429257 1.01315,-3.629909 0,-0.03294 -0.005,-0.161187 -0.005,-0.161187 l -0.0525,-0.03951 c -0.3684,-0.289479 -0.95393,-0.625003 -1.37827,-0.797694 l -0.0575,-0.02136 -0.0544,0.02793 c -1.06251,0.590461 -2.03782,1.578941 -2.71875,2.712158 -0.17268,-0.06743 -1.38979,-0.578944 -1.55097,-0.649671 0.16118,-0.638145 0.25987,-1.294393 0.25987,-1.950642 0,-0.661177 -0.0788,-1.310851 -0.25987,-1.899653 l -0.0148,-0.06087 -0.0657,-0.02638 c -0.40132,-0.171058 -1.0444,-0.348677 -1.51972,-0.416112 l -0.0723,-0.01192 -0.041,0.04607 c -0.87829,0.850316 -1.56742,2.064123 -1.93255,3.338785 -0.18258,-0.03127 -1.44078,-0.187492 -1.63158,-0.207233 -0.0181,-1.320709 -0.37335,-2.67103 -1.00164,-3.722014 l -0.0314,-0.0592 -0.0657,-0.0012 c -0.45395,-0.05753 -1.14308,-0.05753 -1.58717,0 l -0.0723,0.0012 -0.0312,0.0592 c -0.62171,1.041114 -0.97369,2.389789 -0.99671,3.718732 -0.18257,0.02303 -1.46214,0.179268 -1.64801,0.210515 -0.36513,-1.28124 -1.05591,-2.499974 -1.93091,-3.347008 l -0.0493,-0.04929 -0.0723,0.01193 c -0.46875,0.06911 -1.12172,0.245067 -1.52301,0.409536 l -0.0609,0.02471 -0.0248,0.06255 c -0.16447,0.597025 -0.25328,1.254921 -0.25328,1.922675 0,0.644733 0.10189,1.305922 0.25328,1.93749 -0.15953,0.0691 -1.38815,0.598685 -1.55426,0.662825 -0.68915,-1.131571 -1.66446,-2.126626 -2.72367,-2.723665 l -0.0575,-0.03449 -0.0675,0.02304 c -0.40624,0.179268 -0.9967,0.519735 -1.36841,0.79933 l -0.0593,0.03449 v 0.175984 c 0,1.187488 0.36843,2.495045 1,3.62991 -0.13651,0.113504 -1.06248,0.835517 -1.20065,0.949009 -0.95065,-0.921045 -2.15624,-1.628281 -3.34373,-1.937488 l -0.0609,-0.01194 -0.0461,0.0444 c -0.36513,0.271383 -0.85525,0.751647 -1.13485,1.116771 l -0.0412,0.05097 0.0148,0.06409 c 0.2977,1.179275 1.00658,2.386504 1.92434,3.347019 -0.10031,0.141444 -0.90625,1.190781 -1.01645,1.333873 -1.15295,-0.643084 -2.4934,-1.023018 -3.722,-1.006572 l -0.0625,0.0048 -0.0411,0.05264 c -0.26809,0.358548 -0.60855,0.935856 -0.79604,1.376638 l -0.0248,0.05753 0.0314,0.0592 c 0.58882,1.057562 1.58552,2.044393 2.72532,2.735182 -0.0625,0.162822 -0.52961,1.299333 -0.60033,1.465448 -1.30754,-0.325653 -2.70227,-0.328946 -3.86674,0.0096 l -0.0609,0.01648 -0.0248,0.05586 c -0.17107,0.407898 -0.34869,1.050982 -0.41611,1.536176 l -0.009,0.06576 0.0461,0.05097 c 0.84868,0.871705 2.06907,1.56413 3.34374,1.916101 -0.0279,0.180926 -0.19079,1.439143 -0.21548,1.611834 -1.32399,0.0247 -2.68582,0.374994 -3.72528,0.999997 l -0.0593,0.03294 -0.004,0.06743 c -0.0264,0.228619 -0.0428,0.509862 -0.0428,0.797693 0,0.284536 0.0164,0.564144 0.0428,0.791117 l 0.004,0.06576 0.0593,0.02959 c 1.03946,0.623355 2.38977,0.980256 3.72201,0.998349 0.0279,0.182563 0.20394,1.47532 0.22698,1.652952 -1.27796,0.374995 -2.48684,1.07236 -3.33552,1.944064 l -0.0461,0.05431 0.007,0.0592 c 0.0739,0.478605 0.24836,1.136501 0.41282,1.532883 l 0.0264,0.0592 0.0609,0.01969 c 1.17761,0.335524 2.57069,0.320725 3.8651,0 0.0674,0.162833 0.56742,1.307556 0.6365,1.472025 -1.13157,0.679271 -2.12498,1.661174 -2.72366,2.722028 l -0.0279,0.05753 0.0214,0.06087 c 0.17435,0.416111 0.52139,1.006572 0.79769,1.374991 l 0.0411,0.05264 0.0592,0.0012 c 1.21711,0.01648 2.5592,-0.3421 3.72695,-0.986832 0.11016,0.136505 0.89803,1.162819 1.00165,1.302616 -0.91613,0.937491 -1.62829,2.139785 -1.92926,3.338785 l -0.0164,0.0592 0.0378,0.0526 c 0.27961,0.35854 0.76481,0.8388 1.12172,1.12992 l 0.0526,0.0444 0.0625,-0.0214 c 1.18091,-0.29439 2.37828,-0.99669 3.34372,-1.92102 0.14639,0.1135 1.16611,0.89802 1.31579,1.00985 -0.62664,1.15296 -0.99342,2.46873 -0.99342,3.66445 v 0.13487 l 0.0609,0.0444 c 0.35361,0.27137 0.93255,0.60197 1.36675,0.7944 l 0.0593,0.023 0.0625,-0.0313 c 1.06414,-0.59375 2.04768,-1.58881 2.73682,-2.73682 0.15954,0.0657 1.2796,0.51973 1.44407,0.58552 -0.15954,0.63159 -0.25328,1.28453 -0.25328,1.92432 0,0.67434 0.0888,1.33223 0.25986,1.92434 l 0.0148,0.064 0.0657,0.023 c 0.40296,0.17268 1.05262,0.34868 1.52795,0.42597 l 0.0708,0.0102 0.0461,-0.0544 c 0.87993,-0.85691 1.56907,-2.074 1.91282,-3.3355 0.18585,0.0313 1.47367,0.21218 1.65459,0.23191 0.0246,1.33222 0.38158,2.68583 1.00657,3.71708 l 0.0279,0.0575 0.0707,0.009 c 0.45888,0.0575 1.13979,0.0575 1.58717,0 l 0.0657,-0.009 0.0314,-0.0575 c 0.62005,-1.03125 0.97366,-2.38815 1.00821,-3.72531 0.18092,-0.0246 1.38815,-0.19243 1.56741,-0.22368 0.35692,1.28289 1.04935,2.49012 1.93092,3.34537 l 0.0478,0.0444 0.0592,-0.004 c 0.48027,-0.0757 1.13321,-0.24506 1.53947,-0.41119 l 0.0575,-0.0279 0.0181,-0.0592 c 0.17269,-0.59704 0.25,-1.25165 0.25,-1.92269 0,-0.64968 -0.0922,-1.31414 -0.25,-1.95065 0.16775,-0.0625 1.33716,-0.57071 1.50163,-0.6431 0.68914,1.13815 1.66941,2.13322 2.72695,2.73025 l 0.0525,0.0247 0.0625,-0.023 c 0.41941,-0.1727 1.0148,-0.5148 1.37992,-0.79934 l 0.0525,-0.0329 c 0,0 0.003,-0.1398 0.003,-0.17763 0,-1.17268 -0.37007,-2.48024 -0.98683,-3.62661 0.13815,-0.11016 1.10524,-0.8602 1.2434,-0.97203 0.96545,0.91775 2.1694,1.62334 3.35031,1.92927 l 0.0625,0.0164 0.0493,-0.0444 c 0.35856,-0.2829 0.84868,-0.76809 1.12993,-1.11841 l 0.0444,-0.0575 -0.0214,-0.0575 c -0.2944,-1.17761 -0.9967,-2.383191 -1.91774,-3.347 0.10696,-0.141445 0.88814,-1.166112 0.9934,-1.312498 1.16776,0.644732 2.51315,1.01315 3.72038,0.986844 h 0.0675 l 0.0395,-0.04774 c 0.28946,-0.370065 0.62335,-0.947362 0.79604,-1.383214 l 0.0279,-0.05586 -0.033,-0.0592 c -0.57729,-1.037819 -1.56578,-2.027945 -2.69734,-2.740111 0.0641,-0.161185 0.52631,-1.29111 0.59703,-1.453943 1.28289,0.330595 2.67762,0.342102 3.85031,0 l 0.056,-0.01969 0.0264,-0.05753 c 0.17269,-0.412829 0.34705,-1.054279 0.42106,-1.529601 l 0.006,-0.06576 -0.0493,-0.05097 c -0.84868,-0.879929 -2.06083,-1.56413 -3.32564,-1.925971 0.0295,-0.175986 0.19902,-1.388156 0.21711,-1.565788 1.33881,-0.02303 2.70063,-0.379924 3.73682,-1.006561 l 0.0525,-0.03127 0.004,-0.07077 c 0.0314,-0.222045 0.041,-0.508228 0.041,-0.792764 0,-0.286184 -0.0102,-0.56578 -0.041,-0.787825"
         id="path4581" />
      <path
         style="fill:#ffffff;fill-opacity:1;fill-rule:nonzero;stroke:none;stroke-width:0.42105"
         d="m 170.25722,79.644575 c 0.18091,0.06087 0.25328,0.26315 0.31084,0.46217 0.95229,3.203928 0.95229,5.944039 0,9.172637 -0.0773,0.276314 -0.18915,0.429263 -0.33717,0.490122 -0.21217,0.06576 -0.44408,-0.08713 -0.64144,-0.231902 l -6.23515,-4.233524 c -0.24014,-0.159539 -0.38158,-0.378288 -0.38158,-0.61019 0,-0.230268 0.13651,-0.449018 0.38158,-0.613486 l 6.23515,-4.228594 c 0.28289,-0.202303 0.50329,-0.266444 0.66777,-0.207233 m -2.28618,14.121609 c -2.31085,2.432552 -4.67759,3.802613 -7.93416,4.582214 -0.27631,0.07077 -0.4671,0.04774 -0.58552,-0.05097 -0.17105,-0.143092 -0.14802,-0.429276 -0.13157,-0.674343 l 0.54111,-7.518039 c 0.0329,-0.292759 0.14966,-0.513156 0.35526,-0.636507 0.19901,-0.106944 0.45559,-0.09871 0.70723,0.02303 l 6.7845,3.284528 c 0.31742,0.156244 0.48683,0.310854 0.51808,0.478604 0.0329,0.18915 -0.1053,0.355265 -0.25493,0.511511 M 157.41848,89.02118 c -2.42927,0 -4.40458,-1.973664 -4.40458,-4.401286 0,-1.481894 0.74014,-2.856885 1.98024,-3.677602 0.40955,-0.27302 0.96218,-0.156246 1.23192,0.249996 0.26974,0.411182 0.15953,0.963809 -0.25165,1.233546 -0.74013,0.488486 -1.18091,1.307556 -1.18091,2.19406 0,1.44572 1.17926,2.624984 2.62498,2.624984 1.44901,0 2.62662,-1.179264 2.62662,-2.624984 0,-0.886504 -0.43913,-1.710503 -1.1842,-2.197343 -0.40789,-0.269737 -0.51973,-0.822364 -0.24671,-1.230263 0.26809,-0.407888 0.82237,-0.523016 1.23026,-0.253279 1.23682,0.820717 1.98025,2.19406 1.98025,3.680885 0,2.427622 -1.97697,4.401286 -4.40622,4.401286 m -1.93256,9.386457 c -0.15131,0.121704 -0.35691,0.0839 -0.56248,0.03127 -3.24013,-0.771377 -5.62005,-2.143074 -7.9358,-4.585495 -0.16777,-0.174339 -0.25001,-0.328937 -0.25001,-0.467099 0,-0.0247 0,-0.04106 0.006,-0.06744 0.0295,-0.213807 0.29275,-0.338806 0.51151,-0.444075 l 6.78286,-3.29109 c 0.2648,-0.123352 0.51972,-0.129927 0.71875,-0.01195 0.19735,0.115176 0.31907,0.333878 0.34209,0.620061 l 0.54771,7.531192 c 0.0214,0.355265 -0.0314,0.574016 -0.16121,0.684213 M 145.25691,89.58493 c -0.29275,0.202303 -0.50986,0.273031 -0.67762,0.215455 -0.1842,-0.06576 -0.24507,-0.268089 -0.30428,-0.468745 -0.95887,-3.198987 -0.95887,-5.942392 -0.0119,-9.169343 0.0823,-0.276312 0.19736,-0.429275 0.34539,-0.483545 0.2171,-0.07734 0.44407,0.08223 0.64801,0.222032 l 6.23188,4.238465 c 0.23519,0.156244 0.37171,0.373346 0.37171,0.61019 0,0.225326 -0.13652,0.444076 -0.36349,0.608544 z m 1.6102,-13.924247 h 0.004 c 2.31906,-2.435833 4.69568,-3.810824 7.93415,-4.587141 0.20067,-0.04607 0.41449,-0.08557 0.55593,0.04273 0.13817,0.106934 0.18585,0.328947 0.15953,0.689142 l -0.54605,7.511463 c -0.0181,0.289465 -0.13815,0.516439 -0.34045,0.628284 -0.19902,0.118398 -0.45559,0.111834 -0.71381,-0.0148 l -6.77616,-3.282877 c -0.22204,-0.10861 -0.48026,-0.225327 -0.52467,-0.449005 -0.0214,-0.15461 0.0525,-0.333878 0.24835,-0.537828 m 12.59037,-4.605236 c 0.15626,-0.126644 0.36184,-0.08557 0.56579,-0.0444 3.23848,0.784529 5.61674,2.152943 7.93746,4.592072 0.16446,0.174338 0.25328,0.335523 0.25328,0.480263 0,0.01314 -0.003,0.03617 -0.003,0.05753 -0.0493,0.222032 -0.29769,0.340454 -0.51974,0.447358 l -6.78284,3.28288 c -0.26644,0.126644 -0.51644,0.139797 -0.71217,0.01814 -0.20065,-0.115175 -0.324,-0.33717 -0.34702,-0.629931 L 159.304,71.747865 c -0.023,-0.360194 0.0263,-0.58059 0.1546,-0.692437 m -2.02795,-2.592078 c -8.88481,0 -16.11665,7.233502 -16.11665,16.121603 0,8.891381 7.23184,16.123247 16.11665,16.123247 8.88811,0 16.1216,-7.231866 16.1216,-16.123247 0,-8.888101 -7.23349,-16.121603 -16.1216,-16.121603"
         id="path4583" />
    </g>
    <path
       id="path107140"
       style="fill:url(#linearGradient107551);fill-opacity:1;stroke:none;stroke-width:1.81093;stroke-dasharray:none;stroke-opacity:0.564767"
       d="m 214.5234,84.627293 c -0.72094,1.350528 -1.44538,2.692195 -2.25626,4.066168 -1.69629,2.874223 -3.76924,5.890231 -5.55975,8.293303 -1.79051,2.402983 -3.29854,4.193746 -4.9477,6.031376 -1.64917,1.83766 -3.43909,3.72212 -5.60655,5.55975 -2.16738,1.8376 -4.71249,3.62845 -7.44541,5.60747 -2.73294,1.97902 -5.65363,4.14585 -8.57498,6.4076 -2.9214,2.26167 -5.84336,4.61763 -10.27258,7.539 -4.42913,2.92138 -10.36557,6.40869 -14.88898,8.81172 -4.52333,2.40308 -7.63357,3.72221 -11.12041,5.27713 -3.4868,1.55489 -7.35074,3.34557 -11.54434,5.23034 -0.20042,0.09 -0.43064,0.19299 -0.63263,0.28355 0.0418,0.0227 0.085,0.0433 0.12641,0.0663 0.16787,0.0938 0.33296,0.19156 0.49412,0.29291 0.16117,0.10143 0.31865,0.20723 0.4726,0.3163 0.15393,0.10896 0.30472,0.22177 0.45106,0.33877 0.14633,0.11699 0.28844,0.23795 0.42672,0.36311 0.13839,0.12515 0.27224,0.25477 0.40243,0.38838 0.13021,0.13365 0.25674,0.27118 0.379,0.41365 0.12225,0.1425 0.24014,0.28904 0.35468,0.44074 0.11464,0.15176 0.22614,0.30841 0.33315,0.46981 0.10705,0.16135 0.21003,0.32824 0.30976,0.49971 0.0999,0.1715 0.19563,0.34773 0.28823,0.52968 0.0925,0.18197 0.18193,0.36956 0.26766,0.56242 0.0857,0.19289 0.16806,0.39101 0.24705,0.59521 0.0791,0.20416 0.15428,0.41377 0.22647,0.62793 0.0721,0.21414 0.14127,0.43311 0.20588,0.65415 0.0647,0.22105 0.12514,0.44425 0.18157,0.66912 0.0566,0.22484 0.1084,0.45101 0.15626,0.67659 0.0479,0.22558 0.0907,0.45057 0.12912,0.67379 0.0383,0.22321 0.0726,0.44482 0.10098,0.66257 0.0284,0.21774 0.0514,0.43182 0.0692,0.64104 0.0181,0.2092 0.0299,0.41351 0.0366,0.6111 0.008,0.19759 0.008,0.3888 0.003,0.57367 -0.003,0.18484 -0.0145,0.36322 -0.028,0.5362 -0.0145,0.17296 -0.0339,0.34059 -0.0571,0.50254 -0.0231,0.16189 -0.0503,0.31801 -0.0815,0.46979 -0.0311,0.15177 -0.0659,0.29924 -0.1039,0.4417 -0.0381,0.14254 -0.079,0.28058 -0.1226,0.4146 -0.0435,0.134 -0.09,0.26383 -0.13854,0.39023 -0.0485,0.12639 -0.0995,0.24907 -0.15157,0.36871 -0.008,0.0164 -0.0145,0.0303 -0.0216,0.0458 2.46181,-1.08402 4.80032,-2.18186 7.36119,-3.44759 4.09937,-2.02614 8.81142,-4.47662 12.76935,-6.54985 3.95801,-2.07324 7.16176,-3.76892 10.27164,-5.46522 3.10985,-1.6963 6.12611,-3.3933 9.18885,-5.27806 3.06275,-1.88475 6.17187,-3.95748 9.51737,-6.12496 3.34547,-2.16751 6.92641,-4.4297 10.50744,-7.0683 3.58104,-2.63866 7.16192,-5.65352 10.79006,-8.7163 3.6282,-3.06277 7.30362,-6.17284 10.74329,-9.51827 3.43968,-3.34544 6.64427,-6.92594 9.75411,-10.978179 1.81665,-2.367146 3.57867,-4.877594 5.19008,-7.275123 C 226.13719,90.95656 219.84015,88.56164 214.52371,84.62709 Z M 34.156961,141.90357 c -1.800381,1.39633 -3.594488,2.80932 -5.417494,4.27486 -2.403084,1.9319 -4.664856,3.81735 -7.1151,6.07911 -2.450232,2.26178 -5.089162,4.9 -7.350922,7.58581 -2.26175,2.68587 -4.146478,5.41849 -5.5129507,7.82163 -1.3664616,2.40315 -2.2143198,4.47655 -2.7326196,6.40853 -0.5182661,1.93199 -0.7069514,3.72203 -0.1412441,5.55975 0.5656623,1.8377 1.8847502,3.72262 3.4868997,5.23033 1.6021267,1.50767 3.4867307,2.63884 5.7955507,3.48689 2.308865,0.84801 5.041856,1.41333 8.057481,1.79023 3.015636,0.3769 6.314356,0.56499 10.036753,0.47072 3.722385,-0.0942 7.868818,-0.47052 12.250882,-1.03596 4.382087,-0.56546 8.99913,-1.31918 13.946621,-2.30868 4.947501,-0.98952 10.224898,-2.21495 15.59647,-3.58142 5.371526,-1.36643 10.837428,-2.8743 15.596425,-4.42926 0.911525,-0.29783 1.777734,-0.59839 2.643708,-0.89932 0.240916,-0.37248 0.482542,-0.74318 0.725257,-1.10896 0.265757,-0.40043 0.532311,-0.79681 0.798258,-1.18662 0.265959,-0.38982 0.531355,-0.77358 0.795458,-1.15012 0.264092,-0.37656 0.526835,-0.74556 0.787025,-1.10616 0.260201,-0.36059 0.517839,-0.71271 0.772069,-1.05468 0.254208,-0.34196 0.504334,-0.67413 0.750525,-0.99478 0.246201,-0.32067 0.488243,-0.62976 0.724335,-0.92647 0.236104,-0.29669 0.466687,-0.5806 0.690624,-0.85067 0.22396,-0.27005 0.441511,-0.52592 0.651336,-0.76923 0.209852,-0.2433 0.411622,-0.47443 0.605482,-0.69346 0.38776,-0.43805 0.74184,-0.82997 1.05468,-1.18568 0.15646,-0.17784 0.30305,-0.34624 0.43798,-0.50723 0.1349,-0.16099 0.25809,-0.31387 0.36964,-0.46043 0.11155,-0.1465 0.21123,-0.2865 0.29758,-0.42111 0.043,-0.0674 0.0833,-0.13365 0.11972,-0.19839 0.0365,-0.0649 0.0695,-0.12839 0.0993,-0.19091 0.0297,-0.0625 0.0558,-0.12386 0.0787,-0.18436 0.0228,-0.0605 0.0424,-0.12008 0.0591,-0.17875 0.0164,-0.0588 0.0302,-0.11645 0.041,-0.17312 0.0113,-0.0568 0.0188,-0.11259 0.0242,-0.16751 0.006,-0.0549 0.009,-0.10862 0.0113,-0.1619 7.7e-4,-0.0532 -9.4e-4,-0.10559 -0.006,-0.15718 -0.008,-0.10322 -0.0225,-0.20328 -0.0441,-0.30041 -0.0214,-0.0971 -0.0487,-0.19188 -0.0804,-0.28355 -0.0317,-0.0916 -0.0675,-0.18074 -0.10582,-0.26764 -0.0767,-0.17366 -0.16244,-0.3379 -0.24143,-0.49599 -0.0792,-0.15811 -0.15139,-0.30989 -0.219,-0.46886 -0.0339,-0.0796 -0.0666,-0.16027 -0.0984,-0.24518 -0.0316,-0.0849 -0.0621,-0.17385 -0.0917,-0.26765 -0.0297,-0.094 -0.0577,-0.1931 -0.086,-0.29947 -0.0282,-0.10638 -0.0562,-0.22019 -0.0833,-0.34249 -0.0271,-0.12224 -0.054,-0.25319 -0.0804,-0.39494 -0.0265,-0.14179 -0.0533,-0.29386 -0.0795,-0.45854 -0.006,-0.0366 -0.0114,-0.0799 -0.0164,-0.11789 -0.36097,0.15538 -0.73026,0.31026 -1.07993,0.46602 -5.183057,2.30885 -9.047148,3.72221 -13.005165,5.27714 -3.95805,1.55494 -8.009859,3.25116 -12.297659,4.85319 -4.2878,1.60205 -8.811502,3.11029 -13.287763,4.24115 -4.476283,1.13088 -8.904979,1.88424 -12.721617,2.49679 -3.816638,0.61255 -7.021117,1.08418 -10.036742,1.41403 -3.01558,0.32984 -5.842677,0.51847 -8.764015,0.23584 -2.921328,-0.28264 -5.936998,-0.079 -7.916158,-1.39814 -1.979149,-1.31914 -2.921046,-3.20326 -3.251055,-4.94678 -0.330008,-1.74343 -0.04734,-3.34581 0.565224,-5.04221 0.612542,-1.6964 1.554956,-3.48686 2.685831,-5.23035 1.130886,-1.74346 2.450457,-3.43926 3.722722,-4.75865 1.272288,-1.31942 2.496977,-2.26186 3.816301,-3.34559 1.319324,-1.08373 2.733328,-2.30919 4.24118,-3.44009 0.584126,-0.4381 1.122318,-0.84178 1.756539,-1.26244 -0.241254,-0.71447 -0.425071,-1.4131 -0.650391,-2.12712 -0.629566,-2.00144 -1.107216,-4.01787 -1.57875,-6.11563 z" />
  </g>
</svg>
