<?xml version="1.0" encoding="UTF-8" standalone="no"?>
<!-- Created with Inkscape (http://www.inkscape.org/) -->

<svg
   width="1080"
   height="1080"
   viewBox="0 0 285.75 285.74999"
   version="1.1"
   id="svg5"
   inkscape:version="1.2.1 (9c6d41e, 2022-07-14)"
   sodipodi:docname="2022-09-03_e-rotaract2.svg"
   inkscape:export-filename="2022-09-03_white.png"
   inkscape:export-xdpi="96"
   inkscape:export-ydpi="96"
   xmlns:inkscape="http://www.inkscape.org/namespaces/inkscape"
   xmlns:sodipodi="http://sodipodi.sourceforge.net/DTD/sodipodi-0.dtd"
   xmlns:xlink="http://www.w3.org/1999/xlink"
   xmlns="http://www.w3.org/2000/svg"
   xmlns:svg="http://www.w3.org/2000/svg">
  <sodipodi:namedview
     id="namedview7"
     pagecolor="#ffffff"
     bordercolor="#666666"
     borderopacity="1.0"
     inkscape:pageshadow="2"
     inkscape:pageopacity="0"
     inkscape:pagecheckerboard="0"
     inkscape:document-units="mm"
     showgrid="false"
     inkscape:zoom="0.6306764"
     inkscape:cx="232.29028"
     inkscape:cy="578.74371"
     inkscape:window-width="1728"
     inkscape:window-height="988"
     inkscape:window-x="0"
     inkscape:window-y="38"
     inkscape:window-maximized="1"
     inkscape:current-layer="layer1"
     inkscape:showpageshadow="2"
     inkscape:deskcolor="#d1d1d1" />
  <defs
     id="defs2">
    <linearGradient
       inkscape:collect="always"
       id="linearGradient1063">
      <stop
         style="stop-color:#c10042;stop-opacity:0;"
         offset="0.06887154"
         id="stop1065" />
      <stop
         style="stop-color:#c10042;stop-opacity:1;"
         offset="0.42500597"
         id="stop1055" />
    </linearGradient>
    <linearGradient
       inkscape:collect="always"
       id="linearGradient2105">
      <stop
         style="stop-color:#c10042;stop-opacity:1;"
         offset="0.56648493"
         id="stop2099" />
      <stop
         style="stop-color:#c10042;stop-opacity:0;"
         offset="0.87306362"
         id="stop2101" />
    </linearGradient>
    <linearGradient
       inkscape:collect="always"
       id="linearGradient107549">
      <stop
         style="stop-color:#000000;stop-opacity:1;"
         offset="0.21362384"
         id="stop107553" />
      <stop
         style="stop-color:#000000;stop-opacity:1;"
         offset="0.44453377"
         id="stop107555" />
      <stop
         style="stop-color:#000000;stop-opacity:1;"
         offset="0.62098068"
         id="stop107557" />
    </linearGradient>
    <inkscape:path-effect
       effect="bspline"
       id="path-effect107142"
       is_visible="true"
       lpeversion="1"
       weight="33.333333"
       steps="2"
       helper_size="0"
       apply_no_weight="true"
       apply_with_weight="true"
       only_selected="false" />
    <inkscape:path-effect
       effect="bspline"
       id="path-effect106922"
       is_visible="true"
       lpeversion="1"
       weight="33.333333"
       steps="2"
       helper_size="0"
       apply_no_weight="true"
       apply_with_weight="true"
       only_selected="false" />
    <inkscape:path-effect
       effect="bspline"
       id="path-effect106801"
       is_visible="true"
       lpeversion="1"
       weight="33.333333"
       steps="2"
       helper_size="0"
       apply_no_weight="true"
       apply_with_weight="true"
       only_selected="false" />
    <inkscape:path-effect
       effect="bspline"
       id="path-effect106797"
       is_visible="true"
       lpeversion="1"
       weight="33.333333"
       steps="2"
       helper_size="0"
       apply_no_weight="true"
       apply_with_weight="true"
       only_selected="false" />
    <inkscape:path-effect
       effect="bspline"
       id="path-effect105821"
       is_visible="true"
       lpeversion="1"
       weight="33.333333"
       steps="2"
       helper_size="0"
       apply_no_weight="true"
       apply_with_weight="true"
       only_selected="false" />
    <inkscape:path-effect
       effect="bspline"
       id="path-effect105817"
       is_visible="true"
       lpeversion="1"
       weight="33.333333"
       steps="2"
       helper_size="0"
       apply_no_weight="true"
       apply_with_weight="true"
       only_selected="false" />
    <inkscape:path-effect
       effect="simplify"
       id="path-effect105751"
       is_visible="true"
       lpeversion="1"
       steps="1"
       threshold="0.00522388"
       smooth_angles="360"
       helper_size="0"
       simplify_individual_paths="false"
       simplify_just_coalesce="false" />
    <inkscape:path-effect
       effect="simplify"
       id="path-effect105739"
       is_visible="true"
       lpeversion="1"
       steps="1"
       threshold="0.00522388"
       smooth_angles="360"
       helper_size="0"
       simplify_individual_paths="false"
       simplify_just_coalesce="false" />
    <inkscape:path-effect
       effect="simplify"
       id="path-effect105723"
       is_visible="true"
       lpeversion="1"
       steps="1"
       threshold="0.00522388"
       smooth_angles="360"
       helper_size="0"
       simplify_individual_paths="false"
       simplify_just_coalesce="false" />
    <inkscape:path-effect
       effect="simplify"
       id="path-effect2798"
       is_visible="true"
       lpeversion="1"
       steps="1"
       threshold="0.00645161"
       smooth_angles="360"
       helper_size="0"
       simplify_individual_paths="false"
       simplify_just_coalesce="false" />
    <linearGradient
       inkscape:collect="always"
       xlink:href="#linearGradient2105"
       id="linearGradient107551"
       x1="83.931107"
       y1="181.44101"
       x2="140.12212"
       y2="90.99984"
       gradientUnits="userSpaceOnUse"
       spreadMethod="pad"
       gradientTransform="matrix(1.6104838,0,0,1.6104838,-15.709822,-55.216515)" />
    <inkscape:path-effect
       effect="bspline"
       id="path-effect107142-9"
       is_visible="true"
       lpeversion="1"
       weight="33.333333"
       steps="2"
       helper_size="0"
       apply_no_weight="true"
       apply_with_weight="true"
       only_selected="false" />
    <linearGradient
       inkscape:collect="always"
       xlink:href="#linearGradient107549"
       id="linearGradient1327"
       gradientUnits="userSpaceOnUse"
       x1="30.199848"
       y1="126.91733"
       x2="158.77122"
       y2="126.91733"
       spreadMethod="pad"
       gradientTransform="translate(2.8189528e-6)" />
    <mask
       maskUnits="userSpaceOnUse"
       id="mask1352">
      <path
         style="fill:url(#linearGradient1356);fill-opacity:1;stroke:none;stroke-width:1;stroke-dasharray:none;stroke-opacity:0.564767"
         d="m 50.321093,130.17381 c -0.988793,-0.39046 -2.081595,0.44216 -3.330529,1.40488 -1.248935,0.96272 -2.653938,2.0555 -3.980931,3.12229 -1.326994,1.0668 -2.575886,2.10754 -3.928909,3.35649 -1.353023,1.24894 -2.810063,2.70599 -4.05901,4.18912 -1.248947,1.48313 -2.289691,2.99221 -3.044258,4.31924 -0.754568,1.32702 -1.222904,2.47184 -1.509101,3.53868 -0.286197,1.06685 -0.390272,2.05556 -0.07792,3.07035 0.312355,1.01479 1.040875,2.05553 1.925586,2.88809 0.884712,0.83256 1.925457,1.45701 3.200406,1.92529 1.274949,0.46829 2.784029,0.78051 4.449257,0.98864 1.665228,0.20813 3.486529,0.31221 5.542043,0.26015 2.055513,-0.0521 4.345151,-0.26021 6.764943,-0.57245 2.419793,-0.31224 4.969617,-0.72854 7.701643,-1.27495 2.732026,-0.54642 5.646109,-1.2229 8.612311,-1.97746 2.966202,-0.75457 5.984361,-1.58716 8.612295,-2.4458 2.627934,-0.85865 4.865532,-1.74328 7.207284,-2.62794 2.341752,-0.88466 4.787498,-1.76929 7.493516,-2.75803 2.706018,-0.98874 5.672139,-2.08152 8.117937,-3.07026 2.4458,-0.98873 4.37118,-1.87336 6.63486,-2.9922 2.26368,-1.11883 4.86554,-2.4718 7.05116,-3.61665 2.18562,-1.14485 3.95489,-2.08152 5.67217,-3.01822 1.71727,-0.9367 3.38246,-1.87336 5.07371,-2.91414 1.69125,-1.04077 3.40847,-2.18559 5.25585,-3.38248 1.84738,-1.19689 3.8248,-2.44579 5.80225,-3.90286 1.97745,-1.45708 3.95486,-3.12227 5.95835,-4.81353 2.0035,-1.69126 4.03295,-3.40849 5.93234,-5.25584 1.8994,-1.84736 3.66866,-3.82478 5.38593,-6.06243 1.71727,-2.23764 3.38245,-4.73542 4.60536,-6.68686 1.2229,-1.951434 2.00346,-3.356436 0.72867,-4.735444 -1.27478,-1.379008 -4.60516,-2.731975 -6.843,-2.523836 -2.23784,0.20814 -3.38265,1.977403 -4.31935,3.616645 -0.9367,1.639241 -1.66523,3.148325 -2.60192,4.735475 -0.93669,1.58715 -2.08152,3.25235 -3.07024,4.57932 -0.98873,1.32697 -1.82132,2.31568 -2.73199,3.33042 -0.91067,1.01475 -1.89938,2.05549 -3.09625,3.07023 -1.19686,1.01473 -2.60186,2.00344 -4.11099,3.09625 -1.50913,1.09282 -3.12229,2.28968 -4.73549,3.53861 -1.61321,1.24893 -3.22636,2.54986 -5.67217,4.16306 -2.44581,1.61319 -5.72415,3.53857 -8.22198,4.86555 -2.49783,1.32698 -4.21506,2.0555 -6.1405,2.91414 -1.92544,0.85864 -4.05897,1.84735 -6.37469,2.88813 -2.31572,1.04077 -4.813505,2.13355 -7.857787,3.56462 -3.044283,1.43107 -6.634848,3.20034 -9.496953,4.47528 -2.862106,1.27494 -4.995632,2.0555 -7.181269,2.91414 -2.185637,0.85864 -4.423237,1.79532 -6.790988,2.67997 -2.36775,0.88466 -4.865535,1.71726 -7.337351,2.34173 -2.471815,0.62447 -4.917563,1.04077 -7.025127,1.37902 -2.107564,0.33825 -3.876827,0.59844 -5.542055,0.78058 -1.665227,0.18214 -3.226343,0.28622 -4.839513,0.13015 -1.613171,-0.15607 -3.278359,-0.57237 -4.371245,-1.3008 -1.092887,-0.72843 -1.613256,-1.76917 -1.795487,-2.73194 -0.18223,-0.96276 -0.02612,-1.8474 0.312129,-2.78416 0.338245,-0.93675 0.858619,-1.92546 1.483095,-2.8882 0.624477,-0.96275 1.352997,-1.89942 2.055554,-2.62799 0.702556,-0.72858 1.379045,-1.24895 2.107579,-1.84739 0.728535,-0.59844 1.509091,-1.27492 2.341735,-1.8994 0.832643,-0.62448 1.717274,-1.19689 2.862152,-1.82136 1.144878,-0.62447 2.549885,-1.30096 2.810099,-2.44563 0.260213,-1.14467 -0.624421,-2.75783 -1.613215,-3.14829 z"
         id="path1354"
         inkscape:original-d="m 50.425064,128.95077 c -1.092538,0.83288 -2.185342,1.66549 -3.27841,2.49784 -1.404797,1.09309 -2.8098,2.18587 -4.215098,3.27841 -1.248677,1.04105 -2.497571,2.08179 -3.746754,3.12229 -1.456835,1.45737 -2.913877,2.91441 -4.371213,4.37122 -1.040521,1.5094 -2.081265,3.01848 -3.122295,4.52733 -0.468087,1.14512 -0.936424,2.28994 -1.405033,3.43452 -0.103811,0.98901 -0.207888,1.97772 -0.312229,2.96618 0.728816,1.04105 1.457336,2.08179 2.185606,3.12229 1.041051,0.62474 2.081795,1.24919 3.122295,1.87338 1.509406,0.3125 3.018484,0.62473 4.527328,0.93669 1.821641,0.10434 3.642942,0.20842 5.464016,0.31223 2.289993,-0.20789 4.579631,-0.41604 6.869049,-0.62446 2.55019,-0.41605 5.100014,-0.83235 7.649623,-1.24892 2.914465,-0.67625 5.828549,-1.35273 8.742426,-2.02949 3.018542,-0.83236 6.036699,-1.66496 9.054653,-2.49783 2.237954,-0.88441 4.475554,-1.76904 6.712934,-2.65396 2.446113,-0.8844 4.89186,-1.76903 7.337394,-2.65395 2.966503,-1.09256 5.932625,-2.18534 8.898534,-3.27841 1.92572,-0.8844 3.8511,-1.76903 5.77625,-2.65395 2.60223,-1.35275 5.20409,-2.70572 7.80574,-4.05898 1.76959,-0.93644 3.53886,-1.87311 5.30789,-2.81007 1.66553,-0.93644 3.33072,-1.87311 4.99568,-2.81006 1.71756,-1.1446 3.43479,-2.28942 5.15178,-3.43453 1.97776,-1.24867 3.95517,-2.49757 5.93236,-3.74675 1.97776,-1.66499 3.95517,-3.33018 5.93236,-4.99567 2.0298,-1.71703 4.05925,-3.43426 6.08848,-5.15179 1.7696,-1.97722 3.53886,-3.95464 5.3079,-5.93236 1.66552,-2.49762 3.33071,-4.9954 4.99567,-7.4935 0.78085,-1.404802 1.56141,-2.809801 2.34172,-4.215101 -3.33025,-1.352751 -6.66063,-2.705722 -9.99134,-4.058981 -1.1446,1.7696 -2.28942,3.538861 -3.43452,5.307899 -0.72829,1.509401 -1.45681,3.018483 -2.18561,4.527323 -1.1446,1.66552 -2.28942,3.33072 -3.43453,4.99568 -0.83236,0.98901 -1.66496,1.97771 -2.49783,2.96618 -0.98848,1.04104 -1.97719,2.08179 -2.96618,3.12229 -1.4048,0.98901 -2.8098,1.97772 -4.2151,2.96618 -1.61295,1.19717 -3.22611,2.39402 -4.83956,3.59064 -1.61295,1.30124 -3.2261,2.60217 -4.83955,3.90287 -3.27821,1.92572 -6.55656,3.85109 -9.83523,5.77624 -1.71703,0.72882 -3.43426,1.45734 -5.15179,2.18561 -2.13334,0.98901 -4.26687,1.97772 -6.4007,2.96618 -2.49762,1.09309 -4.995406,2.18587 -7.493506,3.27841 -3.590447,1.7696 -7.181014,3.53886 -10.771918,5.3079 -2.133346,0.78085 -4.266872,1.56141 -6.400705,2.34172 -2.237425,0.93697 -4.475025,1.87364 -6.712932,2.81007 -2.497621,0.83289 -4.995407,1.66548 -7.493508,2.49783 -2.445583,0.41658 -4.89133,0.83288 -7.337393,1.24892 -1.769073,0.26046 -3.538336,0.52065 -5.307901,0.78057 -1.560915,0.10435 -3.122031,0.20842 -4.683443,0.31223 -1.664994,-0.41605 -3.330183,-0.83234 -4.995672,-1.24891 -0.520128,-1.04053 -1.0405,-2.08127 -1.561147,-3.1223 0.156382,-0.8844 0.312494,-1.76904 0.468344,-2.65395 0.520658,-0.98848 1.04103,-1.97719 1.561147,-2.96618 0.728816,-0.93644 1.457336,-1.87311 2.185607,-2.81007 0.676775,-0.52012 1.353259,-1.0405 2.029492,-1.56114 0.780854,-0.67625 1.561412,-1.35273 2.341721,-2.02949 0.884933,-0.57217 1.769565,-1.14458 2.653951,-1.71727 1.405326,-0.67624 2.81033,-1.35273 4.215098,-2.02949 -0.884404,-1.61295 -1.769036,-3.22611 -2.653951,-4.83956 z"
         inkscape:path-effect="#path-effect107142-9" />
    </mask>
    <linearGradient
       inkscape:collect="always"
       xlink:href="#linearGradient107549"
       id="linearGradient1356"
       gradientUnits="userSpaceOnUse"
       gradientTransform="translate(2.8189529e-6)"
       x1="30.199848"
       y1="126.91733"
       x2="158.77122"
       y2="126.91733"
       spreadMethod="pad" />
    <inkscape:path-effect
       effect="simplify"
       id="path-effect105723-1"
       is_visible="true"
       lpeversion="1"
       steps="1"
       threshold="0.00522388"
       smooth_angles="360"
       helper_size="0"
       simplify_individual_paths="false"
       simplify_just_coalesce="false" />
    <inkscape:path-effect
       effect="simplify"
       id="path-effect105739-1"
       is_visible="true"
       lpeversion="1"
       steps="1"
       threshold="0.00522388"
       smooth_angles="360"
       helper_size="0"
       simplify_individual_paths="false"
       simplify_just_coalesce="false" />
    <inkscape:path-effect
       effect="simplify"
       id="path-effect105751-0"
       is_visible="true"
       lpeversion="1"
       steps="1"
       threshold="0.00522388"
       smooth_angles="360"
       helper_size="0"
       simplify_individual_paths="false"
       simplify_just_coalesce="false" />
    <inkscape:path-effect
       effect="simplify"
       id="path-effect105723-1-0"
       is_visible="true"
       lpeversion="1"
       steps="1"
       threshold="0.00522388"
       smooth_angles="360"
       helper_size="0"
       simplify_individual_paths="false"
       simplify_just_coalesce="false" />
    <inkscape:path-effect
       effect="simplify"
       id="path-effect105739-1-0"
       is_visible="true"
       lpeversion="1"
       steps="1"
       threshold="0.00522388"
       smooth_angles="360"
       helper_size="0"
       simplify_individual_paths="false"
       simplify_just_coalesce="false" />
    <inkscape:path-effect
       effect="simplify"
       id="path-effect105751-0-9"
       is_visible="true"
       lpeversion="1"
       steps="1"
       threshold="0.00522388"
       smooth_angles="360"
       helper_size="0"
       simplify_individual_paths="false"
       simplify_just_coalesce="false" />
    <inkscape:path-effect
       effect="simplify"
       id="path-effect105723-6"
       is_visible="true"
       lpeversion="1"
       steps="1"
       threshold="0.00522388"
       smooth_angles="360"
       helper_size="0"
       simplify_individual_paths="false"
       simplify_just_coalesce="false" />
    <inkscape:path-effect
       effect="simplify"
       id="path-effect105723-3"
       is_visible="true"
       lpeversion="1"
       steps="1"
       threshold="0.00522388"
       smooth_angles="360"
       helper_size="0"
       simplify_individual_paths="false"
       simplify_just_coalesce="false" />
    <inkscape:path-effect
       effect="simplify"
       id="path-effect105739-8"
       is_visible="true"
       lpeversion="1"
       steps="1"
       threshold="0.00522388"
       smooth_angles="360"
       helper_size="0"
       simplify_individual_paths="false"
       simplify_just_coalesce="false" />
    <inkscape:path-effect
       effect="simplify"
       id="path-effect105751-4"
       is_visible="true"
       lpeversion="1"
       steps="1"
       threshold="0.00522388"
       smooth_angles="360"
       helper_size="0"
       simplify_individual_paths="false"
       simplify_just_coalesce="false" />
    <inkscape:path-effect
       effect="bspline"
       id="path-effect106797-7"
       is_visible="true"
       lpeversion="1"
       weight="33.333333"
       steps="2"
       helper_size="0"
       apply_no_weight="true"
       apply_with_weight="true"
       only_selected="false" />
    <inkscape:path-effect
       effect="bspline"
       id="path-effect106801-2"
       is_visible="true"
       lpeversion="1"
       weight="33.333333"
       steps="2"
       helper_size="0"
       apply_no_weight="true"
       apply_with_weight="true"
       only_selected="false" />
    <inkscape:path-effect
       effect="bspline"
       id="path-effect106797-5"
       is_visible="true"
       lpeversion="1"
       weight="33.333333"
       steps="2"
       helper_size="0"
       apply_no_weight="true"
       apply_with_weight="true"
       only_selected="false" />
    <inkscape:path-effect
       effect="bspline"
       id="path-effect106801-8"
       is_visible="true"
       lpeversion="1"
       weight="33.333333"
       steps="2"
       helper_size="0"
       apply_no_weight="true"
       apply_with_weight="true"
       only_selected="false" />
    <inkscape:path-effect
       effect="bspline"
       id="path-effect106797-58"
       is_visible="true"
       lpeversion="1"
       weight="33.333333"
       steps="2"
       helper_size="0"
       apply_no_weight="true"
       apply_with_weight="true"
       only_selected="false" />
    <inkscape:path-effect
       effect="bspline"
       id="path-effect106801-5"
       is_visible="true"
       lpeversion="1"
       weight="33.333333"
       steps="2"
       helper_size="0"
       apply_no_weight="true"
       apply_with_weight="true"
       only_selected="false" />
    <inkscape:path-effect
       effect="bspline"
       id="path-effect106797-79"
       is_visible="true"
       lpeversion="1"
       weight="33.333333"
       steps="2"
       helper_size="0"
       apply_no_weight="true"
       apply_with_weight="true"
       only_selected="false" />
    <inkscape:path-effect
       effect="bspline"
       id="path-effect106801-3"
       is_visible="true"
       lpeversion="1"
       weight="33.333333"
       steps="2"
       helper_size="0"
       apply_no_weight="true"
       apply_with_weight="true"
       only_selected="false" />
    <linearGradient
       inkscape:collect="always"
       xlink:href="#linearGradient1063"
       id="linearGradient1051"
       gradientUnits="userSpaceOnUse"
       gradientTransform="matrix(1.6104838,0,0,1.6104838,-15.709822,-55.216515)"
       x1="41.407406"
       y1="128.87865"
       x2="97.409836"
       y2="194.44287"
       spreadMethod="pad" />
  </defs>
  <g
     inkscape:label="Layer 1"
     inkscape:groupmode="layer"
     id="layer1">
    <path
       id="path2575"
       style="fill:url(#linearGradient1051);fill-opacity:1;stroke:none;stroke-width:1;stroke-dasharray:none;stroke-opacity:1"
       d="m 58.374731,157.91543 c -1.601101,1.24176 -3.196584,2.498 -4.817793,3.80131 -2.137096,1.71806 -4.148746,3.39498 -6.327779,5.40639 -2.179009,2.01142 -4.525654,4.35784 -6.537069,6.74636 -2.011396,2.38858 -3.687836,4.81851 -4.90306,6.95565 -1.215207,2.13715 -1.968902,3.98126 -2.429826,5.69939 -0.460905,1.71814 -0.62866,3.31009 -0.125574,4.9444 0.503053,1.63429 1.675779,3.31058 3.100586,4.6514 1.424792,1.34079 3.100947,2.34641 5.154208,3.10058 2.053295,0.75415 4.483633,1.25698 7.165454,1.59216 2.681836,0.33519 5.615705,0.50241 8.92607,0.41857 3.310356,-0.0838 6.997931,-0.41854 10.894942,-0.92139 3.897037,-0.50287 8.003005,-1.17312 12.402861,-2.0531 4.399864,-0.87999 9.092963,-1.96961 13.869954,-3.18482 4.776959,-1.21519 9.637725,-2.55593 13.869955,-3.93878 0.0512,-0.0167 0.0995,-0.0339 0.15038,-0.0506 0.14566,-0.23341 0.4161,-0.6709 0.71572,-1.156 0.37253,-0.60318 0.7074,-1.14955 0.87901,-1.40818 0.23969,-0.36116 0.48057,-0.71797 0.72089,-1.07022 0.24005,-0.35184 0.4801,-0.69886 0.71882,-1.03922 0.2389,-0.34063 0.47747,-0.67406 0.71262,-0.99994 0.23519,-0.32593 0.46845,-0.64461 0.69918,-0.95498 0.22967,-0.30894 0.45526,-0.61154 0.68006,-0.90433 0.22461,-0.29256 0.44494,-0.57372 0.65991,-0.84388 0.21594,-0.27135 0.42865,-0.53093 0.63458,-0.77928 0.20667,-0.24919 0.40652,-0.48501 0.5979,-0.70693 0.19036,-0.22071 0.37375,-0.43085 0.55087,-0.63097 0.35091,-0.39641 0.66698,-0.74544 0.93535,-1.05058 0.13587,-0.15443 0.25816,-0.29637 0.36535,-0.42427 0.10843,-0.1294 0.20385,-0.24811 0.28525,-0.35502 0.08,-0.10512 0.14477,-0.19641 0.19327,-0.27181 0.0274,-0.043 0.0501,-0.0796 0.0646,-0.10542 v -0.002 c 0.0159,-0.0283 0.0295,-0.0523 0.0408,-0.076 0.009,-0.0192 0.0157,-0.036 0.0217,-0.0512 0.004,-0.0108 0.007,-0.0207 0.01,-0.031 0.005,-0.0179 0.008,-0.028 0.008,-0.031 l 0.002,-0.008 0.002,-0.006 -0.002,-0.002 0.002,-0.004 v -0.002 c 0,-0.003 0.002,-0.009 0.002,-0.0134 v -0.004 c -1.3e-4,-0.002 1.4e-4,-0.002 0,-0.004 -0.002,-0.0221 -0.005,-0.0381 -0.008,-0.0506 l -0.002,-0.002 v -0.002 c -0.005,-0.0241 -0.0124,-0.0523 -0.0233,-0.0837 -0.0125,-0.0361 -0.0288,-0.0776 -0.0491,-0.12351 -0.0423,-0.0958 -0.10535,-0.21832 -0.18345,-0.37465 -0.0789,-0.15765 -0.15851,-0.32335 -0.23461,-0.5023 -0.0366,-0.0862 -0.0738,-0.17945 -0.11111,-0.27905 l -0.002,-0.002 c -0.0376,-0.10105 -0.072,-0.2047 -0.10542,-0.31057 -0.036,-0.11397 -0.0668,-0.22356 -0.0956,-0.33177 -0.03,-0.11327 -0.0611,-0.23545 -0.0899,-0.36535 -0.0277,-0.12511 -0.0535,-0.25791 -0.0801,-0.40049 -0.0103,-0.0552 -0.021,-0.11329 -0.0315,-0.17208 -4.37515,1.93123 -7.70703,3.15577 -11.1063,4.49119 -3.51994,1.38282 -7.123102,2.89131 -10.936284,4.31602 -3.813191,1.42472 -7.836062,2.76617 -11.81685,3.77186 -3.980805,1.0057 -7.919339,1.6758 -11.313521,2.22054 -3.394175,0.54475 -6.244249,0.96395 -8.926071,1.25729 -2.681794,0.29333 -5.195862,0.46115 -7.793839,0.2098 -2.597969,-0.25135 -5.279789,-0.0702 -7.039881,-1.24333 -1.760073,-1.17313 -2.59781,-2.84869 -2.891296,-4.39922 -0.293478,-1.55045 -0.04193,-2.97534 0.502812,-4.48396 0.544733,-1.50863 1.382786,-3.10142 2.388484,-4.65191 1.005715,-1.55048 2.179463,-3.05844 3.31091,-4.23179 1.131455,-1.17337 2.220297,-2.01123 3.393591,-2.97501 1.173285,-0.96377 2.430915,-2.05352 3.771863,-3.05924 0.519476,-0.38961 0.998169,-0.74883 1.562178,-1.12293 -0.214548,-0.63539 -0.377873,-1.2569 -0.578259,-1.89188 -0.559877,-1.7799 -0.984714,-3.57287 -1.404049,-5.43842 z"
       sodipodi:nodetypes="csscssssssssssscsssssssssscssscccccccccccscccccccccsccccsscsssssscsssssscccc"
       inkscape:label="path2575" />
    <path
       id="path107140"
       style="fill:url(#linearGradient107551);fill-opacity:1;stroke:none;stroke-width:1;stroke-dasharray:none;stroke-opacity:1"
       d="M 218.77683 106.97848 L 218.77631 106.979 C 218.13517 108.18004 217.49135 109.37291 216.77023 110.5948 C 215.2617 113.15088 213.41815 115.83298 211.82583 117.97006 C 210.23351 120.10706 208.8922 121.69986 207.42558 123.33407 C 205.95896 124.96832 204.36739 126.64426 202.43984 128.27847 C 200.51237 129.91267 198.24896 131.50528 195.81854 133.26525 C 193.38811 135.02521 190.79063 136.95221 188.19265 138.96361 C 185.59461 140.97494 182.99573 143.0701 179.05677 145.66811 C 175.1179 148.26613 159.02729 156.81477 155.9264 158.19758 C 153.13191 159.44374 150.06273 160.86041 146.75435 162.35495 C 146.81446 162.39572 146.87747 162.43513 146.93573 162.47639 L 146.9378 162.47845 C 147.09538 162.59005 147.2539 162.70826 147.40857 162.83192 C 147.56222 162.95476 147.71086 163.08138 147.85609 163.21278 L 147.85816 163.21278 C 148.00619 163.34668 148.14782 163.48595 148.28346 163.62515 C 148.4193 163.76456 148.55285 163.90957 148.68395 164.06234 C 148.81327 164.21308 148.93893 164.36824 149.05912 164.52743 L 149.05705 164.52743 C 149.17628 164.68526 149.29358 164.84847 149.4069 165.01938 C 149.52053 165.19066 149.6272 165.36449 149.72885 165.53925 C 149.83259 165.71744 149.93158 165.8984 150.02598 166.08392 C 150.12019 166.26918 150.21049 166.46127 150.29729 166.65649 C 150.38339 166.8503 150.46623 167.04737 150.54533 167.25181 C 150.62474 167.4569 150.69983 167.66431 150.77013 167.87296 C 150.84027 168.08134 150.90765 168.29645 150.97115 168.51375 C 151.03426 168.72952 151.09215 168.94619 151.14685 169.16435 C 151.2022 169.3842 151.25339 169.60257 151.29929 169.81858 L 151.29929 169.82064 C 151.34609 170.04109 151.38725 170.2607 151.42435 170.47642 C 151.46125 170.69111 151.49568 170.90687 151.52408 171.12496 C 151.55228 171.34047 151.5746 171.5521 151.5923 171.76006 L 151.5923 171.76213 C 151.6104 171.97189 151.6225 172.17628 151.6295 172.37346 L 151.6295 172.38328 C 151.6375 172.5909 151.63764 172.78851 151.63364 172.9729 L 151.63364 172.98117 C 151.62964 173.18399 151.61718 173.37087 151.60418 173.53773 L 151.60418 173.54186 L 151.60418 173.54548 C 151.58878 173.72953 151.56645 173.90837 151.54165 174.08085 L 151.54372 174.07878 C 151.51912 174.25197 151.4877 174.42177 151.4538 174.58676 L 151.4538 174.58883 C 151.43046 174.70239 151.40287 174.81227 151.37577 174.92266 C 152.90835 174.22288 154.43035 173.49768 156.05249 172.69592 C 159.69811 170.89405 163.88856 168.7147 167.40839 166.87095 C 170.92828 165.0272 173.77758 163.51932 176.54323 162.01078 C 179.30885 160.50224 181.9911 158.99315 184.71482 157.31701 C 187.43856 155.64088 190.20372 153.79737 193.17891 151.8698 C 196.15407 149.94221 199.33839 147.93042 202.52304 145.58388 C 205.7077 143.23729 208.89229 140.55617 212.11884 137.83241 C 215.34543 135.10866 218.61384 132.34294 221.67277 129.36781 C 224.73171 126.39268 227.58208 123.20828 230.3477 119.60459 C 231.96327 117.49946 233.52987 115.26684 234.96292 113.1347 C 229.10469 112.6075 223.50479 110.47752 218.77683 106.97848 z M 145.77508 162.7973 C 145.73654 162.81463 145.69897 162.83162 145.66036 162.84897 L 145.76423 163.07997 L 145.77508 162.7973 z " />
    <path
       id="path105737"
       style="fill:#c10042;fill-opacity:1;stroke:none;stroke-width:1.61048;stroke-dasharray:none;stroke-opacity:1"
       d="m 132.98723,83.492061 c -2.43511,0.01965 -4.92738,0.203018 -7.46311,0.566891 0.90965,3.122287 4.73102,6.584661 7.51582,7.493599 4.69836,1.533534 6.71816,6.601973 8.95914,10.521319 2.48772,4.35078 9.67005,3.03633 14.29061,5.14801 1.0867,0.49665 2.19887,0.88523 3.32641,1.20923 3.59452,-1.4594 6.77087,-2.71875 9.43146,-3.73156 -1.80605,-1.28055 -3.05201,-3.08395 -3.0949,-5.826515 -0.0275,-1.764074 0.49582,-3.619953 0.9896,-5.408973 -7.63491,-4.813886 -19.35181,-9.821367 -32.91427,-9.97045 -0.34544,-0.0032 -0.69291,-0.0048 -1.04076,-0.0016 z M 94.603011,98.547473 c -3.643993,3.063337 -7.278809,6.671927 -10.871688,10.905797 -4.264155,5.02486 -9.609472,15.33077 -11.278381,27.87892 4.704263,1.50619 10.715281,-0.17817 15.359786,-2.63292 3.160288,-1.67024 7.484921,-1.20628 10.059851,1.125 0.154777,-0.73523 0.312603,-1.46053 0.475423,-2.14044 3.730658,-1.4182 8.588888,-3.37583 14.048238,-5.62033 0.02,-0.0508 0.0343,-0.1012 0.0548,-0.15193 1.66867,-4.08217 6.02801,-8.86605 3.31091,-12.98008 -2.81755,-4.2661 -2.34829,-6.77499 -3.56051,-10.27535 -1.96703,-5.679897 -8.75232,-3.53911 -13.432255,-4.21886 -1.57978,-0.22945 -2.920736,-0.960867 -4.166154,-1.889807 z m 93.993749,12.000817 c 0,0 -7.69588,3.63312 -10.86807,4.9351 0.33797,0.94162 0.39776,2.00143 0.045,3.17242 -2.09608,6.95665 6.17701,-5.60921 9.04544,-1.12345 2.5107,3.92637 0.0588,9.10441 -2.09031,12.87828 -3.40782,5.98457 -8.03638,-2.68935 -11.44943,-4.39766 -3.958,-1.9811 0.38881,9.43789 -3.54191,12.73411 -3.43616,2.88146 -2.14523,9.13681 -6.27817,11.6613 -2.10997,1.2888 -3.0153,3.08832 -3.31452,5.07463 1.59183,-0.73646 3.29319,-1.56437 5.32009,-2.64119 3.99731,-2.12354 9.26882,-5.2211 13.17955,-7.80055 3.9108,-2.57944 6.48392,-4.65292 9.08989,-6.6704 2.60597,-2.01758 5.20902,-3.94922 7.64449,-5.71283 1.03483,-0.74936 2.02659,-1.4622 2.98122,-2.16214 -1.52296,-4.79992 -3.66446,-9.40576 -5.98724,-13.83378 -1.19117,-2.27084 -2.07022,-4.40855 -3.77548,-6.11384 z m -75.66464,31.34227 c -7.39249,2.9929 -12.07351,4.8882 -14.217215,5.75262 -0.411157,1.13277 -0.850392,2.24763 -1.2361,3.32228 -2.137963,5.95683 -6.52816,-3.11468 -8.672339,-5.54798 -3.891419,-4.41605 -2.052837,3.72355 -2.396237,6.07146 -0.635461,4.34486 -7.360456,-2.70787 -10.771435,-2.97707 -1.001148,-0.079 -2.284449,-0.0668 -3.600297,0.093 0.726848,11.87236 5.304677,24.7919 16.91628,36.73368 2.027747,-0.65059 4.037146,-1.35719 5.992399,-2.08773 2.940853,-1.09878 5.761094,-2.24956 8.525064,-3.35793 0.0977,-0.33043 0.23572,-0.67658 0.42323,-1.04025 1.1403,-2.21157 0.19767,-9.51984 -2.04536,-5.29684 -2.419702,4.5558 -3.12868,-1.83854 -3.954277,-3.42563 -1.289155,-2.47813 -3.402477,-1.33955 -3.00085,-3.64008 0.614457,-3.51969 4.096805,1.66562 4.72891,2.61637 2.487647,3.74168 0.954127,-9.45878 6.314857,-10.60865 5.41997,-1.16257 -2.85166,-5.08695 1.06454,-6.38307 5.24184,-1.73498 6.71726,-5.78162 5.97638,-9.97511 -0.0145,-0.0825 -0.0326,-0.16637 -0.0476,-0.24908 z m 87.821,5.87975 c -2.45895,1.70909 -4.88131,3.24905 -7.167,4.72994 -2.97003,1.92423 -5.73874,3.76894 -8.47856,5.45497 -2.73977,1.686 -5.43393,3.20335 -8.20518,4.71495 -1.00377,0.54752 -2.03238,1.10056 -3.0856,1.66347 2.84865,2.39628 5.66155,6.05133 5.06274,9.79888 -0.72019,4.50719 -7.71935,4.02247 -9.64541,7.66 -1.79999,3.39952 -4.58613,8.28163 -6.90603,4.34082 -1.87176,-3.17962 0.49286,-5.65645 -1.97973,-7.64759 -4.09989,-3.30157 -3.702,2.34012 -4.05298,4.75113 -0.14414,0.99065 -0.386,1.8081 -0.71107,2.47375 0.0417,0.0599 0.0799,0.10995 0.12247,0.17156 0.23429,0.33974 0.4808,0.70596 0.74001,1.10433 0.25922,0.39835 0.53099,0.82843 0.81804,1.29708 0.28706,0.46866 0.58914,0.97586 0.90692,1.52652 0.3178,0.55066 0.6516,1.14524 1.00304,1.78955 0.35145,0.64434 0.72008,1.33782 1.09347,2.06189 0.37339,0.72408 0.75136,1.47897 1.12035,2.24328 0.19927,0.41282 0.38462,0.82817 0.57671,1.24385 27.37542,-12.84582 32.44091,-41.05279 32.44091,-41.05279 0,0 3.0771,-1.32493 6.35414,-2.45101 0.002,-1.52955 0.0248,-3.71326 -0.007,-5.87458 z m -92.0936,12.04991 c -0.71779,-0.0113 -1.13729,0.64228 -1.52911,1.1405 -0.65894,0.71195 -1.42076,1.44157 -1.59008,2.44016 -0.11306,0.66654 -0.16653,1.35568 -0.076,2.02623 0.14882,1.10193 0.95248,1.96778 1.82677,2.59674 0.54877,0.3948 1.22732,0.58666 1.75028,1.00924 0.62274,0.50321 0.74822,1.33901 0.93069,2.07068 0.16279,0.65262 0.26942,1.44549 0.87591,1.82624 0.29704,0.18647 0.74786,0.38863 1.03818,0.1695 0.39386,-0.29727 0.47815,-0.83501 0.53485,-1.29088 0.0859,-0.68995 0.19188,-1.39818 0.0775,-2.08462 -0.21415,-1.28542 -1.01523,-2.36677 -1.48053,-3.56206 -0.41886,-1.07594 -0.065,-2.23732 0.20205,-3.30729 0.17342,-0.69457 0.46967,-1.4154 0.31575,-2.13889 -0.11401,-0.5361 -0.68218,-0.78687 -1.17771,-0.84646 -0.56297,-0.0677 -1.13274,-0.04 -1.6986,-0.0491 z m 6.19548,2.11305 c -0.0808,7.3e-4 -0.15567,0.0191 -0.18861,0.091 -0.0915,0.19943 -0.0948,0.42532 -0.10336,0.64079 -0.0184,0.46741 0.007,0.93461 0.0114,1.40198 0.0648,0.49093 -0.10901,0.99582 0.0336,1.47794 0.0791,0.2676 0.28805,0.53825 0.57103,0.56018 0.14543,0.0114 0.24272,0.11607 0.37258,0.16639 0.2204,0.0853 0.45117,-0.0424 0.61909,-0.1788 0.39191,-0.31864 0.68838,-0.74188 0.91674,-1.18752 0.18759,-0.36611 0.36093,-0.75525 0.3917,-1.16995 0.0129,-0.16702 -0.0257,-0.34477 -0.15244,-0.46974 -0.24928,-0.2457 -0.42927,-0.54608 -0.6289,-0.83044 -0.14719,-0.20962 -0.37973,-0.34142 -0.62684,-0.40256 -0.33766,-0.0836 -0.68734,-0.0761 -1.03198,-0.0879 -0.0542,-0.002 -0.1206,-0.0129 -0.18345,-0.0114 z m 52.40042,5.86321 c -1.73467,0.90785 -3.59757,1.87816 -5.48442,2.84788 0.33238,1.37798 0.81257,2.70326 1.57303,3.92018 1.98355,3.17407 3.04638,-1.20941 3.4184,-3.44734 0.15175,-0.91274 0.28728,-2.11107 0.49299,-3.32072 z m -56.92624,23.55205 c -0.48264,0.16575 -0.97014,0.33138 -1.47743,0.49712 -2.89607,0.94628 -6.07929,1.86975 -9.324492,2.74764 2.144742,1.52801 4.341742,2.86267 6.662642,3.99562 0.24019,-0.46758 0.47577,-0.93506 0.72657,-1.4025 0.41066,-0.76529 0.83416,-1.52949 1.26917,-2.28875 0.43504,-0.75925 0.88148,-1.51404 1.33584,-2.26032 0.26485,-0.43503 0.53766,-0.86014 0.8077,-1.28881 z"
       sodipodi:nodetypes="ccscsccccccccccccccsssccccscsssccccscsccccscssccscscssssccccssscsssscccsssssscccccccsssssscssccscssccccccsccsccssccssccccccssc" />
    <path
       style="color:#000000;fill:#c10042;-inkscape-stroke:none;fill-opacity:1"
       d="m 133.40625,70.367187 c -42.251941,0 -76.560547,32.658273 -76.560547,72.970703 0,17.08783 6.242574,32.82424 16.617188,45.27148 l 0.296875,0.35547 0.457031,-0.0762 c 2.825515,-0.47662 5.901132,-1.05352 9.005859,-1.83789 1.812656,-0.45794 3.638315,-1.04459 5.417969,-1.60937 l 1.226562,-0.39063 -0.886718,-0.93164 C 75.171309,169.58358 71.795525,153.74598 72.960937,140.15039 74.12635,126.5548 79.916738,115.1937 84.345703,109.97461 106.77748,83.54106 130.59784,81.597635 148.37305,86.273437 c 8.8876,2.337902 16.25238,6.363679 21.07422,9.851563 2.41091,1.743942 4.19017,3.361602 5.17773,4.51563 0.41803,0.48849 0.60505,0.82581 0.71875,1.05859 -2.22126,0.56568 -6.44016,2.13613 -12.34375,4.49609 -6.1296,2.45032 -13.75916,5.61997 -21.75391,8.96289 -15.98949,6.68585 -33.44461,14.07122 -43.18359,17.77344 l -0.398438,0.15039 -0.09961,0.41406 c -1.4873,6.21161 -2.671875,15.26368 -2.671875,15.26368 l -0.179687,1.36718 1.279296,-0.51562 c 0,0 51.332403,-20.67673 103.078123,-42.03906 l 0.875,-0.36133 -0.49609,-0.80469 C 186.14012,84.830675 161.53629,70.367172 133.40625,70.367187 Z m 0,1.611329 c 27.21994,-1.5e-5 50.98747,13.844265 64.11328,34.486324 -50.60244,20.88128 -99.56474,40.61293 -100.826171,41.1211 0.251735,-1.83653 1.141591,-8.08489 2.363282,-13.32227 9.857379,-3.76167 26.981709,-11.00242 42.810549,-17.62109 7.99242,-3.34195 15.61747,-6.5075 21.73047,-8.95117 6.113,-2.44368 10.78405,-4.17621 12.58593,-4.59766 0.33523,-0.0784 0.73258,-0.38029 0.85743,-0.75781 0.12485,-0.37753 0.0523,-0.69608 -0.0469,-0.97852 -0.19834,-0.56487 -0.58579,-1.10846 -1.14648,-1.76367 -1.1214,-1.310413 -2.96937,-2.973984 -5.45704,-4.773438 -4.97532,-3.598907 -12.49422,-7.705758 -21.60937,-10.103515 -18.2303,-4.795515 -42.8893,-2.618629 -65.662109,24.216793 -4.721393,5.56369 -10.564373,17.11196 -11.761719,31.08008 -1.171474,13.6663 2.252797,29.63378 15.625,44.24024 -1.393732,0.43997 -2.794124,0.8927 -4.154297,1.23632 -2.874636,0.72624 -5.718475,1.25354 -8.392578,1.71094 -9.973819,-12.12153 -15.978516,-27.32982 -15.978516,-43.86328 0,-39.39877 33.526433,-71.359374 74.949219,-71.359374 z m 73.58789,79.312504 c -2.07434,0.0665 -5.18585,1.09717 -7.91211,2.09179 -2.72625,0.99463 -4.99414,1.97461 -4.99414,1.97461 l -0.40039,0.17188 -0.0742,0.42968 c 0,0 -4.75964,27.61504 -31.72656,40.29297 l -0.72461,0.3418 0.33594,0.72461 c 0.0109,0.0236 0.3131,0.82492 0.56445,1.5293 0.25135,0.70437 0.49714,1.40385 0.5625,1.58789 0.0839,0.23608 1.12688,3.44009 1.23047,3.80078 l 0.01,0.0312 0.0117,0.0293 c 0.57394,1.52661 0.86013,2.94372 1.23633,4.38477 l 0.24219,0.92578 0.87109,-0.39648 c 22.84074,-10.39625 39.57517,-31.26757 43.0586,-56.11914 0.0711,-0.50719 -0.15986,-1.11837 -0.57032,-1.41602 -0.41046,-0.29765 -0.857,-0.36517 -1.32812,-0.38476 h -0.002 c -0.12658,-0.005 -0.25675,-0.004 -0.38868,0 z m 0.0508,1.60937 h 0.002 c 0.10051,-0.003 0.19268,-0.003 0.2754,0 0.23557,0.0103 0.30303,0.0467 0.3496,0.0625 -3.38726,23.91599 -19.3776,44.04235 -41.27539,54.33984 -0.27717,-1.12656 -0.52116,-2.26223 -1.01367,-3.57226 l 0.0215,0.0606 c -0.17094,-0.59519 -1.09729,-3.43174 -1.26172,-3.89454 -0.0587,-0.1654 -0.30897,-0.87935 -0.5625,-1.58984 -0.1437,-0.4027 -0.23732,-0.63492 -0.35156,-0.94336 26.42972,-12.84288 31.60638,-39.32526 31.85351,-40.66797 0.29121,-0.12482 2.06804,-0.89304 4.55078,-1.79883 2.67593,-0.97626 5.87038,-1.94619 7.41211,-1.99609 z m -106.4375,41.41211 -0.35156,0.0957 c -1.741937,0.47636 -3.547569,0.88442 -5.337891,1.33985 -3.374418,0.85841 -6.700713,1.64912 -9.921875,2.35351 l -1.66211,0.36328 1.333985,1.05469 c 4.996577,3.95202 10.515037,7.31758 16.445311,9.9707 l 0.73633,0.33008 0.32812,-0.73828 c 0.97914,-2.20386 1.76443,-4.41975 2.86915,-6.54492 0.15459,-0.2974 0.32847,-0.60816 0.50195,-0.93164 l 0.0195,-0.0332 0.0137,-0.0352 c 0.24513,-0.58115 0.44573,-1.11079 0.71289,-1.64649 0.20281,-0.4065 0.41378,-1.00002 0.5,-1.16796 l 0.375,-0.73047 -0.73828,-0.35938 c -1.94175,-0.94559 -3.74532,-1.941 -5.51758,-3.11914 z m -0.2539,1.73047 c 1.52322,0.99224 3.08559,1.84651 4.70312,2.6582 -0.0655,0.16449 -0.1681,0.40051 -0.20312,0.4707 -0.30464,0.61083 -0.51531,1.16951 -0.74024,1.70508 -0.15852,0.29458 -0.33082,0.60003 -0.49609,0.91797 -1.03231,1.98587 -1.75614,3.94952 -2.56446,5.84961 -4.986824,-2.29591 -9.640246,-5.13837 -13.949214,-8.38867 2.696719,-0.60808 5.421756,-1.23723 8.21289,-1.94727 1.654548,-0.42089 3.354258,-0.81487 5.037114,-1.26562 z"
       id="path398" />
    <g
       id="path2354"
       transform="matrix(1.6104838,0,0,1.6104838,-25.135842,18.477827)" />
    <g
       id="path371-6" />
    <g
       id="g896"
       style="fill:none;stroke-width:0.8"
       transform="matrix(1.6104838,0,0,1.6104838,-15.709823,-55.216516)">
      <path
         style="color:#000000;fill:#c10042;-inkscape-stroke:none;fill-opacity:1"
         d="m 90.537109,133.50391 c -1.006196,-0.18601 -2.10771,0.008 -3.109375,0.34179 -1.00168,0.33386 -1.966741,0.84706 -2.75,1.84961 -0.783261,1.00257 -1.376522,2.43776 -1.621093,3.78321 -0.244568,1.34542 -0.120388,2.55451 0,3.30664 0.120383,0.75208 0.260791,1.11929 0.443359,1.48437 0.09127,0.18253 0.173149,0.33946 0.205078,0.48438 0.03193,0.14491 0.03255,0.27407 -0.0625,0.47461 -0.190154,0.40119 -0.950743,1.14826 -1.955078,2.35937 -1.004334,1.21112 -2.230894,2.9069 -3.402344,4.72266 -1.171448,1.81574 -2.28405,3.74874 -3.238281,5.66211 -0.954231,1.91336 -1.745316,3.79738 -2.533203,5.67382 l -0.03125,0.0742 v 0.082 h 0.798828 l -0.03125,0.1543 c 0.787887,-1.87645 1.57234,-3.74336 2.511719,-5.62695 0.939377,-1.88359 2.038947,-3.79357 3.195312,-5.58594 1.156366,-1.79238 2.373319,-3.47154 3.347656,-4.64648 0.974337,-1.17494 1.726786,-1.82316 2.060547,-2.52735 0.166908,-0.35215 0.183716,-0.70406 0.121094,-0.98828 -0.06262,-0.28422 -0.186202,-0.50523 -0.269531,-0.67187 -0.166654,-0.33326 -0.258598,-0.54915 -0.371094,-1.25196 -0.11249,-0.70279 -0.222871,-1.81984 -0.002,-3.03515 0.220914,-1.2153 0.793076,-2.57374 1.464844,-3.4336 0.671768,-0.85984 1.452218,-1.27772 2.371093,-1.58398 0.918894,-0.30627 1.911582,-0.46223 2.710938,-0.31445 0.799459,0.14779 1.511578,0.61296 2.269531,1.12109 l 0.189453,0.12695 0.205078,-0.0977 c 0.580521,-0.27535 1.144764,-0.53576 1.59375,-0.62891 0.449047,-0.0932 0.847808,-0.0449 1.539063,0.0703 0.691245,0.11522 1.605452,0.28691 2.410156,0.56446 0.804737,0.27754 1.510604,0.66163 2.072264,1.16992 0.56171,0.50831 0.98934,1.14675 1.32031,2.00195 0.33099,0.85523 0.55889,1.93496 0.58594,2.74805 0.027,0.81313 -0.13109,1.38118 -0.34375,1.86914 -0.21266,0.48798 -0.4795,0.8798 -0.76562,1.29687 l -0.19922,0.28907 0.26367,0.23437 c 0.23763,0.21176 0.46885,0.42037 0.68945,0.63867 0.22064,0.21834 0.45094,0.46991 0.86133,0.86133 0.41038,0.3914 0.98541,0.90828 1.49414,1.44531 0.50875,0.53706 0.95908,1.09914 1.53321,1.93164 0.57412,0.83253 1.2638,1.92404 2.13085,3.51368 0.86706,1.58963 1.9084,3.67551 2.59571,5.45117 0.68731,1.77567 1.03169,3.26233 1.38086,4.77539 l 0.77929,-0.17969 c -0.34917,-1.51306 -0.7048,-3.05045 -1.41406,-4.88281 -0.70927,-1.83238 -1.76186,-3.93577 -2.64062,-5.54688 -0.87877,-1.61111 -1.5841,-2.73078 -2.17383,-3.58593 -0.58974,-0.85516 -1.07262,-1.45865 -1.61133,-2.02735 -0.53873,-0.5687 -1.12681,-1.09819 -1.52148,-1.47461 -0.39467,-0.37642 -0.61153,-0.61207 -0.85157,-0.84961 -0.15959,-0.15793 -0.31865,-0.2992 -0.47851,-0.44336 0.22946,-0.34122 0.4664,-0.67788 0.66211,-1.12695 0.24804,-0.56914 0.43918,-1.28226 0.4082,-2.21484 -0.031,-0.93264 -0.27146,-2.06291 -0.63867,-3.01172 -0.36722,-0.94886 -0.86901,-1.70912 -1.5293,-2.30664 -0.66032,-0.59757 -1.466676,-1.02752 -2.349608,-1.33203 -0.882962,-0.30454 -1.831655,-0.48008 -2.53711,-0.59766 -0.705441,-0.11758 -1.23676,-0.18836 -1.833984,-0.0644 -0.534836,0.11095 -1.067151,0.3696 -1.589844,0.61718 -0.704126,-0.47053 -1.435198,-0.97172 -2.359375,-1.14257 z"
         id="path106795" />
      <path
         style="color:#000000;fill:#c10042;-inkscape-stroke:none;fill-opacity:1"
         d="m 92.740234,134.69922 c -0.458624,0.37657 -0.925215,0.75907 -1.421875,1.22656 -0.49666,0.4675 -1.055007,1.05279 -1.484375,1.96289 -0.429361,0.91009 -0.728616,2.10993 -0.755859,3.22266 -0.02725,1.11269 0.229695,2.10643 0.646484,3.00195 0.416775,0.8955 0.997781,1.71358 1.716797,2.32617 0.460362,0.39223 1.074918,0.52152 1.650391,0.71875 -0.981922,0.0858 -1.994371,0.15539 -2.960938,0.34766 -1.370203,0.27256 -2.454294,0.66007 -3.277343,1.07031 -0.823055,0.41024 -1.420784,0.87131 -1.859375,1.52539 -0.438586,0.65407 -0.753755,1.49764 -0.591797,2.3125 0.161937,0.81474 0.796856,1.43517 1.589843,1.81446 0.792928,0.37927 1.734947,0.52617 2.666016,0.63085 0.931059,0.1047 1.871113,0.16206 2.810547,0.19141 0.939434,0.0294 1.870906,0.0298 2.734375,0.0586 0.863467,0.0288 1.675224,0.0877 2.353516,0.11719 0.67828,0.0295 1.079922,0.027 1.501953,0.33008 0.422129,0.3032 0.902957,1.00252 0.972656,1.60742 0.06971,0.60498 -0.222093,1.27905 -0.650391,1.8418 -0.428301,0.56274 -0.917053,0.96142 -1.86914,1.27539 -0.952079,0.31395 -2.369907,0.51559 -3.876953,0.51562 -1.507028,3e-5 -3.130937,-0.1993 -4.769532,-0.40234 l -0.09961,0.79297 c 1.638596,0.20304 3.291873,0.41019 4.869141,0.41016 1.577248,-4e-5 3.051542,-0.20202 4.126953,-0.55664 1.075401,-0.35464 1.751575,-0.88821 2.255859,-1.55079 0.50429,-0.66259 0.913207,-1.51004 0.808594,-2.41796 -0.104623,-0.90802 -0.6739,-1.7138 -1.300781,-2.16407 -0.626978,-0.45032 -1.273412,-0.45176 -1.933594,-0.48047 -0.660174,-0.0287 -1.478927,-0.0878 -2.361328,-0.11718 -0.882401,-0.0294 -1.813538,-0.0298 -2.736328,-0.0586 -0.92279,-0.0288 -1.843508,-0.0858 -2.748047,-0.1875 -0.90453,-0.10169 -1.770999,-0.25185 -2.408203,-0.55664 -0.637146,-0.30475 -1.054551,-0.75798 -1.152344,-1.25 -0.09777,-0.49191 0.121219,-1.18683 0.472656,-1.71094 0.35143,-0.52409 0.800705,-0.87906 1.552734,-1.2539 0.752033,-0.37484 1.769336,-0.742 3.076172,-1.00195 1.306835,-0.25996 2.923478,-0.41633 4.087891,-0.48243 1.164393,-0.0661 1.875109,-0.0442 2.410156,-0.0254 0.53506,0.0187 0.875335,0.0342 1.21875,0.0508 l 0.205078,-0.75195 c -0.03537,-0.0186 -0.131083,-0.0236 -0.169922,-0.043 l 0.002,-0.004 c -0.006,-2.9e-4 -0.01549,2.9e-4 -0.02148,0 -0.299722,-0.14859 -0.645472,-0.32622 -1.296875,-0.32813 -0.746559,-0.002 -1.777727,0.15078 -2.617187,0.0586 -0.839421,-0.0922 -1.53267,-0.41424 -2.144532,-0.93554 -0.61182,-0.52127 -1.136691,-1.24889 -1.511718,-2.05469 -0.375012,-0.80576 -0.596239,-1.6655 -0.572266,-2.64453 0.02397,-0.97901 0.306836,-2.11008 0.679688,-2.90039 0.372845,-0.7903 0.837294,-1.27719 1.310546,-1.72266 0.473254,-0.44546 0.922235,-0.81483 1.38086,-1.1914 z"
         id="path106799" />
    </g>
    <path
       d="m 100.88356,228.27737 q 0,0.4261 -0.34088,0.4261 h -5.55641 v 0.0511 q 0,0.37497 0.08522,0.76699 0.08522,0.37497 0.306795,0.69881 0.238619,0.30679 0.630636,0.51132 0.409061,0.18749 1.022652,0.18749 0.937431,0 1.755552,-0.0511 0.835166,-0.0682 1.380585,-0.11931 h 0.0511 q 0.13635,0 0.22157,0.0682 0.0852,0.0511 0.0852,0.18748 v 1.12492 q 0,0.20453 -0.0682,0.30679 -0.0511,0.10227 -0.28975,0.13636 -0.409065,0.0852 -0.766993,0.13635 -0.357929,0.0511 -0.732901,0.0852 -0.357928,0.0341 -0.801077,0.0511 -0.426105,0.017 -1.005608,0.017 -0.64768,0 -1.380581,-0.18749 -0.715856,-0.20453 -1.329447,-0.68176 -0.613591,-0.49429 -1.022652,-1.31241 -0.392017,-0.83516 -0.392017,-2.09643 v -1.26128 q 0,-0.98856 0.272707,-1.78964 0.272708,-0.80107 0.784034,-1.36353 0.52837,-0.56246 1.295359,-0.86926 0.766989,-0.30679 1.738508,-0.30679 0.988564,0 1.738509,0.32384 0.766989,0.30679 1.278315,0.8863 0.511324,0.5795 0.766994,1.38058 0.2727,0.78403 0.2727,1.7385 z m -2.266876,-1.24423 q 0,-1.0056 -0.494281,-1.55102 -0.494282,-0.54541 -1.29536,-0.54541 -0.801077,0 -1.312403,0.54541 -0.511326,0.52837 -0.511326,1.55102 v 0.0682 h 3.61337 z"
       style="font-size:17.0442px;-inkscape-font-specification:'Neo Sans Pro Medium';fill:#c10042;stroke-width:1.61;fill-opacity:1"
       id="path2592" />
    <path
       d="m 106.43996,228.02171 q 0,0.30679 -0.32384,0.30679 h -3.34066 q -0.13635,0 -0.23862,-0.0852 -0.10226,-0.0852 -0.10226,-0.22157 v -1.07379 q 0,-0.13635 0.10226,-0.22157 0.10227,-0.10227 0.23862,-0.10227 h 3.34066 q 0.32384,0 0.32384,0.32384 v 1.07379 z"
       style="font-size:17.0442px;-inkscape-font-specification:'Neo Sans Pro Medium';fill:#c10042;stroke-width:1.61;fill-opacity:1"
       id="path2594" />
    <path
       d="m 117.65503,232.52138 q 0,0.20453 -0.20453,0.20453 h -2.07939 q -0.13635,0 -0.20453,-0.10227 -0.0682,-0.10226 -0.13635,-0.23862 l -2.45437,-4.5508 h -0.23862 q -0.34088,0 -0.78403,-0.017 -0.44315,-0.0341 -0.7329,-0.0511 v 4.61898 q 0,0.13636 -0.10227,0.23862 -0.0852,0.10227 -0.22157,0.10227 h -1.70442 q -0.13636,0 -0.23862,-0.10227 -0.10227,-0.10226 -0.10227,-0.23862 v -11.72641 q 0,-0.25566 0.13636,-0.35793 0.1534,-0.11931 0.40906,-0.15339 0.66472,-0.10227 1.53398,-0.1534 0.86925,-0.0682 1.80668,-0.0682 0.98857,0 1.87486,0.20453 0.8863,0.18749 1.55103,0.63064 0.68176,0.44315 1.07378,1.19309 0.40906,0.7329 0.40906,1.82373 v 0.1534 q 0,1.36353 -0.63063,2.21574 -0.61359,0.85221 -1.67034,1.26128 l 2.67594,4.9769 q 0.0341,0.0511 0.0341,0.13636 z m -2.76116,-8.74368 q 0,-0.97152 -0.64768,-1.39762 -0.63063,-0.42611 -1.90895,-0.42611 -0.13635,0 -0.35793,0.0171 -0.20453,0 -0.4261,0.017 -0.22158,0 -0.42611,0.017 -0.18748,0 -0.30679,0.0171 v 3.83494 q 0.10226,0 0.30679,0.0171 0.22158,0 0.44315,0.017 0.23862,0 0.44315,0.0171 0.22158,0 0.32384,0 1.32945,0 1.94304,-0.42611 0.61359,-0.4261 0.61359,-1.55102 z"
       style="font-size:17.0442px;-inkscape-font-specification:'Neo Sans Pro Medium';fill:#c10042;stroke-width:1.61;fill-opacity:1"
       id="path2596" />
    <path
       d="m 126.75662,228.61825 q 0,0.92039 -0.27271,1.70442 -0.25566,0.76699 -0.76698,1.32945 -0.51133,0.56246 -1.27832,0.8863 -0.74994,0.32384 -1.75555,0.32384 -1.00561,0 -1.7726,-0.32384 -0.74994,-0.32384 -1.26127,-0.8863 -0.51133,-0.56246 -0.78403,-1.32945 -0.25567,-0.78403 -0.25567,-1.70442 v -1.38058 q 0,-0.92038 0.25567,-1.68737 0.2727,-0.78404 0.78403,-1.34649 0.51133,-0.56246 1.26127,-0.8863 0.76699,-0.32384 1.7726,-0.32384 1.00561,0 1.75555,0.32384 0.76699,0.32384 1.27832,0.8863 0.51132,0.56245 0.76698,1.34649 0.27271,0.76699 0.27271,1.68737 z m -2.24983,-1.38058 q 0,-1.05674 -0.4602,-1.67033 -0.46019,-0.63063 -1.36353,-0.63063 -0.90335,0 -1.36354,0.63063 -0.46019,0.61359 -0.46019,1.67033 v 1.38058 q 0,1.05674 0.46019,1.68738 0.46019,0.61359 1.36354,0.61359 0.90334,0 1.36353,-0.61359 0.4602,-0.63064 0.4602,-1.68738 z"
       style="font-size:17.0442px;-inkscape-font-specification:'Neo Sans Pro Medium';fill:#c10042;stroke-width:1.61;fill-opacity:1"
       id="path2598" />
    <path
       d="m 133.6254,232.43615 q 0,0.25567 -0.32384,0.3068 -0.3068,0.0511 -0.59655,0.0852 -0.2727,0.0341 -0.56246,0.0341 -0.71585,0 -1.24422,-0.10227 -0.51133,-0.10226 -0.83517,-0.39201 -0.32384,-0.28975 -0.47724,-0.81812 -0.15339,-0.54542 -0.15339,-1.39763 v -5.35188 l -1.60216,-0.23862 q -0.13635,-0.0341 -0.23862,-0.11931 -0.10226,-0.0852 -0.10226,-0.22157 v -0.76699 q 0,-0.13635 0.10226,-0.23862 0.10227,-0.10226 0.23862,-0.10226 h 1.60216 v -1.39763 q 0,-0.13635 0.10226,-0.22157 0.10227,-0.0852 0.23862,-0.11931 l 1.58511,-0.27271 h 0.0682 q 0.2727,0 0.2727,0.25566 v 1.75556 h 1.53398 q 0.13636,0 0.23862,0.10226 0.10227,0.10227 0.10227,0.23862 v 1.00561 q 0,0.13635 -0.10227,0.23862 -0.10226,0.10226 -0.23862,0.10226 h -1.53398 v 5.35188 q 0,0.32384 0.0171,0.51133 0.017,0.18748 0.0852,0.28975 0.0682,0.10226 0.18749,0.13635 0.13635,0.017 0.37497,0.017 h 0.90334 q 0.35793,0 0.35793,0.25566 v 1.07378 z"
       style="font-size:17.0442px;-inkscape-font-specification:'Neo Sans Pro Medium';fill:#c10042;stroke-width:1.61;fill-opacity:1"
       id="path2600" />
    <path
       d="m 142.28383,232.38502 q 0,0.13636 -0.10226,0.23862 -0.10227,0.10227 -0.23862,0.10227 h -1.44876 q -0.13635,0 -0.23862,-0.10227 -0.10226,-0.10226 -0.10226,-0.23862 v -0.2727 q -0.59655,0.35792 -1.1931,0.56245 -0.59654,0.18749 -1.21013,0.18749 -0.52837,0 -1.05674,-0.11931 -0.52837,-0.11931 -0.95448,-0.44315 -0.40906,-0.32384 -0.68177,-0.86925 -0.25566,-0.54542 -0.25566,-1.41467 v -0.0682 q 0,-0.7329 0.22157,-1.27831 0.23862,-0.54542 0.7329,-0.92039 0.51133,-0.37497 1.29536,-0.56246 0.80108,-0.18749 1.90895,-0.18749 h 1.07379 v -0.74994 q 0,-0.83517 -0.37497,-1.10787 -0.35793,-0.27271 -1.12492,-0.27271 -0.81812,0 -1.58511,0.0511 -0.76699,0.0341 -1.1931,0.0852 h -0.0852 q -0.13635,0 -0.22157,-0.0511 -0.0852,-0.0511 -0.0852,-0.23862 v -1.09083 q 0,-0.28975 0.32384,-0.35793 0.51132,-0.10226 1.22718,-0.18748 0.7329,-0.0852 1.6192,-0.0852 1.82373,0 2.7782,0.80108 0.97152,0.80107 0.97152,2.45436 z m -2.24983,-3.88608 h -1.07379 q -0.5795,0 -0.95447,0.10227 -0.35793,0.0852 -0.5795,0.27271 -0.20453,0.17044 -0.28976,0.44315 -0.0682,0.2727 -0.0682,0.63063 v 0.0682 q 0,0.63063 0.28975,0.85221 0.28975,0.20453 0.93743,0.20453 0.46019,0 0.90334,-0.13635 0.4602,-0.13636 0.83517,-0.34089 z"
       style="font-size:17.0442px;-inkscape-font-specification:'Neo Sans Pro Medium';fill:#c10042;stroke-width:1.61;fill-opacity:1"
       id="path2602" />
    <path
       d="m 149.44237,224.56173 q 0,0.13636 -0.10226,0.23862 -0.10227,0.10227 -0.23862,0.10227 -0.69882,0 -1.26127,0.17044 -0.54542,0.1534 -1.09083,0.44315 v 6.85177 q 0,0.13635 -0.10227,0.25566 -0.10226,0.10227 -0.23862,0.10227 h -1.56806 q -0.13636,0 -0.23862,-0.10227 -0.10227,-0.11931 -0.10227,-0.25566 v -8.91412 q 0,-0.13635 0.10227,-0.23862 0.10226,-0.10226 0.23862,-0.10226 h 1.48284 q 0.13636,0 0.23862,0.10226 0.10227,0.10227 0.10227,0.23862 v 0.35793 q 0.63063,-0.49428 1.27831,-0.64768 0.64768,-0.17044 1.15901,-0.17044 0.13635,0 0.23862,0.10226 0.10226,0.10227 0.10226,0.23862 z"
       style="font-size:17.0442px;-inkscape-font-specification:'Neo Sans Pro Medium';fill:#c10042;stroke-width:1.61;fill-opacity:1"
       id="path2604" />
    <path
       d="m 157.60651,232.38502 q 0,0.13636 -0.10227,0.23862 -0.10226,0.10227 -0.23862,0.10227 h -1.44875 q -0.13636,0 -0.23862,-0.10227 -0.10227,-0.10226 -0.10227,-0.23862 v -0.2727 q -0.59654,0.35792 -1.19309,0.56245 -0.59655,0.18749 -1.21014,0.18749 -0.52837,0 -1.05674,-0.11931 -0.52837,-0.11931 -0.95448,-0.44315 -0.40906,-0.32384 -0.68176,-0.86925 -0.25567,-0.54542 -0.25567,-1.41467 v -0.0682 q 0,-0.7329 0.22158,-1.27831 0.23862,-0.54542 0.7329,-0.92039 0.51132,-0.37497 1.29536,-0.56246 0.80108,-0.18749 1.90895,-0.18749 h 1.07378 v -0.74994 q 0,-0.83517 -0.37497,-1.10787 -0.35793,-0.27271 -1.12492,-0.27271 -0.81812,0 -1.58511,0.0511 -0.76699,0.0341 -1.19309,0.0852 h -0.0852 q -0.13636,0 -0.22158,-0.0511 -0.0852,-0.0511 -0.0852,-0.23862 v -1.09083 q 0,-0.28975 0.32384,-0.35793 0.51133,-0.10226 1.22718,-0.18748 0.7329,-0.0852 1.6192,-0.0852 1.82373,0 2.77821,0.80108 0.97152,0.80107 0.97152,2.45436 z m -2.24984,-3.88608 h -1.07378 q -0.5795,0 -0.95448,0.10227 -0.35793,0.0852 -0.5795,0.27271 -0.20453,0.17044 -0.28975,0.44315 -0.0682,0.2727 -0.0682,0.63063 v 0.0682 q 0,0.63063 0.28975,0.85221 0.28975,0.20453 0.93743,0.20453 0.4602,0 0.90335,-0.13635 0.46019,-0.13636 0.83516,-0.34089 z"
       style="font-size:17.0442px;-inkscape-font-specification:'Neo Sans Pro Medium';fill:#c10042;stroke-width:1.61;fill-opacity:1"
       id="path2606" />
    <path
       d="m 165.92405,232.19754 q 0,0.20453 -0.0682,0.30679 -0.0682,0.0852 -0.28975,0.13636 -0.28976,0.0852 -0.85221,0.15339 -0.56246,0.0682 -1.3465,0.0682 -0.83516,0 -1.55102,-0.25566 -0.69881,-0.25567 -1.22718,-0.76699 -0.51133,-0.52837 -0.81812,-1.29536 -0.28975,-0.78403 -0.28975,-1.82373 v -1.58511 q 0,-1.0397 0.28975,-1.80669 0.30679,-0.78403 0.81812,-1.29536 0.52837,-0.52837 1.22718,-0.78403 0.71586,-0.25566 1.55102,-0.25566 0.78404,0 1.3465,0.0682 0.56245,0.0682 0.85221,0.1534 0.22157,0.0511 0.28975,0.1534 0.0682,0.0852 0.0682,0.28975 v 1.10787 q 0,0.13636 -0.0852,0.20453 -0.0852,0.0511 -0.22157,0.0511 h -0.0511 q -0.25567,-0.0341 -0.47724,-0.0511 -0.22158,-0.0341 -0.4602,-0.0341 -0.23861,-0.0171 -0.54541,-0.0171 -0.3068,-0.017 -0.71586,-0.017 -0.30679,0 -0.59654,0.10226 -0.28975,0.10227 -0.52837,0.35793 -0.22158,0.23862 -0.37498,0.68177 -0.13635,0.4261 -0.13635,1.09083 v 1.58511 q 0,0.66472 0.13635,1.10787 0.1534,0.42611 0.37498,0.68177 0.23862,0.23862 0.52837,0.34088 0.28975,0.10227 0.59654,0.10227 0.40906,0 0.71586,0 0.3068,-0.017 0.54541,-0.017 0.23862,-0.0171 0.4602,-0.0341 0.22157,-0.0341 0.47724,-0.0682 h 0.0511 q 0.13635,0 0.22157,0.0682 0.0852,0.0511 0.0852,0.18748 v 1.10788 z"
       style="font-size:17.0442px;-inkscape-font-specification:'Neo Sans Pro Medium';fill:#c10042;stroke-width:1.61;fill-opacity:1"
       id="path2608" />
    <path
       d="m 173.16781,232.43615 q 0,0.25567 -0.32384,0.3068 -0.3068,0.0511 -0.59655,0.0852 -0.27271,0.0341 -0.56246,0.0341 -0.71585,0 -1.24422,-0.10227 -0.51133,-0.10226 -0.83517,-0.39201 -0.32384,-0.28975 -0.47724,-0.81812 -0.1534,-0.54542 -0.1534,-1.39763 v -5.35188 l -1.60215,-0.23862 q -0.13635,-0.0341 -0.23862,-0.11931 -0.10227,-0.0852 -0.10227,-0.22157 v -0.76699 q 0,-0.13635 0.10227,-0.23862 0.10227,-0.10226 0.23862,-0.10226 h 1.60215 v -1.39763 q 0,-0.13635 0.10227,-0.22157 0.10226,-0.0852 0.23862,-0.11931 l 1.58511,-0.27271 h 0.0682 q 0.2727,0 0.2727,0.25566 v 1.75556 h 1.53398 q 0.13635,0 0.23862,0.10226 0.10226,0.10227 0.10226,0.23862 v 1.00561 q 0,0.13635 -0.10226,0.23862 -0.10227,0.10226 -0.23862,0.10226 h -1.53398 v 5.35188 q 0,0.32384 0.0171,0.51133 0.017,0.18748 0.0852,0.28975 0.0682,0.10226 0.18748,0.13635 0.13636,0.017 0.37498,0.017 h 0.90334 q 0.35793,0 0.35793,0.25566 v 1.07378 z"
       style="font-size:17.0442px;-inkscape-font-specification:'Neo Sans Pro Medium';fill:#c10042;stroke-width:1.61;fill-opacity:1"
       id="path2610" />
    <path
       d="m 75.538887,246.60552 q 0,1.02265 -0.374972,1.72146 -0.357928,0.69881 -1.039696,1.14196 -0.664724,0.42611 -1.619199,0.63064 -0.954476,0.18748 -2.14757,0.18748 -1.039696,0 -1.806685,-0.0511 -0.749945,-0.0511 -1.141961,-0.13635 -0.426105,-0.0852 -0.630636,-0.25567 -0.187486,-0.18748 -0.187486,-0.66472 v -10.73785 q 0,-0.46019 0.170442,-0.64768 0.187486,-0.20453 0.596547,-0.2727 0.340884,-0.0511 1.090829,-0.10227 0.749945,-0.0682 1.755553,-0.0682 1.159005,0 2.11348,0.18749 0.97152,0.17044 1.670332,0.5795 0.698812,0.40906 1.073785,1.07379 0.392016,0.64768 0.392016,1.6192 v 0.34088 q 0,0.85221 -0.392016,1.55102 -0.392017,0.68177 -1.17605,1.02266 0.784033,0.34088 1.210138,0.98856 0.443149,0.63064 0.443149,1.60215 z m -2.386188,-5.65868 q 0,-0.8863 -0.664724,-1.26127 -0.647679,-0.37497 -2.283922,-0.37497 -0.306796,0 -0.64768,0.017 -0.32384,0 -0.596547,0.0171 v 3.45997 h 2.164613 q 0.596547,0 0.988564,-0.11931 0.392017,-0.13635 0.613591,-0.35793 0.238619,-0.22157 0.32384,-0.51132 0.102265,-0.3068 0.102265,-0.63064 z m 0.06818,5.40301 q 0,-0.35793 -0.102265,-0.68177 -0.102265,-0.32383 -0.357928,-0.56245 -0.238619,-0.25567 -0.64768,-0.40906 -0.392017,-0.1534 -0.988564,-0.1534 h -2.164613 v 3.74972 q 0.306795,0 0.715856,0.0171 0.409061,0.017 0.681768,0.017 0.818122,0 1.363536,-0.10227 0.545415,-0.10226 0.869255,-0.32383 0.340884,-0.22158 0.477237,-0.54542 0.153398,-0.34088 0.153398,-0.78403 z"
       style="font-size:17.0442px;-inkscape-font-specification:'Neo Sans Pro Medium';fill:#c10042;stroke-width:1.61;fill-opacity:1"
       id="path2612" />
    <path
       d="m 85.35634,245.70217 q 0,0.42611 -0.340884,0.42611 h -5.556409 v 0.0511 q 0,0.37497 0.08522,0.76699 0.08522,0.37497 0.306796,0.69881 0.238618,0.3068 0.630635,0.51133 0.409061,0.18748 1.022652,0.18748 0.937431,0 1.755553,-0.0511 0.835166,-0.0682 1.38058,-0.11931 h 0.05113 q 0.136353,0 0.221574,0.0682 0.08522,0.0511 0.08522,0.18749 v 1.12491 q 0,0.20453 -0.06818,0.3068 -0.05113,0.10226 -0.289751,0.13635 -0.409061,0.0852 -0.766989,0.13636 -0.357928,0.0511 -0.732901,0.0852 -0.357928,0.0341 -0.801077,0.0511 -0.426105,0.017 -1.005608,0.017 -0.64768,0 -1.38058,-0.18748 -0.715857,-0.20453 -1.329448,-0.68177 -0.613591,-0.49428 -1.022652,-1.3124 -0.392017,-0.83517 -0.392017,-2.09644 v -1.26127 q 0,-0.98857 0.272708,-1.78964 0.272707,-0.80108 0.784033,-1.36354 0.52837,-0.56246 1.295359,-0.86925 0.766989,-0.3068 1.738509,-0.3068 0.988563,0 1.738508,0.32384 0.766989,0.3068 1.278315,0.8863 0.511326,0.5795 0.766989,1.38058 0.272707,0.78403 0.272707,1.73851 z m -2.266878,-1.24422 q 0,-1.00561 -0.494282,-1.55103 -0.494282,-0.54541 -1.295359,-0.54541 -0.801078,0 -1.312404,0.54541 -0.511326,0.52837 -0.511326,1.55103 v 0.0682 h 3.613371 z"
       style="font-size:17.0442px;-inkscape-font-specification:'Neo Sans Pro Medium';fill:#c10042;stroke-width:1.61;fill-opacity:1"
       id="path2614" />
    <path
       d="m 94.952209,240.82753 q 0,0.0682 -0.01704,0.10227 l -2.846382,9.95381 q -0.20453,0.69881 -0.443149,1.19309 -0.238619,0.51133 -0.630636,0.83517 -0.374972,0.34088 -0.954475,0.49428 -0.579503,0.1534 -1.448757,0.1534 -0.20453,0 -0.460193,-0.017 -0.255663,-0.017 -0.511326,-0.0511 -0.238619,-0.0341 -0.460194,-0.0682 -0.221574,-0.0341 -0.374972,-0.0852 -0.136354,-0.0341 -0.255663,-0.10227 -0.102265,-0.0511 -0.102265,-0.18749 v -1.09083 q 0,-0.13635 0.102265,-0.22157 0.102265,-0.0852 0.238619,-0.0852 h 0.03409 q 0.170442,0 0.426105,0.017 0.272707,0.017 0.52837,0.0341 0.272707,0.0171 0.52837,0.0341 0.255663,0.017 0.44315,0.017 0.545414,0 0.85221,-0.22157 0.306795,-0.20453 0.494282,-0.86925 l 0.136353,-0.51133 h -0.255663 q -0.187486,0 -0.392016,-0.0341 -0.204531,-0.0511 -0.409061,-0.18748 -0.187486,-0.13636 -0.374973,-0.40907 -0.170442,-0.28975 -0.306795,-0.78403 l -2.232791,-7.80624 q -0.01704,-0.0511 -0.01704,-0.11931 0,-0.27271 0.32384,-0.27271 h 1.721464 q 0.11931,0 0.204531,0.10227 0.08522,0.0852 0.119309,0.20453 l 1.721464,6.93699 q 0.05113,0.22157 0.102266,0.30679 0.05113,0.0682 0.136353,0.0682 h 0.01704 0.08522 0.05113 l 1.840774,-7.32901 q 0.03409,-0.11931 0.119309,-0.20453 0.08522,-0.0852 0.221575,-0.0852 h 1.738508 q 0.136354,0 0.221575,0.0852 0.08522,0.0852 0.08522,0.20453 z"
       style="font-size:17.0442px;-inkscape-font-specification:'Neo Sans Pro Medium';fill:#c10042;stroke-width:1.61;fill-opacity:1"
       id="path2616" />
    <path
       d="m 103.91742,246.04306 q 0,0.92038 -0.27271,1.70442 -0.25566,0.76699 -0.76698,1.32945 -0.51133,0.56245 -1.27832,0.88629 -0.74994,0.32384 -1.755553,0.32384 -1.005607,0 -1.772597,-0.32384 -0.749944,-0.32384 -1.26127,-0.88629 -0.511326,-0.56246 -0.784034,-1.32945 -0.255663,-0.78404 -0.255663,-1.70442 v -1.38058 q 0,-0.92039 0.255663,-1.68738 0.272708,-0.78403 0.784034,-1.34649 0.511326,-0.56246 1.26127,-0.8863 0.76699,-0.32384 1.772597,-0.32384 1.005613,0 1.755553,0.32384 0.76699,0.32384 1.27832,0.8863 0.51132,0.56246 0.76698,1.34649 0.27271,0.76699 0.27271,1.68738 z m -2.24983,-1.38058 q 0,-1.05674 -0.4602,-1.67033 -0.46019,-0.63064 -1.363533,-0.63064 -0.903342,0 -1.363536,0.63064 -0.460193,0.61359 -0.460193,1.67033 v 1.38058 q 0,1.05674 0.460193,1.68737 0.460194,0.61359 1.363536,0.61359 0.903343,0 1.363533,-0.61359 0.4602,-0.63063 0.4602,-1.68737 z"
       style="font-size:17.0442px;-inkscape-font-specification:'Neo Sans Pro Medium';fill:#c10042;stroke-width:1.61;fill-opacity:1"
       id="path2618" />
    <path
       d="m 113.71783,249.79278 q 0,0.13636 -0.10227,0.25566 -0.10226,0.10227 -0.23862,0.10227 h -1.56806 q -0.13636,0 -0.23862,-0.10227 -0.10227,-0.1193 -0.10227,-0.25566 v -5.55641 q 0,-0.56246 -0.0511,-0.92038 -0.0341,-0.37498 -0.18748,-0.57951 -0.13636,-0.22157 -0.42611,-0.30679 -0.28975,-0.10227 -0.78403,-0.10227 -0.44315,0 -0.92039,0.17044 -0.46019,0.1534 -1.00561,0.44315 v 6.85177 q 0,0.13636 -0.10226,0.25566 -0.10227,0.10227 -0.23862,0.10227 h -1.56807 q -0.13635,0 -0.23862,-0.10227 -0.10226,-0.1193 -0.10226,-0.25566 v -8.91412 q 0,-0.13635 0.10226,-0.23861 0.10227,-0.10227 0.23862,-0.10227 h 1.48285 q 0.13635,0 0.23862,0.10227 0.10226,0.10226 0.10226,0.23861 v 0.35793 q 0.37497,-0.23862 0.68177,-0.39201 0.32384,-0.1534 0.64768,-0.23862 0.32384,-0.10227 0.66472,-0.13636 0.34089,-0.0511 0.76699,-0.0511 0.92039,0 1.49989,0.28975 0.5795,0.28975 0.8863,0.80108 0.32384,0.51133 0.44315,1.21014 0.11931,0.69881 0.11931,1.51693 v 5.55641 z"
       style="font-size:17.0442px;-inkscape-font-specification:'Neo Sans Pro Medium';fill:#c10042;stroke-width:1.61;fill-opacity:1"
       id="path2620" />
    <path
       d="m 123.55231,249.38372 q 0,0.18749 -0.0852,0.28975 -0.0852,0.0852 -0.37497,0.17044 -0.80108,0.20453 -1.70442,0.32384 -0.90334,0.11931 -1.72146,0.11931 -2.06235,0 -3.06796,-1.12491 -1.00561,-1.14197 -1.00561,-3.15318 v -1.3124 q 0,-2.01122 1.00561,-3.13614 1.00561,-1.14196 3.06796,-1.14196 0.30679,0 0.7329,0.0341 0.4261,0.017 0.90334,0.0852 v -3.01682 q 0,-0.13636 0.10227,-0.23862 0.10226,-0.10227 0.23861,-0.10227 h 1.56807 q 0.13635,0 0.23862,0.10227 0.10226,0.10226 0.10226,0.23862 z m -2.24983,-7.00517 q -0.35793,-0.0511 -0.85221,-0.0852 -0.47724,-0.0341 -0.78403,-0.0341 -0.54542,0 -0.90335,0.18749 -0.35792,0.18749 -0.56245,0.51133 -0.20453,0.32384 -0.28976,0.76699 -0.0682,0.44315 -0.0682,0.97152 v 1.3124 q 0,0.52837 0.0682,0.97152 0.0852,0.44315 0.28976,0.76699 0.20453,0.32384 0.56245,0.51132 0.35793,0.18749 0.90335,0.18749 0.46019,0 0.92038,-0.0341 0.47724,-0.0341 0.71586,-0.0852 z"
       style="font-size:17.0442px;-inkscape-font-specification:'Neo Sans Pro Medium';fill:#c10042;stroke-width:1.61;fill-opacity:1"
       id="path2622" />
    <path
       d="m 137.71601,239.03789 q 0,0.13635 -0.10227,0.23862 -0.10226,0.10226 -0.23862,0.10226 h -3.47701 q -0.74995,0 -1.05674,0.3068 -0.28976,0.3068 -0.28976,1.15901 v 1.84077 h 4.61898 q 0.13636,0 0.23862,0.10226 0.10227,0.10227 0.10227,0.23862 v 1.22719 q 0,0.13635 -0.10227,0.23861 -0.10226,0.10227 -0.23862,0.10227 h -4.61898 v 5.21553 q 0,0.13635 -0.10226,0.23861 -0.10227,0.10227 -0.23862,0.10227 h -1.67033 q -0.13635,0 -0.23862,-0.10227 -0.10226,-0.10226 -0.10226,-0.23861 v -8.96525 q 0,-1.09083 0.30679,-1.7726 0.3068,-0.68177 0.83517,-1.05674 0.52837,-0.39202 1.24422,-0.52837 0.71586,-0.13636 1.55103,-0.13636 0.76698,0 1.27831,0.0341 0.52837,0.017 0.8863,0.0511 0.37497,0.0341 0.61359,0.0852 0.25566,0.0341 0.46019,0.0682 0.18749,0.0341 0.25567,0.10227 0.0852,0.0682 0.0852,0.25566 v 1.09083 z"
       style="font-size:17.0442px;-inkscape-font-specification:'Neo Sans Pro Medium';fill:#c10042;stroke-width:1.61;fill-opacity:1"
       id="path2624" />
    <path
       d="m 144.78932,241.98654 q 0,0.13635 -0.10227,0.23862 -0.10226,0.10226 -0.23861,0.10226 -0.69882,0 -1.26127,0.17044 -0.54542,0.1534 -1.09083,0.44315 v 6.85177 q 0,0.13636 -0.10227,0.25566 -0.10226,0.10227 -0.23862,0.10227 h -1.56806 q -0.13636,0 -0.23862,-0.10227 -0.10227,-0.1193 -0.10227,-0.25566 v -8.91412 q 0,-0.13635 0.10227,-0.23861 0.10226,-0.10227 0.23862,-0.10227 h 1.48284 q 0.13635,0 0.23862,0.10227 0.10227,0.10226 0.10227,0.23861 v 0.35793 q 0.63063,-0.49428 1.27831,-0.64768 0.64768,-0.17044 1.15901,-0.17044 0.13635,0 0.23861,0.10227 0.10227,0.10226 0.10227,0.23861 z"
       style="font-size:17.0442px;-inkscape-font-specification:'Neo Sans Pro Medium';fill:#c10042;stroke-width:1.61;fill-opacity:1"
       id="path2626" />
    <path
       d="m 153.65226,246.04306 q 0,0.92038 -0.27271,1.70442 -0.25566,0.76699 -0.76699,1.32945 -0.51132,0.56245 -1.27831,0.88629 -0.74995,0.32384 -1.75556,0.32384 -1.0056,0 -1.77259,-0.32384 -0.74995,-0.32384 -1.26127,-0.88629 -0.51133,-0.56246 -0.78404,-1.32945 -0.25566,-0.78404 -0.25566,-1.70442 v -1.38058 q 0,-0.92039 0.25566,-1.68738 0.27271,-0.78403 0.78404,-1.34649 0.51132,-0.56246 1.26127,-0.8863 0.76699,-0.32384 1.77259,-0.32384 1.00561,0 1.75556,0.32384 0.76699,0.32384 1.27831,0.8863 0.51133,0.56246 0.76699,1.34649 0.27271,0.76699 0.27271,1.68738 z m -2.24984,-1.38058 q 0,-1.05674 -0.46019,-1.67033 -0.46019,-0.63064 -1.36354,-0.63064 -0.90334,0 -1.36353,0.63064 -0.4602,0.61359 -0.4602,1.67033 v 1.38058 q 0,1.05674 0.4602,1.68737 0.46019,0.61359 1.36353,0.61359 0.90335,0 1.36354,-0.61359 0.46019,-0.63063 0.46019,-1.68737 z"
       style="font-size:17.0442px;-inkscape-font-specification:'Neo Sans Pro Medium';fill:#c10042;stroke-width:1.61;fill-opacity:1"
       id="path2628" />
    <path
       d="m 163.45267,249.79278 q 0,0.13636 -0.10227,0.25566 -0.10226,0.10227 -0.23862,0.10227 h -1.56806 q -0.13636,0 -0.23862,-0.10227 -0.10227,-0.1193 -0.10227,-0.25566 v -5.55641 q 0,-0.56246 -0.0511,-0.92038 -0.0341,-0.37498 -0.18749,-0.57951 -0.13635,-0.22157 -0.4261,-0.30679 -0.28975,-0.10227 -0.78404,-0.10227 -0.44315,0 -0.92038,0.17044 -0.4602,0.1534 -1.00561,0.44315 v 6.85177 q 0,0.13636 -0.10227,0.25566 -0.10226,0.10227 -0.23861,0.10227 h -1.56807 q -0.13635,0 -0.23862,-0.10227 -0.10227,-0.1193 -0.10227,-0.25566 v -8.91412 q 0,-0.13635 0.10227,-0.23861 0.10227,-0.10227 0.23862,-0.10227 h 1.48284 q 0.13636,0 0.23862,0.10227 0.10227,0.10226 0.10227,0.23861 v 0.35793 q 0.37497,-0.23862 0.68177,-0.39201 0.32384,-0.1534 0.64768,-0.23862 0.32384,-0.10227 0.66472,-0.13636 0.34088,-0.0511 0.76699,-0.0511 0.92039,0 1.49989,0.28975 0.5795,0.28975 0.8863,0.80108 0.32384,0.51133 0.44315,1.21014 0.11931,0.69881 0.11931,1.51693 v 5.55641 z"
       style="font-size:17.0442px;-inkscape-font-specification:'Neo Sans Pro Medium';fill:#c10042;stroke-width:1.61;fill-opacity:1"
       id="path2630" />
    <path
       d="m 170.69643,249.86096 q 0,0.25566 -0.32384,0.30679 -0.3068,0.0511 -0.59655,0.0852 -0.27271,0.0341 -0.56246,0.0341 -0.71585,0 -1.24422,-0.10226 -0.51133,-0.10227 -0.83517,-0.39202 -0.32384,-0.28975 -0.47724,-0.81812 -0.1534,-0.54541 -0.1534,-1.39762 v -5.35188 l -1.60215,-0.23862 q -0.13635,-0.0341 -0.23862,-0.11931 -0.10226,-0.0852 -0.10226,-0.22158 v -0.76699 q 0,-0.13635 0.10226,-0.23861 0.10227,-0.10227 0.23862,-0.10227 h 1.60215 v -1.39762 q 0,-0.13636 0.10227,-0.22158 0.10226,-0.0852 0.23862,-0.11931 l 1.58511,-0.27271 h 0.0682 q 0.2727,0 0.2727,0.25567 v 1.75555 h 1.53398 q 0.13635,0 0.23862,0.10227 0.10227,0.10226 0.10227,0.23861 v 1.00561 q 0,0.13636 -0.10227,0.23862 -0.10227,0.10227 -0.23862,0.10227 h -1.53398 v 5.35188 q 0,0.32384 0.017,0.51132 0.017,0.18749 0.0852,0.28975 0.0682,0.10227 0.18748,0.13636 0.13636,0.017 0.37498,0.017 h 0.90334 q 0.35793,0 0.35793,0.25566 v 1.07379 z"
       style="font-size:17.0442px;-inkscape-font-specification:'Neo Sans Pro Medium';fill:#c10042;stroke-width:1.61;fill-opacity:1"
       id="path2632" />
    <path
       d="m 174.58248,238.91858 q 0,0.13635 -0.10226,0.23862 -0.10227,0.10227 -0.23862,0.10227 h -1.65329 q -0.13635,0 -0.25566,-0.10227 -0.10227,-0.10227 -0.10227,-0.23862 v -1.49989 q 0,-0.13635 0.10227,-0.23862 0.11931,-0.10226 0.25566,-0.10226 h 1.65329 q 0.13635,0 0.23862,0.10226 0.10226,0.10227 0.10226,0.23862 z m -0.0511,10.8742 q 0,0.13636 -0.10227,0.25566 -0.10226,0.10227 -0.23861,0.10227 h -1.56807 q -0.13635,0 -0.23862,-0.10227 -0.10226,-0.1193 -0.10226,-0.25566 v -8.91412 q 0,-0.13635 0.10226,-0.23861 0.10227,-0.10227 0.23862,-0.10227 h 1.56807 q 0.13635,0 0.23861,0.10227 0.10227,0.10226 0.10227,0.23861 z"
       style="font-size:17.0442px;-inkscape-font-specification:'Neo Sans Pro Medium';fill:#c10042;stroke-width:1.61;fill-opacity:1"
       id="path2634" />
    <path
       d="m 184.6556,245.70217 q 0,0.42611 -0.34088,0.42611 h -5.55641 v 0.0511 q 0,0.37497 0.0852,0.76699 0.0852,0.37497 0.30679,0.69881 0.23862,0.3068 0.63064,0.51133 0.40906,0.18748 1.02265,0.18748 0.93743,0 1.75555,-0.0511 0.83517,-0.0682 1.38058,-0.11931 h 0.0511 q 0.13635,0 0.22157,0.0682 0.0852,0.0511 0.0852,0.18749 v 1.12491 q 0,0.20453 -0.0682,0.3068 -0.0511,0.10226 -0.28975,0.13635 -0.40906,0.0852 -0.76699,0.13636 -0.35792,0.0511 -0.7329,0.0852 -0.35792,0.0341 -0.80107,0.0511 -0.42611,0.017 -1.00561,0.017 -0.64768,0 -1.38058,-0.18748 -0.71586,-0.20453 -1.32945,-0.68177 -0.61359,-0.49428 -1.02265,-1.3124 -0.39202,-0.83517 -0.39202,-2.09644 v -1.26127 q 0,-0.98857 0.27271,-1.78964 0.27271,-0.80108 0.78403,-1.36354 0.52837,-0.56246 1.29536,-0.86925 0.76699,-0.3068 1.73851,-0.3068 0.98856,0 1.73851,0.32384 0.76699,0.3068 1.27831,0.8863 0.51133,0.5795 0.76699,1.38058 0.27271,0.78403 0.27271,1.73851 z m -2.26688,-1.24422 q 0,-1.00561 -0.49428,-1.55103 -0.49428,-0.54541 -1.29536,-0.54541 -0.80108,0 -1.3124,0.54541 -0.51133,0.52837 -0.51133,1.55103 v 0.0682 h 3.61337 z"
       style="font-size:17.0442px;-inkscape-font-specification:'Neo Sans Pro Medium';fill:#c10042;stroke-width:1.61;fill-opacity:1"
       id="path2636" />
    <path
       d="m 191.5244,241.98654 q 0,0.13635 -0.10226,0.23862 -0.10227,0.10226 -0.23862,0.10226 -0.69881,0 -1.26127,0.17044 -0.54541,0.1534 -1.09083,0.44315 v 6.85177 q 0,0.13636 -0.10226,0.25566 -0.10227,0.10227 -0.23862,0.10227 h -1.56807 q -0.13635,0 -0.23862,-0.10227 -0.10226,-0.1193 -0.10226,-0.25566 v -8.91412 q 0,-0.13635 0.10226,-0.23861 0.10227,-0.10227 0.23862,-0.10227 h 1.48285 q 0.13635,0 0.23861,0.10227 0.10227,0.10226 0.10227,0.23861 v 0.35793 q 0.63064,-0.49428 1.27831,-0.64768 0.64768,-0.17044 1.15901,-0.17044 0.13635,0 0.23862,0.10227 0.10226,0.10226 0.10226,0.23861 z"
       style="font-size:17.0442px;-inkscape-font-specification:'Neo Sans Pro Medium';fill:#c10042;stroke-width:1.61;fill-opacity:1"
       id="path2638" />
    <path
       d="m 199.43288,247.62817 q 0,0.56246 -0.20453,1.05674 -0.20453,0.47724 -0.63064,0.83516 -0.40906,0.35793 -1.03969,0.56246 -0.63064,0.20453 -1.4658,0.20453 -0.25567,0 -0.63064,-0.017 -0.35793,-0.017 -0.78403,-0.0682 -0.42611,-0.0341 -0.85221,-0.0852 -0.42611,-0.0682 -0.78404,-0.17044 -0.32384,-0.0852 -0.32384,-0.39202 v -1.02265 q 0,-0.10226 0.0682,-0.18749 0.0852,-0.0852 0.22158,-0.0852 h 0.0682 q 0.3068,0.0341 0.71586,0.0682 0.4261,0.0341 0.83516,0.0682 0.40907,0.017 0.76699,0.0341 0.35793,0.017 0.54542,0.017 0.39201,0 0.63063,-0.0511 0.23862,-0.0682 0.35793,-0.17045 0.13636,-0.1193 0.17044,-0.2727 0.0511,-0.1534 0.0511,-0.32384 0,-0.23862 -0.17045,-0.42611 -0.17044,-0.18748 -0.5795,-0.44315 l -2.33505,-1.43171 q -0.63064,-0.39202 -1.0397,-0.98856 -0.39202,-0.61359 -0.39202,-1.36354 0,-2.55663 3.2384,-2.55663 0.51133,0 0.92039,0.0341 0.4261,0.017 0.78403,0.0682 0.35793,0.0511 0.68177,0.11931 0.32384,0.0511 0.64768,0.1193 0.30679,0.0852 0.30679,0.39202 v 0.98857 q 0,0.32384 -0.2727,0.32384 h -0.0682 q -0.18749,-0.0171 -0.51133,-0.0511 -0.32384,-0.0511 -0.71585,-0.0682 -0.39202,-0.0341 -0.81812,-0.0511 -0.40906,-0.0341 -0.76699,-0.0341 -0.61359,0 -0.90335,0.17045 -0.2727,0.15339 -0.2727,0.54541 0,0.20453 0.17044,0.35793 0.18749,0.1534 0.51133,0.34088 l 2.23279,1.36354 q 0.52837,0.32384 0.85221,0.64768 0.32384,0.32384 0.49428,0.64768 0.18748,0.32384 0.23862,0.64768 0.0511,0.32384 0.0511,0.64768 z"
       style="font-size:17.0442px;-inkscape-font-specification:'Neo Sans Pro Medium';fill:#c10042;stroke-width:1.61;fill-opacity:1"
       id="path2640" />
    <g
       id="g2299"
       style="fill:#c10042;fill-opacity:1"
       transform="matrix(1.6104838,0,0,1.6104838,-15.709823,-55.216516)">
      <path
         style="fill:#c10042;fill-opacity:1;fill-rule:nonzero;stroke:none;stroke-width:0.42105"
         d="m 157.42999,102.91251 c -10.10026,0 -18.3206,-8.221986 -18.3206,-18.327186 0,-10.105188 8.22034,-18.325532 18.3206,-18.325532 10.10519,0 18.32389,8.220344 18.32389,18.325532 0,10.1052 -8.2187,18.327186 -18.32389,18.327186 m 24.39951,-18.940658 -0.004,-0.0691 -0.0526,-0.03127 c -1.03616,-0.628285 -2.39801,-0.983551 -3.72693,-1.011514 -0.0279,-0.175986 -0.19409,-1.421038 -0.21546,-1.600317 1.273,-0.358548 2.49011,-1.050985 3.34536,-1.934195 l 0.0444,-0.04105 -0.0131,-0.06743 c -0.0625,-0.473688 -0.24179,-1.134866 -0.40625,-1.534531 l -0.0279,-0.06087 -0.0641,-0.01648 c -1.16939,-0.333878 -2.56906,-0.325654 -3.85687,0 -0.0609,-0.164468 -0.53619,-1.312485 -0.60362,-1.473671 1.13157,-0.692437 2.12663,-1.669398 2.72366,-2.730252 l 0.0314,-0.05264 -0.023,-0.06576 c -0.17105,-0.407899 -0.51644,-0.999996 -0.79276,-1.373355 l -0.0361,-0.05097 h -0.0707 c -1.20394,-0.02625 -2.54769,0.342113 -3.73353,0.980268 -0.10354,-0.144739 -0.87499,-1.148018 -0.98024,-1.287828 0.92268,-0.95229 1.62827,-2.159519 1.93091,-3.340432 l 0.0181,-0.06576 -0.0461,-0.05097 c -0.27467,-0.363489 -0.75494,-0.850328 -1.11348,-1.133218 l -0.0509,-0.03783 -0.0675,0.01192 c -1.18256,0.299336 -2.38321,1.006573 -3.33879,1.925971 -0.14638,-0.111833 -1.14803,-0.896375 -1.29276,-1.013149 0.63816,-1.126642 1.01315,-2.429257 1.01315,-3.629909 0,-0.03294 -0.005,-0.161187 -0.005,-0.161187 l -0.0525,-0.03951 c -0.3684,-0.289479 -0.95393,-0.625003 -1.37827,-0.797694 l -0.0575,-0.02136 -0.0544,0.02793 c -1.06251,0.590461 -2.03782,1.578941 -2.71875,2.712158 -0.17268,-0.06743 -1.38979,-0.578944 -1.55097,-0.649671 0.16118,-0.638145 0.25987,-1.294393 0.25987,-1.950642 0,-0.661177 -0.0788,-1.310851 -0.25987,-1.899653 l -0.0148,-0.06087 -0.0657,-0.02638 c -0.40132,-0.171058 -1.0444,-0.348677 -1.51972,-0.416112 l -0.0723,-0.01192 -0.041,0.04607 c -0.87829,0.850316 -1.56742,2.064123 -1.93255,3.338785 -0.18258,-0.03127 -1.44078,-0.187492 -1.63158,-0.207233 -0.0181,-1.320709 -0.37335,-2.67103 -1.00164,-3.722014 l -0.0314,-0.0592 -0.0657,-0.0012 c -0.45395,-0.05753 -1.14308,-0.05753 -1.58717,0 l -0.0723,0.0012 -0.0312,0.0592 c -0.62171,1.041114 -0.97369,2.389789 -0.99671,3.718732 -0.18257,0.02303 -1.46214,0.179268 -1.64801,0.210515 -0.36513,-1.28124 -1.05591,-2.499974 -1.93091,-3.347008 l -0.0493,-0.04929 -0.0723,0.01193 c -0.46875,0.06911 -1.12172,0.245067 -1.52301,0.409536 l -0.0609,0.02471 -0.0248,0.06255 c -0.16447,0.597025 -0.25328,1.254921 -0.25328,1.922675 0,0.644733 0.10189,1.305922 0.25328,1.93749 -0.15953,0.0691 -1.38815,0.598685 -1.55426,0.662825 -0.68915,-1.131571 -1.66446,-2.126626 -2.72367,-2.723665 l -0.0575,-0.03449 -0.0675,0.02304 c -0.40624,0.179268 -0.9967,0.519735 -1.36841,0.79933 l -0.0593,0.03449 v 0.175984 c 0,1.187488 0.36843,2.495045 1,3.62991 -0.13651,0.113504 -1.06248,0.835517 -1.20065,0.949009 -0.95065,-0.921045 -2.15624,-1.628281 -3.34373,-1.937488 l -0.0609,-0.01194 -0.0461,0.0444 c -0.36513,0.271383 -0.85525,0.751647 -1.13485,1.116771 l -0.0412,0.05097 0.0148,0.06409 c 0.2977,1.179275 1.00658,2.386504 1.92434,3.347019 -0.10031,0.141444 -0.90625,1.190781 -1.01645,1.333873 -1.15295,-0.643084 -2.4934,-1.023018 -3.722,-1.006572 l -0.0625,0.0048 -0.0411,0.05264 c -0.26809,0.358548 -0.60855,0.935856 -0.79604,1.376638 l -0.0248,0.05753 0.0314,0.0592 c 0.58882,1.057562 1.58552,2.044393 2.72532,2.735182 -0.0625,0.162822 -0.52961,1.299333 -0.60033,1.465448 -1.30754,-0.325653 -2.70227,-0.328946 -3.86674,0.0096 l -0.0609,0.01648 -0.0248,0.05586 c -0.17107,0.407898 -0.34869,1.050982 -0.41611,1.536176 l -0.009,0.06576 0.0461,0.05097 c 0.84868,0.871705 2.06907,1.56413 3.34374,1.916101 -0.0279,0.180926 -0.19079,1.439143 -0.21548,1.611834 -1.32399,0.0247 -2.68582,0.374994 -3.72528,0.999997 l -0.0593,0.03294 -0.004,0.06743 c -0.0264,0.228619 -0.0428,0.509862 -0.0428,0.797693 0,0.284536 0.0164,0.564144 0.0428,0.791117 l 0.004,0.06576 0.0593,0.02959 c 1.03946,0.623355 2.38977,0.980256 3.72201,0.998349 0.0279,0.182563 0.20394,1.47532 0.22698,1.652952 -1.27796,0.374995 -2.48684,1.07236 -3.33552,1.944064 l -0.0461,0.05431 0.007,0.0592 c 0.0739,0.478605 0.24836,1.136501 0.41282,1.532883 l 0.0264,0.0592 0.0609,0.01969 c 1.17761,0.335524 2.57069,0.320725 3.8651,0 0.0674,0.162833 0.56742,1.307556 0.6365,1.472025 -1.13157,0.679271 -2.12498,1.661174 -2.72366,2.722028 l -0.0279,0.05753 0.0214,0.06087 c 0.17435,0.416111 0.52139,1.006572 0.79769,1.374991 l 0.0411,0.05264 0.0592,0.0012 c 1.21711,0.01648 2.5592,-0.3421 3.72695,-0.986832 0.11016,0.136505 0.89803,1.162819 1.00165,1.302616 -0.91613,0.937491 -1.62829,2.139785 -1.92926,3.338785 l -0.0164,0.0592 0.0378,0.0526 c 0.27961,0.35854 0.76481,0.8388 1.12172,1.12992 l 0.0526,0.0444 0.0625,-0.0214 c 1.18091,-0.29439 2.37828,-0.99669 3.34372,-1.92102 0.14639,0.1135 1.16611,0.89802 1.31579,1.00985 -0.62664,1.15296 -0.99342,2.46873 -0.99342,3.66445 v 0.13487 l 0.0609,0.0444 c 0.35361,0.27137 0.93255,0.60197 1.36675,0.7944 l 0.0593,0.023 0.0625,-0.0313 c 1.06414,-0.59375 2.04768,-1.58881 2.73682,-2.73682 0.15954,0.0657 1.2796,0.51973 1.44407,0.58552 -0.15954,0.63159 -0.25328,1.28453 -0.25328,1.92432 0,0.67434 0.0888,1.33223 0.25986,1.92434 l 0.0148,0.064 0.0657,0.023 c 0.40296,0.17268 1.05262,0.34868 1.52795,0.42597 l 0.0708,0.0102 0.0461,-0.0544 c 0.87993,-0.85691 1.56907,-2.074 1.91282,-3.3355 0.18585,0.0313 1.47367,0.21218 1.65459,0.23191 0.0246,1.33222 0.38158,2.68583 1.00657,3.71708 l 0.0279,0.0575 0.0707,0.009 c 0.45888,0.0575 1.13979,0.0575 1.58717,0 l 0.0657,-0.009 0.0314,-0.0575 c 0.62005,-1.03125 0.97366,-2.38815 1.00821,-3.72531 0.18092,-0.0246 1.38815,-0.19243 1.56741,-0.22368 0.35692,1.28289 1.04935,2.49012 1.93092,3.34537 l 0.0478,0.0444 0.0592,-0.004 c 0.48027,-0.0757 1.13321,-0.24506 1.53947,-0.41119 l 0.0575,-0.0279 0.0181,-0.0592 c 0.17269,-0.59704 0.25,-1.25165 0.25,-1.92269 0,-0.64968 -0.0922,-1.31414 -0.25,-1.95065 0.16775,-0.0625 1.33716,-0.57071 1.50163,-0.6431 0.68914,1.13815 1.66941,2.13322 2.72695,2.73025 l 0.0525,0.0247 0.0625,-0.023 c 0.41941,-0.1727 1.0148,-0.5148 1.37992,-0.79934 l 0.0525,-0.0329 c 0,0 0.003,-0.1398 0.003,-0.17763 0,-1.17268 -0.37007,-2.48024 -0.98683,-3.62661 0.13815,-0.11016 1.10524,-0.8602 1.2434,-0.97203 0.96545,0.91775 2.1694,1.62334 3.35031,1.92927 l 0.0625,0.0164 0.0493,-0.0444 c 0.35856,-0.2829 0.84868,-0.76809 1.12993,-1.11841 l 0.0444,-0.0575 -0.0214,-0.0575 c -0.2944,-1.17761 -0.9967,-2.383191 -1.91774,-3.347 0.10696,-0.141445 0.88814,-1.166112 0.9934,-1.312498 1.16776,0.644732 2.51315,1.01315 3.72038,0.986844 h 0.0675 l 0.0395,-0.04774 c 0.28946,-0.370065 0.62335,-0.947362 0.79604,-1.383214 l 0.0279,-0.05586 -0.033,-0.0592 c -0.57729,-1.037819 -1.56578,-2.027945 -2.69734,-2.740111 0.0641,-0.161185 0.52631,-1.29111 0.59703,-1.453943 1.28289,0.330595 2.67762,0.342102 3.85031,0 l 0.056,-0.01969 0.0264,-0.05753 c 0.17269,-0.412829 0.34705,-1.054279 0.42106,-1.529601 l 0.006,-0.06576 -0.0493,-0.05097 c -0.84868,-0.879929 -2.06083,-1.56413 -3.32564,-1.925971 0.0295,-0.175986 0.19902,-1.388156 0.21711,-1.565788 1.33881,-0.02303 2.70063,-0.379924 3.73682,-1.006561 l 0.0525,-0.03127 0.004,-0.07077 c 0.0314,-0.222045 0.041,-0.508228 0.041,-0.792764 0,-0.286184 -0.0102,-0.56578 -0.041,-0.787825"
         id="path4581" />
      <path
         style="fill:#c10042;fill-opacity:1;fill-rule:nonzero;stroke:none;stroke-width:0.42105"
         d="m 170.25722,79.644575 c 0.18091,0.06087 0.25328,0.26315 0.31084,0.46217 0.95229,3.203928 0.95229,5.944039 0,9.172637 -0.0773,0.276314 -0.18915,0.429263 -0.33717,0.490122 -0.21217,0.06576 -0.44408,-0.08713 -0.64144,-0.231902 l -6.23515,-4.233524 c -0.24014,-0.159539 -0.38158,-0.378288 -0.38158,-0.61019 0,-0.230268 0.13651,-0.449018 0.38158,-0.613486 l 6.23515,-4.228594 c 0.28289,-0.202303 0.50329,-0.266444 0.66777,-0.207233 m -2.28618,14.121609 c -2.31085,2.432552 -4.67759,3.802613 -7.93416,4.582214 -0.27631,0.07077 -0.4671,0.04774 -0.58552,-0.05097 -0.17105,-0.143092 -0.14802,-0.429276 -0.13157,-0.674343 l 0.54111,-7.518039 c 0.0329,-0.292759 0.14966,-0.513156 0.35526,-0.636507 0.19901,-0.106944 0.45559,-0.09871 0.70723,0.02303 l 6.7845,3.284528 c 0.31742,0.156244 0.48683,0.310854 0.51808,0.478604 0.0329,0.18915 -0.1053,0.355265 -0.25493,0.511511 M 157.41848,89.02118 c -2.42927,0 -4.40458,-1.973664 -4.40458,-4.401286 0,-1.481894 0.74014,-2.856885 1.98024,-3.677602 0.40955,-0.27302 0.96218,-0.156246 1.23192,0.249996 0.26974,0.411182 0.15953,0.963809 -0.25165,1.233546 -0.74013,0.488486 -1.18091,1.307556 -1.18091,2.19406 0,1.44572 1.17926,2.624984 2.62498,2.624984 1.44901,0 2.62662,-1.179264 2.62662,-2.624984 0,-0.886504 -0.43913,-1.710503 -1.1842,-2.197343 -0.40789,-0.269737 -0.51973,-0.822364 -0.24671,-1.230263 0.26809,-0.407888 0.82237,-0.523016 1.23026,-0.253279 1.23682,0.820717 1.98025,2.19406 1.98025,3.680885 0,2.427622 -1.97697,4.401286 -4.40622,4.401286 m -1.93256,9.386457 c -0.15131,0.121704 -0.35691,0.0839 -0.56248,0.03127 -3.24013,-0.771377 -5.62005,-2.143074 -7.9358,-4.585495 -0.16777,-0.174339 -0.25001,-0.328937 -0.25001,-0.467099 0,-0.0247 0,-0.04106 0.006,-0.06744 0.0295,-0.213807 0.29275,-0.338806 0.51151,-0.444075 l 6.78286,-3.29109 c 0.2648,-0.123352 0.51972,-0.129927 0.71875,-0.01195 0.19735,0.115176 0.31907,0.333878 0.34209,0.620061 l 0.54771,7.531192 c 0.0214,0.355265 -0.0314,0.574016 -0.16121,0.684213 M 145.25691,89.58493 c -0.29275,0.202303 -0.50986,0.273031 -0.67762,0.215455 -0.1842,-0.06576 -0.24507,-0.268089 -0.30428,-0.468745 -0.95887,-3.198987 -0.95887,-5.942392 -0.0119,-9.169343 0.0823,-0.276312 0.19736,-0.429275 0.34539,-0.483545 0.2171,-0.07734 0.44407,0.08223 0.64801,0.222032 l 6.23188,4.238465 c 0.23519,0.156244 0.37171,0.373346 0.37171,0.61019 0,0.225326 -0.13652,0.444076 -0.36349,0.608544 z m 1.6102,-13.924247 h 0.004 c 2.31906,-2.435833 4.69568,-3.810824 7.93415,-4.587141 0.20067,-0.04607 0.41449,-0.08557 0.55593,0.04273 0.13817,0.106934 0.18585,0.328947 0.15953,0.689142 l -0.54605,7.511463 c -0.0181,0.289465 -0.13815,0.516439 -0.34045,0.628284 -0.19902,0.118398 -0.45559,0.111834 -0.71381,-0.0148 l -6.77616,-3.282877 c -0.22204,-0.10861 -0.48026,-0.225327 -0.52467,-0.449005 -0.0214,-0.15461 0.0525,-0.333878 0.24835,-0.537828 m 12.59037,-4.605236 c 0.15626,-0.126644 0.36184,-0.08557 0.56579,-0.0444 3.23848,0.784529 5.61674,2.152943 7.93746,4.592072 0.16446,0.174338 0.25328,0.335523 0.25328,0.480263 0,0.01314 -0.003,0.03617 -0.003,0.05753 -0.0493,0.222032 -0.29769,0.340454 -0.51974,0.447358 l -6.78284,3.28288 c -0.26644,0.126644 -0.51644,0.139797 -0.71217,0.01814 -0.20065,-0.115175 -0.324,-0.33717 -0.34702,-0.629931 L 159.304,71.747865 c -0.023,-0.360194 0.0263,-0.58059 0.1546,-0.692437 m -2.02795,-2.592078 c -8.88481,0 -16.11665,7.233502 -16.11665,16.121603 0,8.891381 7.23184,16.123247 16.11665,16.123247 8.88811,0 16.1216,-7.231866 16.1216,-16.123247 0,-8.888101 -7.23349,-16.121603 -16.1216,-16.121603"
         id="path4583" />
    </g>
  </g>
</svg>
