<?xml version="1.0" encoding="UTF-8" standalone="no"?>
<!-- Created with Inkscape (http://www.inkscape.org/) -->

<svg
   width="1080"
   height="800"
   viewBox="0 0 285.75 211.66666"
   version="1.1"
   id="svg5"
   inkscape:version="1.2.1 (9c6d41e, 2022-07-14)"
   sodipodi:docname="rotaract.svg"
   inkscape:export-filename="2022-09-03_white.png"
   inkscape:export-xdpi="96"
   inkscape:export-ydpi="96"
   xmlns:inkscape="http://www.inkscape.org/namespaces/inkscape"
   xmlns:sodipodi="http://sodipodi.sourceforge.net/DTD/sodipodi-0.dtd"
   xmlns:xlink="http://www.w3.org/1999/xlink"
   xmlns="http://www.w3.org/2000/svg"
   xmlns:svg="http://www.w3.org/2000/svg">
  <sodipodi:namedview
     id="namedview7"
     pagecolor="#323232"
     bordercolor="#666666"
     borderopacity="1.0"
     inkscape:pageshadow="2"
     inkscape:pageopacity="0"
     inkscape:pagecheckerboard="0"
     inkscape:document-units="mm"
     showgrid="false"
     inkscape:zoom="0.40902664"
     inkscape:cx="739.56063"
     inkscape:cy="515.85882"
     inkscape:window-width="1728"
     inkscape:window-height="988"
     inkscape:window-x="0"
     inkscape:window-y="38"
     inkscape:window-maximized="1"
     inkscape:current-layer="layer1"
     inkscape:showpageshadow="2"
     inkscape:deskcolor="#d1d1d1" />
  <defs
     id="defs2">
    <linearGradient
       inkscape:collect="always"
       id="linearGradient107549">
      <stop
         style="stop-color:#ffffff;stop-opacity:1;"
         offset="0"
         id="stop107545" />
      <stop
         style="stop-color:#000000;stop-opacity:1;"
         offset="0.21362384"
         id="stop107553" />
      <stop
         style="stop-color:#000000;stop-opacity:1;"
         offset="0.44453377"
         id="stop107555" />
      <stop
         style="stop-color:#000000;stop-opacity:1;"
         offset="0.62098068"
         id="stop107557" />
      <stop
         style="stop-color:#ffffff;stop-opacity:1;"
         offset="1"
         id="stop107547" />
    </linearGradient>
    <inkscape:path-effect
       effect="bspline"
       id="path-effect107142"
       is_visible="true"
       lpeversion="1"
       weight="33.333333"
       steps="2"
       helper_size="0"
       apply_no_weight="true"
       apply_with_weight="true"
       only_selected="false" />
    <inkscape:path-effect
       effect="bspline"
       id="path-effect106922"
       is_visible="true"
       lpeversion="1"
       weight="33.333333"
       steps="2"
       helper_size="0"
       apply_no_weight="true"
       apply_with_weight="true"
       only_selected="false" />
    <inkscape:path-effect
       effect="bspline"
       id="path-effect106801"
       is_visible="true"
       lpeversion="1"
       weight="33.333333"
       steps="2"
       helper_size="0"
       apply_no_weight="true"
       apply_with_weight="true"
       only_selected="false" />
    <inkscape:path-effect
       effect="bspline"
       id="path-effect106797"
       is_visible="true"
       lpeversion="1"
       weight="33.333333"
       steps="2"
       helper_size="0"
       apply_no_weight="true"
       apply_with_weight="true"
       only_selected="false" />
    <inkscape:path-effect
       effect="bspline"
       id="path-effect105821"
       is_visible="true"
       lpeversion="1"
       weight="33.333333"
       steps="2"
       helper_size="0"
       apply_no_weight="true"
       apply_with_weight="true"
       only_selected="false" />
    <inkscape:path-effect
       effect="bspline"
       id="path-effect105817"
       is_visible="true"
       lpeversion="1"
       weight="33.333333"
       steps="2"
       helper_size="0"
       apply_no_weight="true"
       apply_with_weight="true"
       only_selected="false" />
    <inkscape:path-effect
       effect="simplify"
       id="path-effect105751"
       is_visible="true"
       lpeversion="1"
       steps="1"
       threshold="0.00522388"
       smooth_angles="360"
       helper_size="0"
       simplify_individual_paths="false"
       simplify_just_coalesce="false" />
    <inkscape:path-effect
       effect="simplify"
       id="path-effect105739"
       is_visible="true"
       lpeversion="1"
       steps="1"
       threshold="0.00522388"
       smooth_angles="360"
       helper_size="0"
       simplify_individual_paths="false"
       simplify_just_coalesce="false" />
    <inkscape:path-effect
       effect="simplify"
       id="path-effect105723"
       is_visible="true"
       lpeversion="1"
       steps="1"
       threshold="0.00522388"
       smooth_angles="360"
       helper_size="0"
       simplify_individual_paths="false"
       simplify_just_coalesce="false" />
    <inkscape:path-effect
       effect="simplify"
       id="path-effect2798"
       is_visible="true"
       lpeversion="1"
       steps="1"
       threshold="0.00645161"
       smooth_angles="360"
       helper_size="0"
       simplify_individual_paths="false"
       simplify_just_coalesce="false" />
    <inkscape:path-effect
       effect="bspline"
       id="path-effect107142-9"
       is_visible="true"
       lpeversion="1"
       weight="33.333333"
       steps="2"
       helper_size="0"
       apply_no_weight="true"
       apply_with_weight="true"
       only_selected="false" />
    <linearGradient
       inkscape:collect="always"
       xlink:href="#linearGradient107549"
       id="linearGradient1327"
       gradientUnits="userSpaceOnUse"
       x1="30.199848"
       y1="126.91733"
       x2="158.77122"
       y2="126.91733"
       spreadMethod="pad"
       gradientTransform="translate(2.8189528e-6)" />
    <mask
       maskUnits="userSpaceOnUse"
       id="mask1352">
      <path
         style="fill:url(#linearGradient1356);fill-opacity:1;stroke:none;stroke-width:1;stroke-dasharray:none;stroke-opacity:0.564767"
         d="m 50.321093,130.17381 c -0.988793,-0.39046 -2.081595,0.44216 -3.330529,1.40488 -1.248935,0.96272 -2.653938,2.0555 -3.980931,3.12229 -1.326994,1.0668 -2.575886,2.10754 -3.928909,3.35649 -1.353023,1.24894 -2.810063,2.70599 -4.05901,4.18912 -1.248947,1.48313 -2.289691,2.99221 -3.044258,4.31924 -0.754568,1.32702 -1.222904,2.47184 -1.509101,3.53868 -0.286197,1.06685 -0.390272,2.05556 -0.07792,3.07035 0.312355,1.01479 1.040875,2.05553 1.925586,2.88809 0.884712,0.83256 1.925457,1.45701 3.200406,1.92529 1.274949,0.46829 2.784029,0.78051 4.449257,0.98864 1.665228,0.20813 3.486529,0.31221 5.542043,0.26015 2.055513,-0.0521 4.345151,-0.26021 6.764943,-0.57245 2.419793,-0.31224 4.969617,-0.72854 7.701643,-1.27495 2.732026,-0.54642 5.646109,-1.2229 8.612311,-1.97746 2.966202,-0.75457 5.984361,-1.58716 8.612295,-2.4458 2.627934,-0.85865 4.865532,-1.74328 7.207284,-2.62794 2.341752,-0.88466 4.787498,-1.76929 7.493516,-2.75803 2.706018,-0.98874 5.672139,-2.08152 8.117937,-3.07026 2.4458,-0.98873 4.37118,-1.87336 6.63486,-2.9922 2.26368,-1.11883 4.86554,-2.4718 7.05116,-3.61665 2.18562,-1.14485 3.95489,-2.08152 5.67217,-3.01822 1.71727,-0.9367 3.38246,-1.87336 5.07371,-2.91414 1.69125,-1.04077 3.40847,-2.18559 5.25585,-3.38248 1.84738,-1.19689 3.8248,-2.44579 5.80225,-3.90286 1.97745,-1.45708 3.95486,-3.12227 5.95835,-4.81353 2.0035,-1.69126 4.03295,-3.40849 5.93234,-5.25584 1.8994,-1.84736 3.66866,-3.82478 5.38593,-6.06243 1.71727,-2.23764 3.38245,-4.73542 4.60536,-6.68686 1.2229,-1.951434 2.00346,-3.356436 0.72867,-4.735444 -1.27478,-1.379008 -4.60516,-2.731975 -6.843,-2.523836 -2.23784,0.20814 -3.38265,1.977403 -4.31935,3.616645 -0.9367,1.639241 -1.66523,3.148325 -2.60192,4.735475 -0.93669,1.58715 -2.08152,3.25235 -3.07024,4.57932 -0.98873,1.32697 -1.82132,2.31568 -2.73199,3.33042 -0.91067,1.01475 -1.89938,2.05549 -3.09625,3.07023 -1.19686,1.01473 -2.60186,2.00344 -4.11099,3.09625 -1.50913,1.09282 -3.12229,2.28968 -4.73549,3.53861 -1.61321,1.24893 -3.22636,2.54986 -5.67217,4.16306 -2.44581,1.61319 -5.72415,3.53857 -8.22198,4.86555 -2.49783,1.32698 -4.21506,2.0555 -6.1405,2.91414 -1.92544,0.85864 -4.05897,1.84735 -6.37469,2.88813 -2.31572,1.04077 -4.813505,2.13355 -7.857787,3.56462 -3.044283,1.43107 -6.634848,3.20034 -9.496953,4.47528 -2.862106,1.27494 -4.995632,2.0555 -7.181269,2.91414 -2.185637,0.85864 -4.423237,1.79532 -6.790988,2.67997 -2.36775,0.88466 -4.865535,1.71726 -7.337351,2.34173 -2.471815,0.62447 -4.917563,1.04077 -7.025127,1.37902 -2.107564,0.33825 -3.876827,0.59844 -5.542055,0.78058 -1.665227,0.18214 -3.226343,0.28622 -4.839513,0.13015 -1.613171,-0.15607 -3.278359,-0.57237 -4.371245,-1.3008 -1.092887,-0.72843 -1.613256,-1.76917 -1.795487,-2.73194 -0.18223,-0.96276 -0.02612,-1.8474 0.312129,-2.78416 0.338245,-0.93675 0.858619,-1.92546 1.483095,-2.8882 0.624477,-0.96275 1.352997,-1.89942 2.055554,-2.62799 0.702556,-0.72858 1.379045,-1.24895 2.107579,-1.84739 0.728535,-0.59844 1.509091,-1.27492 2.341735,-1.8994 0.832643,-0.62448 1.717274,-1.19689 2.862152,-1.82136 1.144878,-0.62447 2.549885,-1.30096 2.810099,-2.44563 0.260213,-1.14467 -0.624421,-2.75783 -1.613215,-3.14829 z"
         id="path1354"
         inkscape:original-d="m 50.425064,128.95077 c -1.092538,0.83288 -2.185342,1.66549 -3.27841,2.49784 -1.404797,1.09309 -2.8098,2.18587 -4.215098,3.27841 -1.248677,1.04105 -2.497571,2.08179 -3.746754,3.12229 -1.456835,1.45737 -2.913877,2.91441 -4.371213,4.37122 -1.040521,1.5094 -2.081265,3.01848 -3.122295,4.52733 -0.468087,1.14512 -0.936424,2.28994 -1.405033,3.43452 -0.103811,0.98901 -0.207888,1.97772 -0.312229,2.96618 0.728816,1.04105 1.457336,2.08179 2.185606,3.12229 1.041051,0.62474 2.081795,1.24919 3.122295,1.87338 1.509406,0.3125 3.018484,0.62473 4.527328,0.93669 1.821641,0.10434 3.642942,0.20842 5.464016,0.31223 2.289993,-0.20789 4.579631,-0.41604 6.869049,-0.62446 2.55019,-0.41605 5.100014,-0.83235 7.649623,-1.24892 2.914465,-0.67625 5.828549,-1.35273 8.742426,-2.02949 3.018542,-0.83236 6.036699,-1.66496 9.054653,-2.49783 2.237954,-0.88441 4.475554,-1.76904 6.712934,-2.65396 2.446113,-0.8844 4.89186,-1.76903 7.337394,-2.65395 2.966503,-1.09256 5.932625,-2.18534 8.898534,-3.27841 1.92572,-0.8844 3.8511,-1.76903 5.77625,-2.65395 2.60223,-1.35275 5.20409,-2.70572 7.80574,-4.05898 1.76959,-0.93644 3.53886,-1.87311 5.30789,-2.81007 1.66553,-0.93644 3.33072,-1.87311 4.99568,-2.81006 1.71756,-1.1446 3.43479,-2.28942 5.15178,-3.43453 1.97776,-1.24867 3.95517,-2.49757 5.93236,-3.74675 1.97776,-1.66499 3.95517,-3.33018 5.93236,-4.99567 2.0298,-1.71703 4.05925,-3.43426 6.08848,-5.15179 1.7696,-1.97722 3.53886,-3.95464 5.3079,-5.93236 1.66552,-2.49762 3.33071,-4.9954 4.99567,-7.4935 0.78085,-1.404802 1.56141,-2.809801 2.34172,-4.215101 -3.33025,-1.352751 -6.66063,-2.705722 -9.99134,-4.058981 -1.1446,1.7696 -2.28942,3.538861 -3.43452,5.307899 -0.72829,1.509401 -1.45681,3.018483 -2.18561,4.527323 -1.1446,1.66552 -2.28942,3.33072 -3.43453,4.99568 -0.83236,0.98901 -1.66496,1.97771 -2.49783,2.96618 -0.98848,1.04104 -1.97719,2.08179 -2.96618,3.12229 -1.4048,0.98901 -2.8098,1.97772 -4.2151,2.96618 -1.61295,1.19717 -3.22611,2.39402 -4.83956,3.59064 -1.61295,1.30124 -3.2261,2.60217 -4.83955,3.90287 -3.27821,1.92572 -6.55656,3.85109 -9.83523,5.77624 -1.71703,0.72882 -3.43426,1.45734 -5.15179,2.18561 -2.13334,0.98901 -4.26687,1.97772 -6.4007,2.96618 -2.49762,1.09309 -4.995406,2.18587 -7.493506,3.27841 -3.590447,1.7696 -7.181014,3.53886 -10.771918,5.3079 -2.133346,0.78085 -4.266872,1.56141 -6.400705,2.34172 -2.237425,0.93697 -4.475025,1.87364 -6.712932,2.81007 -2.497621,0.83289 -4.995407,1.66548 -7.493508,2.49783 -2.445583,0.41658 -4.89133,0.83288 -7.337393,1.24892 -1.769073,0.26046 -3.538336,0.52065 -5.307901,0.78057 -1.560915,0.10435 -3.122031,0.20842 -4.683443,0.31223 -1.664994,-0.41605 -3.330183,-0.83234 -4.995672,-1.24891 -0.520128,-1.04053 -1.0405,-2.08127 -1.561147,-3.1223 0.156382,-0.8844 0.312494,-1.76904 0.468344,-2.65395 0.520658,-0.98848 1.04103,-1.97719 1.561147,-2.96618 0.728816,-0.93644 1.457336,-1.87311 2.185607,-2.81007 0.676775,-0.52012 1.353259,-1.0405 2.029492,-1.56114 0.780854,-0.67625 1.561412,-1.35273 2.341721,-2.02949 0.884933,-0.57217 1.769565,-1.14458 2.653951,-1.71727 1.405326,-0.67624 2.81033,-1.35273 4.215098,-2.02949 -0.884404,-1.61295 -1.769036,-3.22611 -2.653951,-4.83956 z"
         inkscape:path-effect="#path-effect107142-9" />
    </mask>
    <linearGradient
       inkscape:collect="always"
       xlink:href="#linearGradient107549"
       id="linearGradient1356"
       gradientUnits="userSpaceOnUse"
       gradientTransform="translate(2.8189529e-6)"
       x1="30.199848"
       y1="126.91733"
       x2="158.77122"
       y2="126.91733"
       spreadMethod="pad" />
    <inkscape:path-effect
       effect="simplify"
       id="path-effect105723-1"
       is_visible="true"
       lpeversion="1"
       steps="1"
       threshold="0.00522388"
       smooth_angles="360"
       helper_size="0"
       simplify_individual_paths="false"
       simplify_just_coalesce="false" />
    <inkscape:path-effect
       effect="simplify"
       id="path-effect105739-1"
       is_visible="true"
       lpeversion="1"
       steps="1"
       threshold="0.00522388"
       smooth_angles="360"
       helper_size="0"
       simplify_individual_paths="false"
       simplify_just_coalesce="false" />
    <inkscape:path-effect
       effect="simplify"
       id="path-effect105751-0"
       is_visible="true"
       lpeversion="1"
       steps="1"
       threshold="0.00522388"
       smooth_angles="360"
       helper_size="0"
       simplify_individual_paths="false"
       simplify_just_coalesce="false" />
    <inkscape:path-effect
       effect="simplify"
       id="path-effect105723-1-0"
       is_visible="true"
       lpeversion="1"
       steps="1"
       threshold="0.00522388"
       smooth_angles="360"
       helper_size="0"
       simplify_individual_paths="false"
       simplify_just_coalesce="false" />
    <inkscape:path-effect
       effect="simplify"
       id="path-effect105739-1-0"
       is_visible="true"
       lpeversion="1"
       steps="1"
       threshold="0.00522388"
       smooth_angles="360"
       helper_size="0"
       simplify_individual_paths="false"
       simplify_just_coalesce="false" />
    <inkscape:path-effect
       effect="simplify"
       id="path-effect105751-0-9"
       is_visible="true"
       lpeversion="1"
       steps="1"
       threshold="0.00522388"
       smooth_angles="360"
       helper_size="0"
       simplify_individual_paths="false"
       simplify_just_coalesce="false" />
    <inkscape:path-effect
       effect="simplify"
       id="path-effect105723-6"
       is_visible="true"
       lpeversion="1"
       steps="1"
       threshold="0.00522388"
       smooth_angles="360"
       helper_size="0"
       simplify_individual_paths="false"
       simplify_just_coalesce="false" />
    <inkscape:path-effect
       effect="simplify"
       id="path-effect105723-3"
       is_visible="true"
       lpeversion="1"
       steps="1"
       threshold="0.00522388"
       smooth_angles="360"
       helper_size="0"
       simplify_individual_paths="false"
       simplify_just_coalesce="false" />
    <inkscape:path-effect
       effect="simplify"
       id="path-effect105739-8"
       is_visible="true"
       lpeversion="1"
       steps="1"
       threshold="0.00522388"
       smooth_angles="360"
       helper_size="0"
       simplify_individual_paths="false"
       simplify_just_coalesce="false" />
    <inkscape:path-effect
       effect="simplify"
       id="path-effect105751-4"
       is_visible="true"
       lpeversion="1"
       steps="1"
       threshold="0.00522388"
       smooth_angles="360"
       helper_size="0"
       simplify_individual_paths="false"
       simplify_just_coalesce="false" />
    <inkscape:path-effect
       effect="bspline"
       id="path-effect106797-7"
       is_visible="true"
       lpeversion="1"
       weight="33.333333"
       steps="2"
       helper_size="0"
       apply_no_weight="true"
       apply_with_weight="true"
       only_selected="false" />
    <inkscape:path-effect
       effect="bspline"
       id="path-effect106801-2"
       is_visible="true"
       lpeversion="1"
       weight="33.333333"
       steps="2"
       helper_size="0"
       apply_no_weight="true"
       apply_with_weight="true"
       only_selected="false" />
    <inkscape:path-effect
       effect="bspline"
       id="path-effect106797-5"
       is_visible="true"
       lpeversion="1"
       weight="33.333333"
       steps="2"
       helper_size="0"
       apply_no_weight="true"
       apply_with_weight="true"
       only_selected="false" />
    <inkscape:path-effect
       effect="bspline"
       id="path-effect106801-8"
       is_visible="true"
       lpeversion="1"
       weight="33.333333"
       steps="2"
       helper_size="0"
       apply_no_weight="true"
       apply_with_weight="true"
       only_selected="false" />
    <inkscape:path-effect
       effect="bspline"
       id="path-effect106797-58"
       is_visible="true"
       lpeversion="1"
       weight="33.333333"
       steps="2"
       helper_size="0"
       apply_no_weight="true"
       apply_with_weight="true"
       only_selected="false" />
    <inkscape:path-effect
       effect="bspline"
       id="path-effect106801-5"
       is_visible="true"
       lpeversion="1"
       weight="33.333333"
       steps="2"
       helper_size="0"
       apply_no_weight="true"
       apply_with_weight="true"
       only_selected="false" />
    <inkscape:path-effect
       effect="bspline"
       id="path-effect106797-8"
       is_visible="true"
       lpeversion="1"
       weight="33.333333"
       steps="2"
       helper_size="0"
       apply_no_weight="true"
       apply_with_weight="true"
       only_selected="false" />
    <inkscape:path-effect
       effect="bspline"
       id="path-effect106801-3"
       is_visible="true"
       lpeversion="1"
       weight="33.333333"
       steps="2"
       helper_size="0"
       apply_no_weight="true"
       apply_with_weight="true"
       only_selected="false" />
    <inkscape:path-effect
       effect="bspline"
       id="path-effect106797-74"
       is_visible="true"
       lpeversion="1"
       weight="33.333333"
       steps="2"
       helper_size="0"
       apply_no_weight="true"
       apply_with_weight="true"
       only_selected="false" />
    <inkscape:path-effect
       effect="bspline"
       id="path-effect106801-80"
       is_visible="true"
       lpeversion="1"
       weight="33.333333"
       steps="2"
       helper_size="0"
       apply_no_weight="true"
       apply_with_weight="true"
       only_selected="false" />
    <linearGradient
       inkscape:collect="always"
       xlink:href="#linearGradient2105"
       id="linearGradient107551"
       x1="83.931107"
       y1="181.44101"
       x2="140.12212"
       y2="90.99984"
       gradientUnits="userSpaceOnUse"
       spreadMethod="pad"
       gradientTransform="matrix(1.8151982,0,0,1.8151982,-48.542382,-98.235285)" />
    <linearGradient
       inkscape:collect="always"
       id="linearGradient2105">
      <stop
         style="stop-color:#ffffff;stop-opacity:0;"
         offset="0"
         id="stop2095" />
      <stop
         style="stop-color:#ffffff;stop-opacity:1;"
         offset="0.21362384"
         id="stop2097" />
      <stop
         style="stop-color:#ffffff;stop-opacity:1;"
         offset="0.56648493"
         id="stop2099" />
      <stop
         style="stop-color:#ffffff;stop-opacity:0;"
         offset="0.87306362"
         id="stop2101" />
      <stop
         style="stop-color:#ffffff;stop-opacity:0;"
         offset="1"
         id="stop2103" />
    </linearGradient>
    <linearGradient
       inkscape:collect="always"
       xlink:href="#linearGradient1063"
       id="linearGradient1051"
       gradientUnits="userSpaceOnUse"
       gradientTransform="matrix(1.8151982,0,0,1.8151982,-48.542382,-98.235285)"
       x1="41.407406"
       y1="128.87865"
       x2="97.409836"
       y2="194.44287"
       spreadMethod="pad" />
    <linearGradient
       inkscape:collect="always"
       id="linearGradient1063">
      <stop
         style="stop-color:#ffffff;stop-opacity:0;"
         offset="0"
         id="stop1053" />
      <stop
         style="stop-color:#ffffff;stop-opacity:0;"
         offset="0.06887154"
         id="stop1065" />
      <stop
         style="stop-color:#ffffff;stop-opacity:1;"
         offset="0.42500597"
         id="stop1055" />
      <stop
         style="stop-color:#ffffff;stop-opacity:1;"
         offset="1"
         id="stop1057" />
    </linearGradient>
  </defs>
  <g
     inkscape:label="Layer 1"
     inkscape:groupmode="layer"
     id="layer1">
    <path
       id="path371"
       style="fill:url(#linearGradient1051);fill-opacity:1;stroke:none;stroke-width:1.12711;stroke-dasharray:none;stroke-opacity:1"
       d="m 34.959324,141.98863 c -1.804621,1.3996 -3.602908,2.81553 -5.430196,4.28451 -2.408755,1.93645 -4.676113,3.82652 -7.132127,6.09361 -2.455992,2.2671 -5.100933,4.91178 -7.368021,7.60392 -2.267076,2.6922 -4.156614,5.431 -5.5263052,7.8398 -1.3696798,2.40882 -2.219174,4.48734 -2.7386945,6.42386 -0.5194866,1.93654 -0.7085712,3.73085 -0.1415316,5.5729 0.5669945,1.84204 1.8887944,3.7314 3.4947173,5.24266 1.6059,1.51122 3.495111,2.64467 5.809369,3.49471 2.314302,0.85001 5.053571,1.41676 8.076287,1.79454 3.022727,0.3778 6.329532,0.56628 10.060695,0.47178 3.731141,-0.0945 7.887462,-0.47174 12.279835,-1.03851 4.392407,-0.56679 9.02029,-1.32224 13.979432,-2.31408 4.959142,-0.99185 10.248799,-2.21997 15.633021,-3.58965 5.384165,-1.36966 10.862805,-2.88083 15.633009,-4.43946 0.05771,-0.0188 0.112148,-0.0382 0.169495,-0.057 0.164176,-0.26308 0.468992,-0.75618 0.806698,-1.30294 0.419884,-0.67985 0.79732,-1.29568 0.990744,-1.58718 0.270158,-0.40707 0.541657,-0.80923 0.812525,-1.20626 0.270564,-0.39656 0.541127,-0.78769 0.810192,-1.17132 0.269267,-0.38393 0.538163,-0.75974 0.803204,-1.12705 0.265086,-0.36736 0.527996,-0.72654 0.788055,-1.07637 0.258864,-0.34821 0.51313,-0.68927 0.766505,-1.01928 0.253163,-0.32975 0.5015,-0.64665 0.743796,-0.95115 0.243389,-0.30584 0.483137,-0.59842 0.715243,-0.87833 0.232941,-0.28087 0.458195,-0.54667 0.673902,-0.79679 0.214557,-0.24877 0.421257,-0.48562 0.620897,-0.71118 0.39551,-0.4468 0.75176,-0.8402 1.05424,-1.18412 0.15314,-0.17406 0.29098,-0.33405 0.41179,-0.4782 0.12222,-0.14585 0.22976,-0.27965 0.32151,-0.40015 0.0902,-0.11848 0.16317,-0.22138 0.21784,-0.30636 0.0309,-0.0485 0.0565,-0.0897 0.0728,-0.11882 v -0.002 c 0.0179,-0.0319 0.0332,-0.0589 0.046,-0.0857 0.0101,-0.0216 0.0177,-0.0406 0.0245,-0.0577 0.005,-0.0122 0.008,-0.0233 0.0113,-0.0349 0.006,-0.0202 0.009,-0.0315 0.009,-0.0349 l 0.002,-0.009 0.002,-0.007 -0.002,-0.002 0.002,-0.005 v -0.002 c 0,-0.003 0.002,-0.0102 0.002,-0.0151 v -0.004 c -1.5e-4,-0.002 1.5e-4,-0.002 0,-0.005 -0.002,-0.0249 -0.006,-0.0429 -0.009,-0.057 l -0.002,-0.002 v -0.002 c -0.006,-0.0272 -0.014,-0.0589 -0.0263,-0.0943 -0.0141,-0.0407 -0.0325,-0.0875 -0.0553,-0.13921 -0.0477,-0.10798 -0.11874,-0.24607 -0.20677,-0.42228 -0.0889,-0.17769 -0.17866,-0.36445 -0.26443,-0.56614 -0.0413,-0.0972 -0.0832,-0.20227 -0.12523,-0.31453 l -0.002,-0.002 c -0.0424,-0.11389 -0.0812,-0.23072 -0.11882,-0.35005 -0.0406,-0.12845 -0.0753,-0.25198 -0.10775,-0.37394 -0.0338,-0.12767 -0.0689,-0.26538 -0.10133,-0.41179 -0.0312,-0.14101 -0.0603,-0.2907 -0.0903,-0.4514 -0.0116,-0.0622 -0.0237,-0.12769 -0.0355,-0.19395 -4.931297,2.17671 -8.686704,3.55691 -12.518067,5.06208 -3.967372,1.55859 -8.028543,3.25883 -12.32643,4.86464 -4.29791,1.60582 -8.832141,3.11779 -13.318933,4.25132 -4.486825,1.13354 -8.925995,1.88882 -12.751633,2.5028 -3.825615,0.61399 -7.037968,1.08648 -10.060695,1.41711 -3.022682,0.33061 -5.856324,0.51977 -8.784543,0.23647 -2.928196,-0.2833 -5.950912,-0.0791 -7.934744,-1.40138 -1.983799,-1.32225 -2.928027,-3.2108 -3.258813,-4.95842 -0.330785,-1.74753 -0.04723,-3.35354 0.566724,-5.05393 0.613973,-1.7004 1.558562,-3.49565 2.692089,-5.24323 1.13356,-1.74757 2.45651,-3.44721 3.731771,-4.76971 1.275284,-1.32252 2.502531,-2.26688 3.824962,-3.35317 1.322431,-1.08628 2.739923,-2.31455 4.251326,-3.44812 0.585501,-0.43913 1.125051,-0.84401 1.760754,-1.26567 -0.241822,-0.71615 -0.425914,-1.41666 -0.651765,-2.13236 -0.631048,-2.00615 -1.109891,-4.02703 -1.582524,-6.12972 z"
       sodipodi:nodetypes="csscssssssssssscsssssssssscssscccccccccccscccccccccsccccsscsssssscsssssscccc" />
    <path
       id="path107140"
       style="fill:url(#linearGradient107551);fill-opacity:1;stroke:none;stroke-width:1.12711;stroke-dasharray:none;stroke-opacity:1"
       d="m 215.75072,84.5769 -5.9e-4,5.86e-4 c -0.72264,1.353708 -1.4483,2.698208 -2.26108,4.075417 -1.70029,2.880993 -3.77818,5.904024 -5.5729,8.312756 -1.79473,2.408642 -3.30654,4.203911 -4.95958,6.045851 -1.65305,1.84198 -3.44693,3.73096 -5.6195,5.5729 -2.17248,1.84193 -4.7236,3.63698 -7.46296,5.62067 -2.73937,1.98367 -5.66702,4.15562 -8.59524,6.42269 -2.92829,2.267 -5.85752,4.62849 -10.29717,7.55674 -4.43956,2.92826 -22.5755,12.56355 -26.07056,14.12213 -3.14971,1.40457 -6.60902,3.00132 -10.33794,4.68583 0.0677,0.046 0.13877,0.0904 0.20443,0.13688 l 0.002,0.002 c 0.17761,0.12579 0.35628,0.25902 0.53061,0.3984 0.17318,0.13846 0.34071,0.28117 0.50441,0.42928 h 0.002 c 0.16685,0.15092 0.32648,0.30789 0.47936,0.46478 0.15311,0.15713 0.30363,0.32058 0.4514,0.49277 0.14576,0.1699 0.28739,0.34478 0.42286,0.52421 h -0.002 c 0.13439,0.17789 0.2666,0.36184 0.39432,0.55448 0.12808,0.19305 0.24831,0.38898 0.36288,0.58595 0.11693,0.20084 0.2285,0.40481 0.3349,0.61391 0.10617,0.20881 0.20796,0.42531 0.3058,0.64535 0.097,0.21844 0.19041,0.44056 0.27956,0.67099 0.0895,0.23116 0.17414,0.46494 0.25338,0.70011 0.079,0.23487 0.155,0.47732 0.22657,0.72224 0.0711,0.2432 0.13638,0.48741 0.19804,0.7333 0.0624,0.2478 0.12008,0.49393 0.17181,0.73739 v 0.002 c 0.0527,0.24847 0.0992,0.496 0.14096,0.73914 0.0416,0.24198 0.0804,0.48516 0.11237,0.73097 0.0318,0.24291 0.0569,0.48144 0.0769,0.71583 v 0.002 c 0.0204,0.23642 0.034,0.46679 0.0419,0.68904 v 0.0113 c 0.009,0.23401 0.009,0.45674 0.005,0.66457 v 0.009 c -0.005,0.2286 -0.0186,0.43924 -0.0332,0.62731 v 0.005 0.005 c -0.0174,0.20744 -0.0425,0.40901 -0.0705,0.60342 l 0.002,-0.002 c -0.0277,0.1952 -0.0631,0.38658 -0.10133,0.57255 v 0.002 c -0.0263,0.128 -0.0574,0.25184 -0.0879,0.37627 1.72739,-0.78874 3.44286,-1.60612 5.27119,-2.50979 4.10903,-2.03092 8.83214,-4.48729 12.79939,-6.56541 3.96732,-2.07811 7.1788,-3.77766 10.296,-5.47796 3.11717,-1.7003 6.14037,-3.40121 9.21031,-5.29041 3.06997,-1.88919 6.18662,-3.96704 9.53999,-6.13963 3.35335,-2.17261 6.94244,-4.44013 10.5319,-7.08494 3.58947,-2.64488 7.17887,-5.6668 10.81556,-8.73679 3.63673,-3.06998 7.3206,-6.18726 10.76836,-9.54057 3.44777,-3.35331 6.66047,-6.94249 9.77763,-11.004254 1.82093,-2.372721 3.58667,-4.889137 5.20188,-7.292301 -6.60289,-0.594214 -12.91461,-2.994944 -18.24356,-6.938759 z m -82.28127,62.91415 c -0.0434,0.0195 -0.0858,0.0387 -0.1293,0.0583 l 0.11707,0.26037 z" />
    <path
       id="path105737"
       style="fill:#ffffff;fill-opacity:1;stroke:none;stroke-width:1.81519;stroke-dasharray:none;stroke-opacity:1"
       d="m 119.05609,58.105036 c -2.74465,0.0222 -5.55372,0.228827 -8.41177,0.63895 1.02528,3.519175 5.33239,7.421659 8.47118,8.446138 5.29559,1.728474 7.57213,7.44117 10.09797,11.858723 2.80394,4.903823 10.89924,3.422289 16.10714,5.802392 1.22483,0.559781 2.47838,0.997755 3.74924,1.36294 4.05143,-1.64491 7.63154,-3.064341 10.63033,-4.205892 -2.03563,-1.443326 -3.43996,-3.475962 -3.48831,-6.56715 -0.031,-1.988308 0.55885,-4.080095 1.1154,-6.096524 -8.60541,-5.42579 -21.81169,-11.069788 -37.09813,-11.23783 -0.38935,-0.0034 -0.78098,-0.0056 -1.17305,-0.0023 z M 75.792711,75.074194 c -4.10719,3.452732 -8.204045,7.520023 -12.253629,12.292075 -4.806182,5.663588 -10.830964,17.279521 -12.712016,31.422711 5.302236,1.69765 12.077338,-0.20082 17.312229,-2.9676 3.562005,-1.88255 8.436355,-1.35962 11.338593,1.268 0.174455,-0.82869 0.352336,-1.64618 0.535853,-2.41252 4.204877,-1.59847 9.680654,-3.80494 15.833962,-6.33475 0.02254,-0.0573 0.03866,-0.11406 0.06177,-0.17124 1.880783,-4.60107 6.794247,-9.993046 3.731774,-14.630025 -3.175701,-4.808379 -2.646792,-7.636183 -4.013102,-11.581486 -2.217066,-6.401893 -9.864859,-3.988979 -15.139683,-4.755135 -1.780591,-0.258616 -3.291994,-1.08301 -4.695724,-2.13003 z M 181.73435,88.600481 c 0,0 -8.67413,4.094939 -12.24955,5.562418 0.38093,1.061313 0.44832,2.255839 0.0507,3.575678 -2.36252,7.840933 6.96219,-6.322217 10.19524,-1.266256 2.82984,4.425469 0.0663,10.261709 -2.35602,14.515289 -3.841,6.74529 -9.05791,-3.03121 -12.90481,-4.95667 -4.46111,-2.23292 0.43823,10.63758 -3.99213,14.35279 -3.87295,3.24773 -2.41792,10.29822 -7.07621,13.14361 -2.37818,1.45263 -3.39859,3.48089 -3.73584,5.71969 1.79417,-0.83008 3.71179,-1.76323 5.99634,-2.97692 4.50542,-2.39348 10.44701,-5.88478 14.85485,-8.79211 4.40792,-2.90732 7.30812,-5.24437 10.24534,-7.5183 2.93722,-2.27404 5.87116,-4.45122 8.61621,-6.43901 1.16637,-0.84461 2.2842,-1.64806 3.36017,-2.43698 -1.71655,-5.41005 -4.13026,-10.60136 -6.7483,-15.592237 -1.34258,-2.559494 -2.33337,-4.968937 -4.25539,-6.890992 z M 96.451701,123.92678 c -8.332176,3.37334 -13.608218,5.50956 -16.024422,6.48386 -0.463413,1.27676 -0.958487,2.53333 -1.393225,3.74458 -2.409724,6.71403 -7.357978,-3.5106 -9.774702,-6.2532 -4.386072,-4.97739 -2.313783,4.19686 -2.700834,6.84322 -0.716236,4.89716 -8.296075,-3.05207 -12.140637,-3.35549 -1.128398,-0.089 -2.574823,-0.0753 -4.057936,0.10482 0.819243,13.3815 5.978966,27.94329 19.06657,41.40303 2.285493,-0.73329 4.550315,-1.52971 6.754115,-2.35311 3.314672,-1.23845 6.493403,-2.53551 9.608711,-3.78477 0.110119,-0.37243 0.265683,-0.76258 0.477029,-1.17248 1.285247,-2.49269 0.222796,-10.72994 -2.305354,-5.97014 -2.727276,5.13491 -3.526377,-2.07224 -4.456922,-3.86107 -1.453019,-2.79314 -3.834971,-1.50983 -3.382299,-4.10279 0.692566,-3.96709 4.61757,1.87735 5.330019,2.94895 2.803864,4.2173 1.075413,-10.66112 7.117564,-11.95715 6.108922,-1.31035 -3.214145,-5.73357 1.199858,-7.19445 5.908149,-1.95552 7.571115,-6.51654 6.736059,-11.24308 -0.01634,-0.093 -0.03674,-0.18752 -0.05365,-0.28074 z m 98.984249,6.62715 c -2.77152,1.92633 -5.50179,3.66204 -8.07803,5.33118 -3.34756,2.16882 -6.46821,4.24802 -9.5563,6.14837 -3.08803,1.90031 -6.12465,3.61054 -9.24817,5.31428 -1.13136,0.61712 -2.29072,1.24046 -3.47782,1.87492 3.21075,2.70088 6.38121,6.82054 5.70628,11.04445 -0.81173,5.08012 -8.70058,4.53378 -10.87147,8.63369 -2.02879,3.83165 -5.16909,9.33434 -7.78388,4.8926 -2.10968,-3.58379 0.55551,-6.37546 -2.23138,-8.6197 -4.62104,-3.72125 -4.17257,2.63758 -4.56817,5.35506 -0.16246,1.11657 -0.43506,2.03793 -0.80145,2.7882 0.047,0.0675 0.09,0.12392 0.13803,0.19336 0.26407,0.38293 0.54192,0.7957 0.83408,1.24471 0.29217,0.44899 0.59848,0.93373 0.92202,1.46196 0.32355,0.52823 0.66403,1.0999 1.0222,1.72056 0.3582,0.62065 0.73443,1.29081 1.13054,2.01702 0.39613,0.72625 0.81162,1.50788 1.23247,2.32399 0.42085,0.81612 0.84687,1.66697 1.26276,2.52843 0.2246,0.46529 0.43351,0.93344 0.65002,1.40196 30.85521,-14.4787 36.56459,-46.27116 36.56459,-46.27116 0,0 3.46824,-1.49334 7.16184,-2.76257 0.002,-1.72397 0.028,-4.18526 -0.008,-6.62131 z M 91.635995,144.13554 c -0.809031,-0.0127 -1.281855,0.72393 -1.723481,1.28548 -0.7427,0.80244 -1.601358,1.62481 -1.7922,2.75033 -0.127432,0.75127 -0.187699,1.52801 -0.08566,2.2838 0.167737,1.242 1.073553,2.21791 2.058977,2.92682 0.618526,0.44498 1.383329,0.66123 1.972765,1.13752 0.701898,0.56718 0.843329,1.50922 1.048993,2.3339 0.183483,0.73557 0.303667,1.62923 0.98725,2.05838 0.334798,0.21017 0.842923,0.43803 1.170147,0.19104 0.443925,-0.33506 0.538929,-0.94115 0.602837,-1.45497 0.09682,-0.77765 0.21627,-1.5759 0.08735,-2.3496 -0.241371,-1.44881 -1.14428,-2.66762 -1.668726,-4.01485 -0.472102,-1.2127 -0.07326,-2.52171 0.227734,-3.72769 0.195464,-0.78286 0.529371,-1.59531 0.355886,-2.41077 -0.128502,-0.60425 -0.768895,-0.88689 -1.327413,-0.95406 -0.634531,-0.0763 -1.276727,-0.0451 -1.914515,-0.0553 z m 6.983012,2.38165 c -0.09107,8.2e-4 -0.175458,0.0215 -0.212585,0.10257 -0.103131,0.22478 -0.10685,0.47938 -0.116498,0.72224 -0.02074,0.52683 0.0079,1.05341 0.01285,1.58019 0.07304,0.55334 -0.122867,1.1224 0.03787,1.66581 0.08916,0.30161 0.324665,0.60667 0.643616,0.63138 0.163916,0.0128 0.273573,0.13083 0.41994,0.18755 0.248415,0.0961 0.508519,-0.0478 0.69778,-0.20153 0.44173,-0.35915 0.77589,-0.83619 1.03327,-1.33847 0.21144,-0.41265 0.40681,-0.85126 0.44149,-1.31867 0.0145,-0.18825 -0.029,-0.38859 -0.17181,-0.52945 -0.28097,-0.27693 -0.48384,-0.61549 -0.70884,-0.936 -0.1659,-0.23627 -0.428,-0.38482 -0.706524,-0.45373 -0.380581,-0.0942 -0.77471,-0.0858 -1.163159,-0.0991 -0.06109,-0.002 -0.13593,-0.0145 -0.206769,-0.0129 z m 59.061223,6.6085 c -1.95517,1.02325 -4.05487,2.1169 -6.18156,3.20989 0.37463,1.55314 0.91586,3.04688 1.77298,4.41849 2.23569,3.57753 3.43362,-1.36315 3.85293,-3.88555 0.17104,-1.02876 0.32379,-2.37941 0.55565,-3.74283 z m -64.162338,26.54584 c -0.543991,0.18682 -1.093458,0.3735 -1.665232,0.56031 -3.2642,1.06657 -6.85205,2.10742 -10.509759,3.0969 2.417365,1.72224 4.893634,3.22656 7.509552,4.50352 0.270721,-0.52701 0.536247,-1.05392 0.818927,-1.58078 0.46286,-0.86256 0.940193,-1.7239 1.430498,-2.57968 0.49034,-0.85576 0.993529,-1.70649 1.505644,-2.54763 0.298516,-0.49033 0.606004,-0.96948 0.91037,-1.45264 z"
       sodipodi:nodetypes="ccscsccccccccccccccsssccccscsssccccscsccccscssccscscssssccccssscsssscccsssssscccccccsssssscssccscssccccccsccsccssccssccccccssc" />
    <path
       id="path398"
       style="fill:none;fill-opacity:1;stroke:#ffffff;stroke-width:1.81519;stroke-dasharray:none;stroke-opacity:1"
       d="m 119.52729,44.21938 c -47.155515,0 -85.383398,36.417018 -85.383398,81.33885 0,19.039 6.952397,36.56744 18.519648,50.44559 3.172915,-0.53522 6.616304,-1.18043 10.079912,-2.05547 2.004245,-0.50634 4.046733,-1.16346 6.054933,-1.80078 C 37.31622,139.00936 53.226748,99.520262 63.540254,87.366844 114.49101,27.326596 172.82412,78.078875 167.53649,79.315612 c -8.85949,2.072176 -65.4923,26.987318 -87.522163,35.361838 -1.655133,6.91254 -2.995553,17.10953 -2.995553,17.10953 0,0 57.855546,-23.30316 116.174146,-47.37899 C 178.35931,60.360999 150.92198,44.219357 119.52729,44.21938 Z m 82.97264,91.20967 c -4.07516,0.13058 -14.21707,4.50876 -14.21707,4.50876 0,0 -5.45144,31.59435 -36.26872,46.08245 0.18749,0.40542 1.16191,3.19521 1.30179,3.58906 0.13994,0.39386 1.25016,3.79825 1.40486,4.33695 0.67656,1.79959 1.0077,3.44177 1.42294,5.03238 25.47947,-11.5973 44.13052,-34.86853 48.01095,-62.55244 0.0934,-0.66661 -0.40616,-0.96026 -1.27966,-0.99658 -0.11828,-0.005 -0.24364,-0.005 -0.37509,-5.8e-4 z M 82.402714,183.99549 c -1.989975,0.54418 -4.028698,1.00415 -6.030463,1.51337 -3.812417,0.96984 -7.572829,1.86371 -11.214533,2.66006 5.573363,4.40823 11.729297,8.16329 18.343752,11.1225 1.084351,-2.44069 1.97459,-4.95971 3.257065,-7.42684 0.183618,-0.35323 0.382813,-0.70744 0.572551,-1.06122 0.267847,-0.63502 0.502456,-1.25487 0.828248,-1.90812 0.163905,-0.32853 0.398976,-0.99664 0.567896,-1.32566 -2.214755,-1.07854 -4.286435,-2.21925 -6.324516,-3.57409 z"
       sodipodi:nodetypes="sscsccscccsccccccscccsccscccc" />
    <g
       id="path2354"
       transform="matrix(1.8151982,0,0,1.8151982,-59.166577,-15.173387)" />
    <g
       id="path371-6"
       transform="matrix(1.1271136,0,0,1.1271136,-30.835628,-36)" />
    <g
       id="g896"
       style="fill:none;stroke-width:0.8;stroke-dasharray:none;stroke:#ffffff"
       transform="matrix(1.8151982,0,0,1.8151982,-48.542383,-98.235286)">
      <path
         style="opacity:1;fill:none;fill-opacity:1;stroke:#ffffff;stroke-width:0.8;stroke-dasharray:none;stroke-opacity:1"
         d="m 72.881796,163.80198 c 0,0 0,-3e-5 0,-3e-5 0.787888,-1.87645 1.57572,-3.75277 2.522526,-5.65125 0.946805,-1.89848 2.052479,-3.81886 3.216387,-5.62292 1.163909,-1.80407 2.38597,-3.49167 3.375307,-4.6847 0.989337,-1.19302 1.745847,-1.89134 2.007805,-2.44403 0.261957,-0.55269 0.02918,-0.96004 -0.145425,-1.30921 -0.174611,-0.34917 -0.290998,-0.64014 -0.407438,-1.36759 -0.116439,-0.72746 -0.232827,-1.89133 -8.4e-5,-3.1717 0.232743,-1.28037 0.814676,-2.67701 1.542191,-3.60822 0.727514,-0.9312 1.600413,-1.39675 2.560692,-1.71681 0.96028,-0.32006 2.00776,-0.49464 2.910537,-0.32775 0.902776,0.1669 1.660415,0.67482 2.418369,1.18295 0.580519,-0.27535 1.16115,-0.55076 1.684285,-0.65929 0.523136,-0.10854 0.988675,-0.0503 1.687024,0.0661 0.69835,0.1164 1.629443,0.29098 2.473277,0.58202 0.843835,0.29103 1.600341,0.69838 2.211331,1.25131 0.611,0.55292 1.07654,1.25124 1.42564,2.15327 0.3491,0.90202 0.58187,2.00769 0.61091,2.88055 0.029,0.87286 -0.14554,1.51299 -0.37589,2.04154 -0.23034,0.52854 -0.51642,0.94554 -0.80254,1.36261 0.23763,0.21176 0.47554,0.42377 0.70588,0.65171 0.23034,0.22794 0.45341,0.47202 0.85594,0.85594 0.40253,0.38391 0.98446,0.90765 1.50819,1.46052 0.52373,0.55288 0.98928,1.13482 1.57121,1.97865 0.58193,0.84384 1.28025,1.94951 2.15316,3.54989 0.87291,1.60037 1.92039,3.69534 2.61868,5.49936 0.69829,1.80402 1.04738,3.31677 1.39655,4.82983"
         id="path106795"
         sodipodi:nodetypes="cccccccccccccccccccccccccccc"
         inkscape:original-d="m 72.881796,163.80198 v -3e-5 c 0,0 1.576041,-3.75264 2.363663,-5.62936 1.105982,-1.92019 2.211655,-3.84057 3.317084,-5.76125 1.222375,-1.68741 2.444432,-3.37502 3.666254,-5.06292 0.756807,-0.69809 1.513319,-1.39641 2.269583,-2.09501 -0.232518,-0.4071 -0.465291,-0.81445 -0.698333,-1.22208 -0.116126,-0.29071 -0.232513,-0.58168 -0.349166,-0.87292 -0.116128,-1.16364 -0.232513,-2.32751 -0.349168,-3.49166 0.582221,-1.39644 1.164154,-2.79308 1.745835,-4.19001 0.873199,-0.4653 1.746099,-0.93084 2.618751,-1.39666 1.047787,-0.17433 2.095267,-0.34891 3.142501,-0.52375 0.758231,0.5084 2.273863,1.52439 2.273863,1.52439 0,0 1.161302,-0.55044 1.741557,-0.82606 0.46583,0.0585 0.931375,0.11665 1.396666,0.17458 0.931397,0.17485 1.86249,0.34943 2.793336,0.52375 0.756809,0.40764 1.513318,0.81499 2.269588,1.22209 0.46583,0.69861 0.93137,1.39693 1.39666,2.095 0.23305,1.10598 0.46582,2.21165 0.69834,3.31708 -0.17432,0.64042 -0.3489,1.28055 -0.52375,1.92042 -0.28586,0.41734 -0.85836,1.2512 -0.85836,1.2512 0,0 0.47553,0.42379 0.71289,0.63528 0.22334,0.24436 0.44641,0.48844 0.66922,0.73227 0.58222,0.52403 1.16415,1.04777 1.74583,1.57125 0.46583,0.58222 0.93138,1.16416 1.39667,1.74584 0.69861,1.10598 1.39693,2.21165 2.095,3.31708 1.04779,2.09531 2.09527,4.19027 3.1425,6.28501 0.34943,1.51332 1.0475,4.53917 1.0475,4.53917"
         inkscape:path-effect="#path-effect106797-74" />
      <path
         style="opacity:1;fill:none;fill-opacity:0.435233;stroke:#ffffff;stroke-width:0.8;stroke-dasharray:none;stroke-opacity:1"
         d="m 92.994617,135.00761 c -0.458625,0.37657 -0.917274,0.75316 -1.402231,1.20964 -0.484957,0.45648 -0.996146,0.99278 -1.397253,1.84298 -0.401107,0.8502 -0.692073,2.01406 -0.717679,3.05993 -0.02561,1.04586 0.214013,1.97351 0.609914,2.82415 0.395901,0.85065 0.947907,1.6242 1.613326,2.19113 0.665418,0.56693 1.444073,0.92733 2.36194,1.02811 0.917867,0.10079 1.974963,-0.0579 2.658265,-0.0557 0.683303,0.002 0.992376,0.16468 1.301767,0.3274 -0.343405,-0.0166 -0.686531,-0.0332 -1.223867,-0.052 -0.537337,-0.0189 -1.268599,-0.04 -2.447093,0.0269 -1.178494,0.0669 -2.804151,0.22171 -4.142671,0.48797 -1.338521,0.26626 -2.389708,0.64393 -3.17725,1.03647 -0.787543,0.39254 -1.311282,0.79989 -1.706293,1.38898 -0.395012,0.58909 -0.661175,1.35968 -0.531311,2.01307 0.129865,0.65338 0.655419,1.18936 1.370486,1.53138 0.715067,0.34203 1.61953,0.49026 2.53733,0.59345 0.9178,0.1032 1.84889,0.16139 2.780003,0.19048 0.931113,0.0291 1.862205,0.0291 2.735141,0.0582 0.872935,0.0291 1.687639,0.0873 2.356872,0.11638 0.669232,0.0291 1.192972,0.0291 1.717477,0.40582 0.524506,0.37673 1.049787,1.12984 1.136948,1.8863 0.08716,0.75645 -0.263553,1.51635 -0.729847,2.12902 -0.466293,0.61266 -1.048227,1.07821 -2.061972,1.41251 -1.013746,0.33429 -2.459399,0.53732 -4.001548,0.53736 -1.542149,3e-5 -3.181007,-0.20304 -4.819604,-0.40608"
         id="path106799"
         sodipodi:nodetypes="cccccccscssccccccccccccccc"
         inkscape:original-d="m 92.994617,135.00761 c -0.458388,0.37686 -0.917039,0.75345 -1.375977,1.1298 -0.51094,0.53658 -1.022128,1.07288 -1.533588,1.60892 -0.290714,1.16418 -0.581681,2.32804 -0.872919,3.49167 0.239899,0.92797 0.479518,1.85562 0.718887,2.78306 0.5523,0.77386 1.104304,1.54742 1.656075,2.32075 0.778963,0.36068 1.557617,0.72108 2.33605,1.08123 1.0574,-0.15841 2.114496,-0.31707 3.171347,-0.476 0.309656,0.16299 0.928174,0.48816 0.928174,0.48816 0,0 -0.686545,-0.0329 -1.030215,-0.0498 -0.730997,-0.0208 -1.462259,-0.0419 -2.193786,-0.0633 -1.625425,0.15512 -3.251082,0.30997 -4.877068,0.46456 -1.050967,0.37796 -2.102156,0.75563 -3.153632,1.13305 -0.523496,0.40763 -1.047236,0.81498 -1.571252,1.22208 -0.265915,0.7709 -0.532077,1.54149 -0.798522,2.31186 0.525856,0.53629 1.051413,1.07227 1.57674,1.60803 0.904768,0.1485 1.809231,0.29673 2.713451,0.4447 0.931397,0.0585 1.86249,0.11665 2.793336,0.17458 0.931395,2.7e-4 1.862487,2.7e-4 2.793336,0 0.815002,0.0585 1.629709,0.11665 2.444168,0.17458 0.524023,2.7e-4 1.047763,2.7e-4 1.571249,0 0.52558,0.75342 1.050861,1.50653 1.575914,2.25943 -0.350465,0.7602 -0.70118,1.5201 -1.052163,2.27974 -0.581692,0.46583 -1.163624,0.93138 -1.745835,1.39667 -1.445472,0.20331 -2.891126,0.40634 -4.337128,0.60912 -1.638365,-0.20278 -4.915792,-0.60912 -4.915792,-0.60912"
         inkscape:path-effect="#path-effect106801-80" />
    </g>
    <g
       id="g2299"
       style="fill:#ffffff;fill-opacity:1"
       transform="matrix(1.8151982,0,0,1.8151982,-48.542383,-98.235286)">
      <path
         style="fill:#ffffff;fill-opacity:1;fill-rule:nonzero;stroke:none;stroke-width:0.42105"
         d="m 157.42999,102.91251 c -10.10026,0 -18.3206,-8.221986 -18.3206,-18.327186 0,-10.105188 8.22034,-18.325532 18.3206,-18.325532 10.10519,0 18.32389,8.220344 18.32389,18.325532 0,10.1052 -8.2187,18.327186 -18.32389,18.327186 m 24.39951,-18.940658 -0.004,-0.0691 -0.0526,-0.03127 c -1.03616,-0.628285 -2.39801,-0.983551 -3.72693,-1.011514 -0.0279,-0.175986 -0.19409,-1.421038 -0.21546,-1.600317 1.273,-0.358548 2.49011,-1.050985 3.34536,-1.934195 l 0.0444,-0.04105 -0.0131,-0.06743 c -0.0625,-0.473688 -0.24179,-1.134866 -0.40625,-1.534531 l -0.0279,-0.06087 -0.0641,-0.01648 c -1.16939,-0.333878 -2.56906,-0.325654 -3.85687,0 -0.0609,-0.164468 -0.53619,-1.312485 -0.60362,-1.473671 1.13157,-0.692437 2.12663,-1.669398 2.72366,-2.730252 l 0.0314,-0.05264 -0.023,-0.06576 c -0.17105,-0.407899 -0.51644,-0.999996 -0.79276,-1.373355 l -0.0361,-0.05097 h -0.0707 c -1.20394,-0.02625 -2.54769,0.342113 -3.73353,0.980268 -0.10354,-0.144739 -0.87499,-1.148018 -0.98024,-1.287828 0.92268,-0.95229 1.62827,-2.159519 1.93091,-3.340432 l 0.0181,-0.06576 -0.0461,-0.05097 c -0.27467,-0.363489 -0.75494,-0.850328 -1.11348,-1.133218 l -0.0509,-0.03783 -0.0675,0.01192 c -1.18256,0.299336 -2.38321,1.006573 -3.33879,1.925971 -0.14638,-0.111833 -1.14803,-0.896375 -1.29276,-1.013149 0.63816,-1.126642 1.01315,-2.429257 1.01315,-3.629909 0,-0.03294 -0.005,-0.161187 -0.005,-0.161187 l -0.0525,-0.03951 c -0.3684,-0.289479 -0.95393,-0.625003 -1.37827,-0.797694 l -0.0575,-0.02136 -0.0544,0.02793 c -1.06251,0.590461 -2.03782,1.578941 -2.71875,2.712158 -0.17268,-0.06743 -1.38979,-0.578944 -1.55097,-0.649671 0.16118,-0.638145 0.25987,-1.294393 0.25987,-1.950642 0,-0.661177 -0.0788,-1.310851 -0.25987,-1.899653 l -0.0148,-0.06087 -0.0657,-0.02638 c -0.40132,-0.171058 -1.0444,-0.348677 -1.51972,-0.416112 l -0.0723,-0.01192 -0.041,0.04607 c -0.87829,0.850316 -1.56742,2.064123 -1.93255,3.338785 -0.18258,-0.03127 -1.44078,-0.187492 -1.63158,-0.207233 -0.0181,-1.320709 -0.37335,-2.67103 -1.00164,-3.722014 l -0.0314,-0.0592 -0.0657,-0.0012 c -0.45395,-0.05753 -1.14308,-0.05753 -1.58717,0 l -0.0723,0.0012 -0.0312,0.0592 c -0.62171,1.041114 -0.97369,2.389789 -0.99671,3.718732 -0.18257,0.02303 -1.46214,0.179268 -1.64801,0.210515 -0.36513,-1.28124 -1.05591,-2.499974 -1.93091,-3.347008 l -0.0493,-0.04929 -0.0723,0.01193 c -0.46875,0.06911 -1.12172,0.245067 -1.52301,0.409536 l -0.0609,0.02471 -0.0248,0.06255 c -0.16447,0.597025 -0.25328,1.254921 -0.25328,1.922675 0,0.644733 0.10189,1.305922 0.25328,1.93749 -0.15953,0.0691 -1.38815,0.598685 -1.55426,0.662825 -0.68915,-1.131571 -1.66446,-2.126626 -2.72367,-2.723665 l -0.0575,-0.03449 -0.0675,0.02304 c -0.40624,0.179268 -0.9967,0.519735 -1.36841,0.79933 l -0.0593,0.03449 v 0.175984 c 0,1.187488 0.36843,2.495045 1,3.62991 -0.13651,0.113504 -1.06248,0.835517 -1.20065,0.949009 -0.95065,-0.921045 -2.15624,-1.628281 -3.34373,-1.937488 l -0.0609,-0.01194 -0.0461,0.0444 c -0.36513,0.271383 -0.85525,0.751647 -1.13485,1.116771 l -0.0412,0.05097 0.0148,0.06409 c 0.2977,1.179275 1.00658,2.386504 1.92434,3.347019 -0.10031,0.141444 -0.90625,1.190781 -1.01645,1.333873 -1.15295,-0.643084 -2.4934,-1.023018 -3.722,-1.006572 l -0.0625,0.0048 -0.0411,0.05264 c -0.26809,0.358548 -0.60855,0.935856 -0.79604,1.376638 l -0.0248,0.05753 0.0314,0.0592 c 0.58882,1.057562 1.58552,2.044393 2.72532,2.735182 -0.0625,0.162822 -0.52961,1.299333 -0.60033,1.465448 -1.30754,-0.325653 -2.70227,-0.328946 -3.86674,0.0096 l -0.0609,0.01648 -0.0248,0.05586 c -0.17107,0.407898 -0.34869,1.050982 -0.41611,1.536176 l -0.009,0.06576 0.0461,0.05097 c 0.84868,0.871705 2.06907,1.56413 3.34374,1.916101 -0.0279,0.180926 -0.19079,1.439143 -0.21548,1.611834 -1.32399,0.0247 -2.68582,0.374994 -3.72528,0.999997 l -0.0593,0.03294 -0.004,0.06743 c -0.0264,0.228619 -0.0428,0.509862 -0.0428,0.797693 0,0.284536 0.0164,0.564144 0.0428,0.791117 l 0.004,0.06576 0.0593,0.02959 c 1.03946,0.623355 2.38977,0.980256 3.72201,0.998349 0.0279,0.182563 0.20394,1.47532 0.22698,1.652952 -1.27796,0.374995 -2.48684,1.07236 -3.33552,1.944064 l -0.0461,0.05431 0.007,0.0592 c 0.0739,0.478605 0.24836,1.136501 0.41282,1.532883 l 0.0264,0.0592 0.0609,0.01969 c 1.17761,0.335524 2.57069,0.320725 3.8651,0 0.0674,0.162833 0.56742,1.307556 0.6365,1.472025 -1.13157,0.679271 -2.12498,1.661174 -2.72366,2.722028 l -0.0279,0.05753 0.0214,0.06087 c 0.17435,0.416111 0.52139,1.006572 0.79769,1.374991 l 0.0411,0.05264 0.0592,0.0012 c 1.21711,0.01648 2.5592,-0.3421 3.72695,-0.986832 0.11016,0.136505 0.89803,1.162819 1.00165,1.302616 -0.91613,0.937491 -1.62829,2.139785 -1.92926,3.338785 l -0.0164,0.0592 0.0378,0.0526 c 0.27961,0.35854 0.76481,0.8388 1.12172,1.12992 l 0.0526,0.0444 0.0625,-0.0214 c 1.18091,-0.29439 2.37828,-0.99669 3.34372,-1.92102 0.14639,0.1135 1.16611,0.89802 1.31579,1.00985 -0.62664,1.15296 -0.99342,2.46873 -0.99342,3.66445 v 0.13487 l 0.0609,0.0444 c 0.35361,0.27137 0.93255,0.60197 1.36675,0.7944 l 0.0593,0.023 0.0625,-0.0313 c 1.06414,-0.59375 2.04768,-1.58881 2.73682,-2.73682 0.15954,0.0657 1.2796,0.51973 1.44407,0.58552 -0.15954,0.63159 -0.25328,1.28453 -0.25328,1.92432 0,0.67434 0.0888,1.33223 0.25986,1.92434 l 0.0148,0.064 0.0657,0.023 c 0.40296,0.17268 1.05262,0.34868 1.52795,0.42597 l 0.0708,0.0102 0.0461,-0.0544 c 0.87993,-0.85691 1.56907,-2.074 1.91282,-3.3355 0.18585,0.0313 1.47367,0.21218 1.65459,0.23191 0.0246,1.33222 0.38158,2.68583 1.00657,3.71708 l 0.0279,0.0575 0.0707,0.009 c 0.45888,0.0575 1.13979,0.0575 1.58717,0 l 0.0657,-0.009 0.0314,-0.0575 c 0.62005,-1.03125 0.97366,-2.38815 1.00821,-3.72531 0.18092,-0.0246 1.38815,-0.19243 1.56741,-0.22368 0.35692,1.28289 1.04935,2.49012 1.93092,3.34537 l 0.0478,0.0444 0.0592,-0.004 c 0.48027,-0.0757 1.13321,-0.24506 1.53947,-0.41119 l 0.0575,-0.0279 0.0181,-0.0592 c 0.17269,-0.59704 0.25,-1.25165 0.25,-1.92269 0,-0.64968 -0.0922,-1.31414 -0.25,-1.95065 0.16775,-0.0625 1.33716,-0.57071 1.50163,-0.6431 0.68914,1.13815 1.66941,2.13322 2.72695,2.73025 l 0.0525,0.0247 0.0625,-0.023 c 0.41941,-0.1727 1.0148,-0.5148 1.37992,-0.79934 l 0.0525,-0.0329 c 0,0 0.003,-0.1398 0.003,-0.17763 0,-1.17268 -0.37007,-2.48024 -0.98683,-3.62661 0.13815,-0.11016 1.10524,-0.8602 1.2434,-0.97203 0.96545,0.91775 2.1694,1.62334 3.35031,1.92927 l 0.0625,0.0164 0.0493,-0.0444 c 0.35856,-0.2829 0.84868,-0.76809 1.12993,-1.11841 l 0.0444,-0.0575 -0.0214,-0.0575 c -0.2944,-1.17761 -0.9967,-2.383191 -1.91774,-3.347 0.10696,-0.141445 0.88814,-1.166112 0.9934,-1.312498 1.16776,0.644732 2.51315,1.01315 3.72038,0.986844 h 0.0675 l 0.0395,-0.04774 c 0.28946,-0.370065 0.62335,-0.947362 0.79604,-1.383214 l 0.0279,-0.05586 -0.033,-0.0592 c -0.57729,-1.037819 -1.56578,-2.027945 -2.69734,-2.740111 0.0641,-0.161185 0.52631,-1.29111 0.59703,-1.453943 1.28289,0.330595 2.67762,0.342102 3.85031,0 l 0.056,-0.01969 0.0264,-0.05753 c 0.17269,-0.412829 0.34705,-1.054279 0.42106,-1.529601 l 0.006,-0.06576 -0.0493,-0.05097 c -0.84868,-0.879929 -2.06083,-1.56413 -3.32564,-1.925971 0.0295,-0.175986 0.19902,-1.388156 0.21711,-1.565788 1.33881,-0.02303 2.70063,-0.379924 3.73682,-1.006561 l 0.0525,-0.03127 0.004,-0.07077 c 0.0314,-0.222045 0.041,-0.508228 0.041,-0.792764 0,-0.286184 -0.0102,-0.56578 -0.041,-0.787825"
         id="path4581" />
      <path
         style="fill:#ffffff;fill-opacity:1;fill-rule:nonzero;stroke:none;stroke-width:0.42105"
         d="m 170.25722,79.644575 c 0.18091,0.06087 0.25328,0.26315 0.31084,0.46217 0.95229,3.203928 0.95229,5.944039 0,9.172637 -0.0773,0.276314 -0.18915,0.429263 -0.33717,0.490122 -0.21217,0.06576 -0.44408,-0.08713 -0.64144,-0.231902 l -6.23515,-4.233524 c -0.24014,-0.159539 -0.38158,-0.378288 -0.38158,-0.61019 0,-0.230268 0.13651,-0.449018 0.38158,-0.613486 l 6.23515,-4.228594 c 0.28289,-0.202303 0.50329,-0.266444 0.66777,-0.207233 m -2.28618,14.121609 c -2.31085,2.432552 -4.67759,3.802613 -7.93416,4.582214 -0.27631,0.07077 -0.4671,0.04774 -0.58552,-0.05097 -0.17105,-0.143092 -0.14802,-0.429276 -0.13157,-0.674343 l 0.54111,-7.518039 c 0.0329,-0.292759 0.14966,-0.513156 0.35526,-0.636507 0.19901,-0.106944 0.45559,-0.09871 0.70723,0.02303 l 6.7845,3.284528 c 0.31742,0.156244 0.48683,0.310854 0.51808,0.478604 0.0329,0.18915 -0.1053,0.355265 -0.25493,0.511511 M 157.41848,89.02118 c -2.42927,0 -4.40458,-1.973664 -4.40458,-4.401286 0,-1.481894 0.74014,-2.856885 1.98024,-3.677602 0.40955,-0.27302 0.96218,-0.156246 1.23192,0.249996 0.26974,0.411182 0.15953,0.963809 -0.25165,1.233546 -0.74013,0.488486 -1.18091,1.307556 -1.18091,2.19406 0,1.44572 1.17926,2.624984 2.62498,2.624984 1.44901,0 2.62662,-1.179264 2.62662,-2.624984 0,-0.886504 -0.43913,-1.710503 -1.1842,-2.197343 -0.40789,-0.269737 -0.51973,-0.822364 -0.24671,-1.230263 0.26809,-0.407888 0.82237,-0.523016 1.23026,-0.253279 1.23682,0.820717 1.98025,2.19406 1.98025,3.680885 0,2.427622 -1.97697,4.401286 -4.40622,4.401286 m -1.93256,9.386457 c -0.15131,0.121704 -0.35691,0.0839 -0.56248,0.03127 -3.24013,-0.771377 -5.62005,-2.143074 -7.9358,-4.585495 -0.16777,-0.174339 -0.25001,-0.328937 -0.25001,-0.467099 0,-0.0247 0,-0.04106 0.006,-0.06744 0.0295,-0.213807 0.29275,-0.338806 0.51151,-0.444075 l 6.78286,-3.29109 c 0.2648,-0.123352 0.51972,-0.129927 0.71875,-0.01195 0.19735,0.115176 0.31907,0.333878 0.34209,0.620061 l 0.54771,7.531192 c 0.0214,0.355265 -0.0314,0.574016 -0.16121,0.684213 M 145.25691,89.58493 c -0.29275,0.202303 -0.50986,0.273031 -0.67762,0.215455 -0.1842,-0.06576 -0.24507,-0.268089 -0.30428,-0.468745 -0.95887,-3.198987 -0.95887,-5.942392 -0.0119,-9.169343 0.0823,-0.276312 0.19736,-0.429275 0.34539,-0.483545 0.2171,-0.07734 0.44407,0.08223 0.64801,0.222032 l 6.23188,4.238465 c 0.23519,0.156244 0.37171,0.373346 0.37171,0.61019 0,0.225326 -0.13652,0.444076 -0.36349,0.608544 z m 1.6102,-13.924247 h 0.004 c 2.31906,-2.435833 4.69568,-3.810824 7.93415,-4.587141 0.20067,-0.04607 0.41449,-0.08557 0.55593,0.04273 0.13817,0.106934 0.18585,0.328947 0.15953,0.689142 l -0.54605,7.511463 c -0.0181,0.289465 -0.13815,0.516439 -0.34045,0.628284 -0.19902,0.118398 -0.45559,0.111834 -0.71381,-0.0148 l -6.77616,-3.282877 c -0.22204,-0.10861 -0.48026,-0.225327 -0.52467,-0.449005 -0.0214,-0.15461 0.0525,-0.333878 0.24835,-0.537828 m 12.59037,-4.605236 c 0.15626,-0.126644 0.36184,-0.08557 0.56579,-0.0444 3.23848,0.784529 5.61674,2.152943 7.93746,4.592072 0.16446,0.174338 0.25328,0.335523 0.25328,0.480263 0,0.01314 -0.003,0.03617 -0.003,0.05753 -0.0493,0.222032 -0.29769,0.340454 -0.51974,0.447358 l -6.78284,3.28288 c -0.26644,0.126644 -0.51644,0.139797 -0.71217,0.01814 -0.20065,-0.115175 -0.324,-0.33717 -0.34702,-0.629931 L 159.304,71.747865 c -0.023,-0.360194 0.0263,-0.58059 0.1546,-0.692437 m -2.02795,-2.592078 c -8.88481,0 -16.11665,7.233502 -16.11665,16.121603 0,8.891381 7.23184,16.123247 16.11665,16.123247 8.88811,0 16.1216,-7.231866 16.1216,-16.123247 0,-8.888101 -7.23349,-16.121603 -16.1216,-16.121603"
         id="path4583" />
    </g>
  </g>
</svg>
